SplineFontDB: 3.0
FontName: Signika-Bold
FullName: Signika Bold
FamilyName: Signika
Weight: Bold
Copyright: Copyright (c) 2011 by Anna Giedrys (http://ancymonic.com), with Reserved Font Names "Signika".
Version: 001.001
ItalicAngle: 0
UnderlinePosition: -100
UnderlineWidth: 50
Ascent: 800
Descent: 200
sfntRevision: 0x00010042
LayerCount: 2
Layer: 0 1 "Back"  1
Layer: 1 1 "Fore"  0
NeedsXUIDChange: 1
XUID: [1021 288 713564382 13920243]
FSType: 0
OS2Version: 2
OS2_WeightWidthSlopeOnly: 0
OS2_UseTypoMetrics: 1
CreationTime: 1321815044
ModificationTime: 1321846897
PfmFamily: 17
TTFWeight: 700
TTFWidth: 5
LineGap: 0
VLineGap: 0
Panose: 2 1 0 3 2 6 0 0 0 4
OS2TypoAscent: 140
OS2TypoAOffset: 1
OS2TypoDescent: -92
OS2TypoDOffset: 1
OS2TypoLinegap: 0
OS2WinAscent: 0
OS2WinAOffset: 1
OS2WinDescent: 0
OS2WinDOffset: 1
HheadAscent: 0
HheadAOffset: 1
HheadDescent: 0
HheadDOffset: 1
OS2SubXSize: 700
OS2SubYSize: 650
OS2SubXOff: 0
OS2SubYOff: 140
OS2SupXSize: 700
OS2SupYSize: 650
OS2SupXOff: 0
OS2SupYOff: 477
OS2StrikeYSize: 50
OS2StrikeYPos: 250
OS2CodePages: 00000093.00000000
OS2UnicodeRanges: a00000af.00000003.00000000.00000000
Lookup: 1 0 0 "'aalt' Access All Alternates lookup 0"  {"'aalt' Access All Alternates lookup 0 subtable"  } ['aalt' ('    ' <'dflt' > 'latn' <'dflt' > ) ]
Lookup: 3 0 0 "'aalt' Access All Alternates lookup 1"  {"'aalt' Access All Alternates lookup 1 subtable"  } ['aalt' ('    ' <'dflt' > 'latn' <'dflt' > ) ]
Lookup: 1 0 0 "'smcp' Lowercase to Small Capitals lookup 2"  {"'smcp' Lowercase to Small Capitals lookup 2 subtable"  } ['smcp' ('    ' <'dflt' > 'latn' <'dflt' > ) ]
Lookup: 1 0 0 "'c2sc' Capitals to Small Capitals lookup 3"  {"'c2sc' Capitals to Small Capitals lookup 3 subtable"  } ['c2sc' ('    ' <'dflt' > 'latn' <'dflt' > ) ]
Lookup: 4 0 0 "'frac' Diagonal Fractions lookup 4"  {"'frac' Diagonal Fractions lookup 4 subtable"  } ['frac' ('    ' <'dflt' > 'latn' <'dflt' > ) ]

StartChar: a
Encoding: 97 97 5
Width: 513
Flags: HMW
HStem: -15 115<214 214.5> 211 99<222.5 237 176.5 252> 390 121<245.5 256.5>
VStem: 30 152<133.5 166 133.5 197> 299 157<129 137 137 209 209 209 308 327 327 340>
LayerCount: 2
Fore
SplineSet
484 72 m 1,0,1
 479 51 479 51 465 27 c 128,-1,2
 451 3 451 3 436 -8 c 1,3,4
 367 -7 367 -7 328 45 c 1,5,6
 264 -15 264 -15 187 -15 c 128,-1,7
 110 -15 110 -15 70 31 c 128,-1,8
 30 77 30 77 30 137 c 0,9,10
 30 222 30 222 87 266 c 128,-1,11
 144 310 144 310 228 310 c 0,12,13
 273 310 273 310 299 308 c 1,14,-1
 299 327 l 2,15,16
 299 390 299 390 234 390 c 0,17,18
 191 390 191 390 87 358 c 1,19,20
 56 394 56 394 49 467 c 1,21,22
 98 487 98 487 163 499 c 128,-1,23
 228 511 228 511 278 511 c 0,24,25
 352 511 352 511 404 469.5 c 128,-1,26
 456 428 456 428 456 340 c 2,27,-1
 456 137 l 2,28,29
 456 92 456 92 484 72 c 1,0,1
182 147 m 0,30,31
 182 100 182 100 235.5 100 c 0,32,33
 264 100 264 100 299 129 c 1,34,-1
 299 209 l 1,35,36
 259 211 259 211 245 211 c 0,37,38
 182 211 182 211 182 147 c 0,30,31
EndSplineSet
Substitution2: "'ordn' Ordinals lookup 6 subtable" ordfeminine
Substitution2: "'smcp' Lowercase to Small Capitals lookup 2 subtable" a.smcp
AlternateSubs2: "'aalt' Access All Alternates lookup 1 subtable" a.smcp ordfeminine
EndChar

StartChar: b
Encoding: 98 98 6
Width: 535
Flags: HMW
HStem: -9 112<250 288.5 250 332> 384 125<270.5 387>
VStem: 60 152<107 351 475 642> 345 160<257 299>
LayerCount: 2
Fore
SplineSet
459.5 439.5 m 128,-1,1
 505 370 505 370 505.5 252.5 c 128,-1,2
 506 135 506 135 438 63 c 128,-1,3
 370 -9 370 -9 258 -9 c 128,-1,4
 146 -9 146 -9 60 25 c 1,5,-1
 60 729 l 1,6,-1
 67 736 l 1,7,-1
 126 736 l 2,8,9
 172 736 172 736 192 715 c 128,-1,10
 212 694 212 694 212 642 c 2,11,-1
 212 475 l 1,12,13
 265 509 265 509 328 509 c 0,14,0
 414 509 414 509 459.5 439.5 c 128,-1,1
281 384 m 0,15,16
 242 384 242 384 212 351 c 1,17,-1
 212 107 l 1,18,19
 232 103 232 103 258 103 c 0,20,21
 345 103 345 103 345 254 c 0,22,23
 345 383 345 383 281 384 c 0,15,16
EndSplineSet
Substitution2: "'smcp' Lowercase to Small Capitals lookup 2 subtable" b.smcp
Substitution2: "'aalt' Access All Alternates lookup 0 subtable" b.smcp
EndChar

StartChar: c
Encoding: 99 99 7
Width: 475
Flags: HMW
HStem: -15 122<247.5 287.5> 398 116<228 277>
VStem: 30 159<195 300.5 195 345> 309 140
LayerCount: 2
Fore
SplineSet
309 278 m 1,0,1
 310 342 310 342 298.5 370 c 128,-1,2
 287 398 287 398 252 398 c 0,3,4
 217 398 217 398 203 363 c 128,-1,5
 189 328 189 328 189 249.5 c 0,6,7
 189 171 189 171 210.5 139 c 128,-1,8
 232 107 232 107 278.5 107 c 0,9,10
 325 107 325 107 386 149 c 1,11,12
 404 139 404 139 422 112.5 c 128,-1,13
 440 86 440 86 445 62 c 1,14,15
 412 27 412 27 359 6 c 128,-1,16
 306 -15 306 -15 251 -15 c 0,17,18
 145 -15 145 -15 87.5 55.5 c 128,-1,19
 30 126 30 126 30 254.5 c 0,20,21
 30 383 30 383 95.5 448.5 c 128,-1,22
 161 514 161 514 250 514 c 0,23,24
 339 514 339 514 394 468 c 128,-1,25
 449 422 449 422 449 348 c 0,26,27
 449 310 449 310 428 291 c 128,-1,28
 407 272 407 272 373 272 c 0,29,30
 339 272 339 272 309 278 c 1,0,1
EndSplineSet
Substitution2: "'smcp' Lowercase to Small Capitals lookup 2 subtable" c.smcp
Substitution2: "'aalt' Access All Alternates lookup 0 subtable" c.smcp
EndChar

StartChar: d
Encoding: 100 100 8
Width: 539
Flags: HMW
HStem: -15 126<234.5 239.5> 393 116<236 249.5 177.5 269.5>
VStem: 32 160<196.5 289 196.5 330> 325 152<150 369 369 369 487 642>
LayerCount: 2
Fore
SplineSet
77.5 55.5 m 128,-1,1
 32 126 32 126 32 247 c 128,-1,2
 32 368 32 368 89 438.5 c 128,-1,3
 146 509 146 509 232 509 c 0,4,5
 278 509 278 509 325 487 c 1,6,-1
 325 729 l 1,7,-1
 331 736 l 1,8,-1
 392 736 l 2,9,10
 439 736 439 736 458 715 c 128,-1,11
 477 694 477 694 477 642 c 2,12,-1
 477 144 l 2,13,14
 477 92 477 92 505 72 c 1,15,16
 500 51 500 51 486 27 c 128,-1,17
 472 3 472 3 457 -8 c 1,18,19
 385 -7 385 -7 350 48 c 1,20,21
 290 -15 290 -15 206.5 -15 c 128,-1,0
 123 -15 123 -15 77.5 55.5 c 128,-1,1
252 111 m 0,22,23
 294 111 294 111 325 150 c 1,24,-1
 325 369 l 1,25,26
 284 393 284 393 260 393 c 0,27,28
 192 393 192 393 192 243 c 0,29,30
 192 111 192 111 252 111 c 0,22,23
EndSplineSet
Substitution2: "'smcp' Lowercase to Small Capitals lookup 2 subtable" d.smcp
Substitution2: "'aalt' Access All Alternates lookup 0 subtable" d.smcp
EndChar

StartChar: e
Encoding: 101 101 9
Width: 497
Flags: HMW
HStem: -15 119<245 288> 199 108<188 319 187 449 188 188> 403 111<231 276.5>
VStem: 30 157<307 307 307 321.5> 319 143<307 318 318 341>
LayerCount: 2
Fore
SplineSet
449 199 m 1,0,-1
 188 199 l 1,1,2
 192 154 192 154 212 129 c 128,-1,3
 232 104 232 104 281.5 104 c 128,-1,4
 331 104 331 104 408 134 c 1,5,6
 441 101 441 101 449 42 c 1,7,8
 370 -15 370 -15 253 -15 c 0,9,10
 190 -15 190 -15 144.5 6.5 c 128,-1,11
 99 28 99 28 75 66.5 c 0,12,13
 30 138.6875 30 138.6875 30 252.84375 c 128,-1,14
 30 367 30 367 85 440.5 c 128,-1,15
 140 514 140 514 254 514 c 0,16,17
 351 514 351 514 406.5 454.5 c 128,-1,18
 462 395 462 395 462 302 c 0,19,20
 462 242 462 242 449 199 c 1,0,-1
302.5 379 m 128,-1,22
 286 403 286 403 253.5 403 c 128,-1,23
 221 403 221 403 205.5 380 c 128,-1,24
 190 357 190 357 187 307 c 1,25,-1
 319 307 l 1,26,-1
 319 318 l 2,27,21
 319 355 319 355 302.5 379 c 128,-1,22
EndSplineSet
Substitution2: "'smcp' Lowercase to Small Capitals lookup 2 subtable" e.smcp
Substitution2: "'aalt' Access All Alternates lookup 0 subtable" e.smcp
EndChar

StartChar: f
Encoding: 102 102 10
Width: 358
Flags: HMW
HStem: 390 110<2 88>
VStem: 88 152<0 390 390 390>
LayerCount: 2
Fore
SplineSet
88 0 m 1,0,-1
 88 390 l 1,1,-1
 2 389 l 1,2,3
 -4 414 -4 414 -4 444 c 0,4,5
 -4 474 -4 474 2 500 c 1,6,-1
 80 499 l 1,7,8
 75 536 75 536 75 566 c 0,9,10
 75 641 75 641 123.5 690.5 c 128,-1,11
 172 740 172 740 250 740 c 0,12,13
 328 740 328 740 403 712 c 1,14,15
 404 686 404 686 394 655.5 c 128,-1,16
 384 625 384 625 369 609 c 1,17,18
 322 623 322 623 292 623 c 0,19,20
 225 623 225 623 225 554 c 0,21,22
 225 525 225 525 229 498 c 1,23,-1
 360 500 l 1,24,25
 366 474 366 474 366 444 c 0,26,27
 366 414 366 414 360 389 c 1,28,-1
 240 391 l 1,29,-1
 240 0 l 1,30,31
 206 -6 206 -6 165 -6 c 0,32,33
 124 -6 124 -6 88 0 c 1,0,-1
EndSplineSet
Substitution2: "'smcp' Lowercase to Small Capitals lookup 2 subtable" f.smcp
Substitution2: "'aalt' Access All Alternates lookup 0 subtable" f.smcp
EndChar

StartChar: g
Encoding: 103 103 11
Width: 536
Flags: HMW
HStem: -221 116<207.5 261.5 202.5 279> -10 126<151 264> 398 116<235.5 261.5 177.5 269.5> 487 20G
VStem: 32 160<201.5 294.5 201.5 334.5> 326 152<21 29 29 29 150 355>
LayerCount: 2
Fore
SplineSet
77.5 60.5 m 128,-1,1
 32 131 32 131 32 252 c 128,-1,2
 32 373 32 373 89.5 443.5 c 128,-1,3
 147 514 147 514 228.5 514 c 128,-1,4
 310 514 310 514 364 467 c 1,5,6
 399 506 399 506 458 507 c 1,7,8
 474 495 474 495 488.5 471 c 128,-1,9
 503 447 503 447 506 427 c 1,10,11
 478 407 478 407 478 355 c 2,12,-1
 478 91 l 2,13,14
 478 -82 478 -82 427 -148 c 1,15,16
 369 -221 369 -221 239 -221 c 0,17,18
 137 -221 137 -221 51 -188 c 1,19,20
 51 -160 51 -160 62 -127 c 128,-1,21
 73 -94 73 -94 89 -75 c 1,22,23
 157 -105 157 -105 225 -105 c 0,24,25
 326 -105 326 -105 326 -4 c 2,26,-1
 326 29 l 1,27,28
 272 -10 272 -10 212 -10 c 0,29,0
 123 -10 123 -10 77.5 60.5 c 128,-1,1
326 150 m 1,30,-1
 326 364 l 1,31,32
 290 398 290 398 260 398 c 0,33,34
 192 398 192 398 192 248 c 0,35,36
 192 116 192 116 251 116 c 0,37,38
 292 116 292 116 326 150 c 1,30,-1
EndSplineSet
Substitution2: "'smcp' Lowercase to Small Capitals lookup 2 subtable" g.smcp
Substitution2: "'aalt' Access All Alternates lookup 0 subtable" g.smcp
EndChar

StartChar: h
Encoding: 104 104 12
Width: 543
Flags: HMW
HStem: 488 20G<319.5 391.5>
VStem: 60 152<0 334 0 453 453 642> 329 157<105.5 125 125 302 302 324.5>
LayerCount: 2
Fore
SplineSet
486 330 m 2,0,-1
 486 125 l 2,1,2
 486 59 486 59 511 26 c 1,3,4
 472 -8 472 -8 419.5 -8 c 0,5,6
 367 -8 367 -8 348 16 c 128,-1,7
 329 40 329 40 329 89 c 2,8,-1
 329 302 l 2,9,10
 329 337 329 337 320 352.5 c 128,-1,11
 311 368 311 368 280 368 c 0,12,13
 249 368 249 368 212 334 c 1,14,-1
 212 0 l 1,15,16
 179 -6 179 -6 136.5 -6 c 0,17,18
 94 -6 94 -6 60 0 c 1,19,-1
 60 729 l 1,20,-1
 67 736 l 1,21,-1
 127 736 l 2,22,23
 174 736 174 736 193 715 c 128,-1,24
 212 694 212 694 212 642 c 2,25,-1
 212 453 l 1,26,27
 279 508 279 508 346 508 c 128,-1,28
 413 508 413 508 449.5 459 c 128,-1,29
 486 410 486 410 486 330 c 2,0,-1
EndSplineSet
Substitution2: "'smcp' Lowercase to Small Capitals lookup 2 subtable" h.smcp
Substitution2: "'aalt' Access All Alternates lookup 0 subtable" h.smcp
EndChar

StartChar: j
Encoding: 106 106 14
Width: 304
Flags: HMW
HStem: -220 21G 389 114<21 139 21 139> 478 20G 584 116<68 68 216 216>
VStem: 56 160 92 154<-3 29 29 331 331 347.5>
LayerCount: 2
Fore
SplineSet
246 384 m 2,0,-1
 246 29 l 2,1,2
 246 -88 246 -88 207.5 -143 c 128,-1,3
 169 -198 169 -198 54 -220 c 1,4,5
 37 -207 37 -207 25 -179.5 c 128,-1,6
 13 -152 13 -152 12 -125 c 1,7,8
 57 -106 57 -106 74.5 -81 c 128,-1,9
 92 -56 92 -56 92 -3 c 2,10,-1
 92 331 l 2,11,12
 92 389 92 389 45 389 c 2,13,-1
 21 389 l 1,14,15
 14 413 14 413 14 443 c 0,16,17
 14 473 14 473 21 498 c 1,18,19
 79 503 79 503 117 503 c 2,20,-1
 139 503 l 2,21,22
 188 503 188 503 217 471 c 128,-1,23
 246 439 246 439 246 384 c 2,0,-1
56 642 m 128,-1,25
 56 673 56 673 68 700 c 1,26,27
 98 716 98 716 143.5 716 c 0,28,29
 189 716 189 716 216 700 c 1,30,31
 228 673 228 673 228 642 c 128,-1,32
 228 611 228 611 216 584 c 1,33,34
 188 569 188 569 140.5 569 c 0,35,36
 93 569 93 569 68 584 c 1,37,24
 56 611 56 611 56 642 c 128,-1,25
EndSplineSet
Substitution2: "'smcp' Lowercase to Small Capitals lookup 2 subtable" j.smcp
Substitution2: "'aalt' Access All Alternates lookup 0 subtable" j.smcp
EndChar

StartChar: k
Encoding: 107 107 15
Width: 523
Flags: HMW
HStem: 200 128<212 257> 493 10
VStem: 60 152<0 199 0 328 328 642>
LayerCount: 2
Fore
SplineSet
443 199 m 2,0,-1
 468 126 l 1,1,2
 487.961864407 60.4110169492 487.961864407 60.4110169492 516 41 c 1,3,4
 472 -8 472 -8 411 -8 c 0,5,6
 378 -8 378 -8 361 7.5 c 128,-1,7
 344 23 344 23 331 62 c 2,8,-1
 301 148 l 2,9,10
 291 179 291 179 278 189.5 c 128,-1,11
 265 200 265 200 243 200 c 128,-1,12
 221 200 221 200 212 199 c 1,13,-1
 212 0 l 1,14,15
 179 -6 179 -6 136 -6 c 128,-1,16
 93 -6 93 -6 60 0 c 1,17,-1
 60 729 l 1,18,-1
 67 736 l 1,19,-1
 127 736 l 2,20,21
 174 736 174 736 193 715 c 128,-1,22
 212 694 212 694 212 642 c 2,23,-1
 212 328 l 1,24,-1
 228 328 l 2,25,26
 246 328 246 328 256 346 c 2,27,-1
 308 446 l 1,28,29
 336 503 336 503 396 503 c 0,30,31
 425 503 425 503 483 501 c 1,32,-1
 489 493 l 1,33,-1
 412 344 l 2,34,35
 392 306 392 306 361 285 c 1,36,37
 421 263 421 263 443 199 c 2,0,-1
EndSplineSet
Substitution2: "'smcp' Lowercase to Small Capitals lookup 2 subtable" k.smcp
Substitution2: "'aalt' Access All Alternates lookup 0 subtable" k.smcp
EndChar

StartChar: l
Encoding: 108 108 16
Width: 313
Flags: HMW
HStem: -5 119<138 282>
VStem: 59 152<146 161 161 642>
LayerCount: 2
Fore
SplineSet
255 114 m 2,0,-1
 282 114 l 1,1,2
 294 81 294 81 294 48 c 0,3,4
 294 15 294 15 291 5 c 1,5,6
 231 -5 231 -5 173.5 -5 c 0,7,8
 116 -5 116 -5 87.5 28.5 c 128,-1,9
 59 62 59 62 59 134 c 2,10,-1
 59 729 l 1,11,-1
 65 736 l 1,12,-1
 126 736 l 2,13,14
 173 736 173 736 192 715 c 128,-1,15
 211 694 211 694 211 642 c 2,16,-1
 211 161 l 2,17,18
 211 114 211 114 255 114 c 2,0,-1
EndSplineSet
Substitution2: "'smcp' Lowercase to Small Capitals lookup 2 subtable" l.smcp
Substitution2: "'aalt' Access All Alternates lookup 0 subtable" l.smcp
EndChar

StartChar: m
Encoding: 109 109 17
Width: 808
Flags: HMW
HStem: 368 140<282 374.5>
VStem: 60 156<0 334 0 499> 327 157<0 301 301 327.5> 595 156<105.5 125 125 302 302 328.5>
CounterMasks: 1 70
LayerCount: 2
Fore
SplineSet
327 301 m 2,0,1
 327 368 327 368 282 368 c 1,2,3
 250 366 250 366 216 334 c 1,4,-1
 216 0 l 1,5,6
 183 -6 183 -6 138 -6 c 128,-1,7
 93 -6 93 -6 60 0 c 1,8,-1
 60 499 l 1,9,-1
 67 506 l 1,10,-1
 125 506 l 2,11,12
 189 506 189 506 209 443 c 1,13,14
 279 508 279 508 347 508 c 0,15,16
 428 508 428 508 464 439 c 1,17,18
 542 508 542 508 612 508 c 0,19,20
 682 508 682 508 716.5 464 c 128,-1,21
 751 420 751 420 751 349 c 2,22,-1
 751 125 l 2,23,24
 751 61 751 61 776 26 c 1,25,26
 737 -8 737 -8 685 -8 c 0,27,28
 633 -8 633 -8 614 16 c 128,-1,29
 595 40 595 40 595 89 c 2,30,-1
 595 302 l 2,31,32
 595 368 595 368 548 368 c 0,33,34
 519 368 519 368 484 333 c 1,35,-1
 484 0 l 1,36,37
 451 -6 451 -6 406.5 -6 c 0,38,39
 362 -6 362 -6 327 0 c 1,40,-1
 327 301 l 2,0,1
EndSplineSet
Substitution2: "'smcp' Lowercase to Small Capitals lookup 2 subtable" m.smcp
Substitution2: "'aalt' Access All Alternates lookup 0 subtable" m.smcp
EndChar

StartChar: n
Encoding: 110 110 18
Width: 547
Flags: HMW
HStem: 486 20G<67 126 126 147> 488 20G<321 395.5>
VStem: 60 156<0 334 0 499> 333 157<105.5 125 125 302 302 324.5>
LayerCount: 2
Fore
SplineSet
490 330 m 2,0,-1
 490 125 l 2,1,2
 490 59 490 59 514 26 c 1,3,4
 475 -8 475 -8 423 -8 c 0,5,6
 371 -8 371 -8 352 16 c 128,-1,7
 333 40 333 40 333 89 c 2,8,-1
 333 302 l 2,9,10
 333 337 333 337 324 352.5 c 128,-1,11
 315 368 315 368 284 368 c 0,12,13
 253 368 253 368 216 334 c 1,14,-1
 216 0 l 1,15,16
 183 -6 183 -6 138 -6 c 128,-1,17
 93 -6 93 -6 60 0 c 1,18,-1
 60 499 l 1,19,-1
 67 506 l 1,20,-1
 126 506 l 2,21,22
 187 506 187 506 208 446 c 1,23,24
 277 508 277 508 347 508 c 0,25,26
 417 508 417 508 453.5 459 c 128,-1,27
 490 410 490 410 490 330 c 2,0,-1
EndSplineSet
Substitution2: "'smcp' Lowercase to Small Capitals lookup 2 subtable" n.smcp
Substitution2: "'aalt' Access All Alternates lookup 0 subtable" n.smcp
EndChar

StartChar: o
Encoding: 111 111 19
Width: 522
Flags: HMW
HStem: -15 117<230 291.5 230 292> 397 117<230 291.5>
VStem: 30 160<208.5 291 208.5 293.5> 331 161<208.5 291>
LayerCount: 2
Fore
SplineSet
420 455 m 0,0,1
 492 383 492 383 492 249.5 c 128,-1,2
 492 116 492 116 420 44 c 0,3,4
 360 -15 360 -15 260.5 -15 c 128,-1,5
 161 -15 161 -15 102 44 c 0,6,7
 30 116 30 116 30 249.5 c 128,-1,8
 30 383 30 383 102 455 c 0,9,10
 161 514 161 514 260.5 514 c 128,-1,11
 360 514 360 514 420 455 c 0,0,1
259.581395349 102 m 128,-1,13
 303 102 303 102 317 140 c 128,-1,14
 331 178 331 178 331 250 c 128,-1,15
 331 322 331 322 317 359.5 c 128,-1,16
 303 397 303 397 261 397 c 0,17,18
 216.162790698 397 216.162790698 397 202 353.5 c 0,19,20
 190 316.642857143 190 316.642857143 190 265.821428571 c 0,21,22
 190 182.357142857 190 182.357142857 203.081395349 142.178571429 c 128,-1,12
 216.162790698 102 216.162790698 102 259.581395349 102 c 128,-1,13
EndSplineSet
Substitution2: "'ordn' Ordinals lookup 6 subtable" ordmasculine
Substitution2: "'smcp' Lowercase to Small Capitals lookup 2 subtable" o.smcp
AlternateSubs2: "'aalt' Access All Alternates lookup 1 subtable" o.smcp ordmasculine
EndChar

StartChar: p
Encoding: 112 112 20
Width: 538
Flags: HMW
HStem: -216 21G<67 127 67 67> -209 21G<60 60> -10 116<287.5 302 268.5 360> 389 125<300 303.5> 486 20G<67 108 108 126.5>
VStem: 60 153<-157 -122 -122 11 129 349> 346 160<210.5 303>
LayerCount: 2
Fore
SplineSet
460.5 444 m 128,-1,1
 506 374 506 374 506 253 c 128,-1,2
 506 132 506 132 448.5 61 c 128,-1,3
 391 -10 391 -10 305 -10 c 0,4,5
 260 -10 260 -10 213 11 c 1,6,-1
 213 -122 l 2,7,8
 213 -174 213 -174 193.5 -195 c 128,-1,9
 174 -216 174 -216 127 -216 c 2,10,-1
 67 -216 l 1,11,-1
 60 -209 l 1,12,-1
 60 499 l 1,13,-1
 67 506 l 1,14,-1
 108 506 l 2,15,16
 165 506 165 506 193 457 c 1,17,18
 250 514 250 514 332.5 514 c 128,-1,0
 415 514 415 514 460.5 444 c 128,-1,1
286 389 m 0,19,20
 244 389 244 389 213 349 c 1,21,-1
 213 129 l 1,22,23
 251 106 251 106 278 106 c 0,24,25
 346 106 346 106 346 257 c 0,26,27
 346 389 346 389 286 389 c 0,19,20
EndSplineSet
Substitution2: "'smcp' Lowercase to Small Capitals lookup 2 subtable" p.smcp
Substitution2: "'aalt' Access All Alternates lookup 0 subtable" p.smcp
EndChar

StartChar: q
Encoding: 113 113 21
Width: 539
Flags: HMW
HStem: -216 21G<378.5 409 409 470> -209 21G<477 477> -10 126<151 263.5> 398 116<236 261.5 177.5 269.5> 487 20G
VStem: 32 160<201.5 294.5 201.5 334.5> 325 152<-122 28 28 28 149 355 -209 357 -209 365 -209 365>
LayerCount: 2
Fore
SplineSet
325 -122 m 2,0,-1
 325 28 l 1,1,2
 274 -10 274 -10 212 -10 c 0,3,4
 123 -10 123 -10 77.5 60.5 c 128,-1,5
 32 131 32 131 32 252 c 128,-1,6
 32 373 32 373 89.5 443.5 c 128,-1,7
 147 514 147 514 227.5 514 c 128,-1,8
 308 514 308 514 363 468 c 1,9,10
 397 506 397 506 458 507 c 1,11,12
 472 496 472 496 486.5 472 c 128,-1,13
 501 448 501 448 505 427 c 1,14,15
 477 406 477 406 477 355 c 2,16,-1
 477 -209 l 1,17,-1
 470 -216 l 1,18,-1
 409 -216 l 2,19,20
 363 -216 363 -216 344 -195 c 128,-1,21
 325 -174 325 -174 325 -122 c 2,0,-1
251 116 m 0,22,23
 292 116 292 116 325 149 c 1,24,-1
 325 365 l 1,25,26
 289 398 289 398 260 398 c 0,27,28
 192 398 192 398 192 248 c 0,29,30
 192 116 192 116 251 116 c 0,22,23
EndSplineSet
Substitution2: "'smcp' Lowercase to Small Capitals lookup 2 subtable" q.smcp
Substitution2: "'aalt' Access All Alternates lookup 0 subtable" q.smcp
EndChar

StartChar: r
Encoding: 114 114 22
Width: 397
Flags: HMW
HStem: 487 20G
VStem: 68 156<0 311 0 323 0 352.5>
LayerCount: 2
Fore
SplineSet
30 427 m 1,0,1
 35 447 35 447 49 471.5 c 128,-1,2
 63 496 63 496 77 507 c 1,3,4
 169 500 169 500 205 416 c 1,5,6
 243 506 243 506 330 506 c 0,7,8
 356 506 356 506 396 498 c 1,9,10
 396 467 396 467 385.5 424.5 c 128,-1,11
 375 382 375 382 357 352 c 1,12,13
 340 358 340 358 306 362 c 1,14,15
 256 362 256 362 224 311 c 1,16,-1
 224 0 l 1,17,18
 191 -6 191 -6 146.5 -6 c 0,19,20
 102 -6 102 -6 68 0 c 1,21,-1
 68 323 l 2,22,23
 68 398 68 398 30 427 c 1,0,1
EndSplineSet
Substitution2: "'smcp' Lowercase to Small Capitals lookup 2 subtable" r.smcp
Substitution2: "'aalt' Access All Alternates lookup 0 subtable" r.smcp
EndChar

StartChar: s
Encoding: 115 115 23
Width: 443
Flags: HMW
HStem: -15 113<182 221 182 280> 401 113<215.5 253>
VStem: 34 154<360.5 378 360.5 399.5> 260 161<123 142.5>
LayerCount: 2
Fore
SplineSet
20 34 m 1,0,1
 21 60 21 60 33.5 91 c 128,-1,2
 46 122 46 122 63 140 c 1,3,4
 143 98 143 98 202 98 c 0,5,6
 230 98 230 98 245 107.5 c 128,-1,7
 260 117 260 117 260 133 c 0,8,9
 260 163 260 163 214 178 c 1,10,-1
 159 199 l 1,11,12
 34 245 34 245 34 349 c 0,13,14
 34 425 34 425 86.5 469.5 c 128,-1,15
 139 514 139 514 228 514 c 0,16,17
 272 514 272 514 325 501.5 c 128,-1,18
 378 489 378 489 412 472 c 1,19,20
 414 444 414 444 401 410.5 c 128,-1,21
 388 377 388 377 369 363 c 1,22,23
 285 401 285 401 229 401 c 0,24,25
 209 401 209 401 198.5 392 c 128,-1,26
 188 383 188 383 188 369 c 0,27,28
 188 345 188 345 226 331 c 2,29,-1
 288 309 l 2,30,31
 421 262 421 262 421 148 c 0,32,33
 421 73 421 73 366 29 c 128,-1,34
 311 -15 311 -15 209 -15 c 0,35,36
 107 -15 107 -15 20 34 c 1,0,1
EndSplineSet
Substitution2: "'smcp' Lowercase to Small Capitals lookup 2 subtable" s.smcp
Substitution2: "'aalt' Access All Alternates lookup 0 subtable" s.smcp
EndChar

StartChar: t
Encoding: 116 116 24
Width: 375
Flags: HMW
HStem: -5 119<167.5 333> 390 110<2 80> 630 20G<165 226 226 226>
VStem: 80 153<146 161 161 390 390 390 498 556 556 590.5>
LayerCount: 2
Fore
SplineSet
352 500 m 1,0,1
 358 471.5 358 471.5 358 443.75 c 128,-1,2
 358 416 358 416 352 389 c 1,3,-1
 233 391 l 1,4,-1
 233 161 l 2,5,6
 233 114 233 114 277 114 c 2,7,-1
 333 114 l 1,8,9
 346 78 346 78 346 48 c 128,-1,10
 346 18 346 18 342 5 c 1,11,12
 268 -5 268 -5 206.5 -5 c 0,13,14
 80 -5 80 -5 80 134 c 2,15,-1
 80 390 l 1,16,-1
 2 389 l 1,17,18
 -5 414 -5 414 -5 443.5 c 128,-1,19
 -5 473 -5 473 2 500 c 1,20,-1
 80 498 l 1,21,-1
 80 556 l 2,22,23
 80 607 80 607 99.5 628.5 c 128,-1,24
 119 650 119 650 165 650 c 2,25,-1
 226 650 l 1,26,-1
 233 643 l 1,27,-1
 233 498 l 1,28,-1
 352 500 l 1,0,1
EndSplineSet
Substitution2: "'smcp' Lowercase to Small Capitals lookup 2 subtable" t.smcp
Substitution2: "'aalt' Access All Alternates lookup 0 subtable" t.smcp
EndChar

StartChar: u
Encoding: 117 117 25
Width: 549
Flags: HMW
HStem: -9 140<151.5 266.5> 479 20G<331 331 487 487> 487 20G<110.5 161.5>
VStem: 57 157<175 198 198 374 374 393.5> 331 156<165 499>
LayerCount: 2
Fore
SplineSet
57 169 m 2,0,-1
 57 374 l 2,1,2
 57 439 57 439 33 474 c 1,3,4
 71 507 71 507 123.5 507 c 0,5,6
 176 507 176 507 195 483 c 128,-1,7
 214 459 214 459 214 410 c 2,8,-1
 214 198 l 2,9,10
 214 162 214 162 223 146.5 c 128,-1,11
 232 131 232 131 264 131 c 0,12,13
 296 131 296 131 331 165 c 1,14,-1
 331 499 l 1,15,16
 364 505 364 505 408.5 505 c 0,17,18
 453 505 453 505 487 499 c 1,19,-1
 487 143 l 2,20,21
 487 90 487 90 515 70 c 1,22,23
 510 50 510 50 496 26.5 c 128,-1,24
 482 3 482 3 467 -8 c 1,25,26
 385 -5 385 -5 349 62 c 1,27,28
 271 -9 271 -9 200.5 -9 c 0,29,30
 130 -9 130 -9 93.5 40 c 128,-1,31
 57 89 57 89 57 169 c 2,0,-1
EndSplineSet
Substitution2: "'smcp' Lowercase to Small Capitals lookup 2 subtable" u.smcp
Substitution2: "'aalt' Access All Alternates lookup 0 subtable" u.smcp
EndChar

StartChar: v
Encoding: 118 118 26
Width: 480
Flags: HMW
HStem: -6 125<193.5 249> 484 20G<383.5 406.5> 488 20G<69 106.5>
VStem: -5 484<485 487>
LayerCount: 2
Fore
SplineSet
249 119 m 1,0,-1
 336 498 l 1,1,2
 364.5 504 364.5 504 403.25 504 c 0,3,4
 442 504 442 504 474 492 c 1,5,-1
 479 485 l 1,6,7
 377 113 377 113 340 0 c 1,8,9
 289 -6 289 -6 232.5 -6 c 0,10,11
 176 -6 176 -6 152 9.5 c 128,-1,12
 128 25 128 25 115 69 c 2,13,-1
 -5 487 l 1,14,15
 44 508 44 508 82 508 c 128,-1,16
 120 508 120 508 141 491.5 c 128,-1,17
 162 475 162 475 172 435 c 2,18,-1
 217 248 l 2,19,20
 222 229 222 229 239 127 c 0,21,22
 240 119 240 119 249 119 c 1,0,-1
EndSplineSet
Substitution2: "'smcp' Lowercase to Small Capitals lookup 2 subtable" v.smcp
Substitution2: "'aalt' Access All Alternates lookup 0 subtable" v.smcp
EndChar

StartChar: w
Encoding: 119 119 27
Width: 756
Flags: HMW
HStem: -6 121<172.5 231 530 533> 361 133<286 380 286 374> 485 20G<655.5 675.5> 488 20G<78 117>
VStem: 5 747<482 490>
LayerCount: 2
Fore
SplineSet
102 67 m 2,0,-1
 5 490 l 1,1,2
 54 508 54 508 90.5 508 c 0,3,4
 127 508 127 508 143 492 c 128,-1,5
 159 476 159 476 166 441 c 2,6,-1
 197 280 l 2,7,8
 219 171 219 171 223 124 c 0,9,10
 224 115 224 115 231 115 c 1,11,-1
 286 494 l 1,12,13
 321 501 321 501 378 501 c 0,14,15
 435 501 435 501 469 494 c 1,16,-1
 525 124 l 2,17,18
 526 115 526 115 533 115 c 1,19,20
 551 234 551 234 560 280 c 2,21,-1
 605 498 l 1,22,23
 629 505 629 505 675 505 c 0,24,25
 721 505 721 505 747 492 c 1,26,-1
 752 482 l 1,27,-1
 635 0 l 1,28,29
 598 -6 598 -6 535 -6 c 0,30,31
 472 -6 472 -6 450 8 c 128,-1,32
 428 22 428 22 422 65 c 2,33,-1
 406 172 l 1,34,35
 391 265 391 265 380 361 c 1,36,-1
 374 361 l 1,37,38
 373 353 373 353 348 174 c 1,39,-1
 320 0 l 1,40,41
 272 -6 272 -6 214 -6 c 0,42,43
 156 -6 156 -6 133.5 9 c 128,-1,44
 111 24 111 24 102 67 c 2,0,-1
EndSplineSet
Substitution2: "'smcp' Lowercase to Small Capitals lookup 2 subtable" w.smcp
Substitution2: "'aalt' Access All Alternates lookup 0 subtable" w.smcp
EndChar

StartChar: x
Encoding: 120 120 28
Width: 481
Flags: HMW
HStem: 485 20G<374 399.5> 489 20G<102.5 138.5>
VStem: 2 481<15 26>
LayerCount: 2
Fore
SplineSet
324 499 m 1,0,1
 350 505 350 505 388 505 c 0,2,3
 426 505 426 505 462 494 c 1,4,-1
 466 484 l 1,5,-1
 325 266 l 1,6,-1
 483 26 l 1,7,8
 431 -9 431 -9 378 -9 c 0,9,10
 325 -9 325 -9 295 38 c 2,11,-1
 230 137 l 1,12,-1
 150 0 l 1,13,14
 131 -6 131 -6 84.5 -6 c 0,15,16
 38 -6 38 -6 7 6 c 1,17,-1
 2 15 l 1,18,-1
 155 254 l 1,19,-1
 13 475 l 1,20,21
 61 509 61 509 119 509 c 0,22,23
 147 509 147 509 164 497.5 c 128,-1,24
 181 486 181 486 198 460 c 2,25,-1
 251 378 l 1,26,-1
 324 499 l 1,0,1
EndSplineSet
Substitution2: "'smcp' Lowercase to Small Capitals lookup 2 subtable" x.smcp
Substitution2: "'aalt' Access All Alternates lookup 0 subtable" x.smcp
EndChar

StartChar: y
Encoding: 121 121 29
Width: 497
Flags: HMW
HStem: -219 117<106.5 148 106.5 201> 485 20G<393 416> 488 20G<88 120>
VStem: 1 491
LayerCount: 2
Fore
SplineSet
492 483 m 1,0,-1
 369 13 l 2,1,2
 340.184210526 -94.5789473684 340.184210526 -94.5789473684 291.5 -153 c 0,3,4
 236.5 -219 236.5 -219 123 -219 c 0,5,6
 62 -219 62 -219 2 -199 c 1,7,8
 -1 -172 -1 -172 8 -138.5 c 128,-1,9
 17 -105 17 -105 33 -87 c 1,10,11
 78 -102 78 -102 123 -102 c 0,12,13
 197 -102 197 -102 221 -21 c 2,14,-1
 225 -7 l 1,15,16
 138 -7 138 -7 121 56 c 2,17,-1
 5 487 l 1,18,19
 51 508 51 508 91 508 c 128,-1,20
 131 508 131 508 149.5 493 c 128,-1,21
 168 478 168 478 177 441 c 2,22,-1
 223 249 l 2,23,24
 230 222 230 222 246 117 c 0,25,26
 247 110 247 110 254 110 c 1,27,-1
 341 498 l 1,28,29
 365 505 365 505 408.5 505 c 128,-1,30
 452 505 452 505 486 494 c 1,31,-1
 492 483 l 1,0,-1
EndSplineSet
Substitution2: "'smcp' Lowercase to Small Capitals lookup 2 subtable" y.smcp
Substitution2: "'aalt' Access All Alternates lookup 0 subtable" y.smcp
EndChar

StartChar: z
Encoding: 122 122 30
Width: 450
Flags: HMW
HStem: 0 115<283 318 318 333 283 344> 383 116<45 119 42 393>
VStem: 25 402<67 79.5 48.5 84.5>
LayerCount: 2
Fore
SplineSet
47 134 m 1,0,-1
 165 292 l 2,1,2
 198 336 198 336 246 386 c 1,3,-1
 243 391 l 1,4,5
 169 383 169 383 119 383 c 2,6,-1
 42 383 l 1,7,8
 36 407 36 407 36 434 c 0,9,10
 36 461 36 461 45 499 c 1,11,-1
 393 499 l 1,12,13
 414 438 414 438 414 413 c 0,14,15
 414 388 414 388 399 367 c 2,16,-1
 276 204 l 2,17,18
 229 142 229 142 201 114 c 1,19,-1
 204 109 l 1,20,21
 248 115 248 115 283 115 c 2,22,-1
 318 115 l 2,23,24
 377 115 377 115 411 132 c 1,25,26
 427 93 427 93 427 69 c 0,27,28
 427 0 427 0 344 0 c 2,29,-1
 42 0 l 1,30,31
 25 48 25 48 25 77.5 c 0,32,33
 25 107 25 107 47 134 c 1,0,-1
EndSplineSet
Substitution2: "'smcp' Lowercase to Small Capitals lookup 2 subtable" z.smcp
Substitution2: "'aalt' Access All Alternates lookup 0 subtable" z.smcp
EndChar

StartChar: A
Encoding: 65 65 31
Width: 638
Flags: HMW
HStem: 143 127<236 352 279 352 352 357 279 384> 537 152<310 316 310 310>
VStem: 9 621<10 12>
LayerCount: 2
Fore
SplineSet
242 143 m 2,0,1
 215 143 215 143 202 144 c 1,2,-1
 159 -1 l 1,3,4
 135 -7 135 -7 89.5 -7 c 128,-1,5
 44 -7 44 -7 14 4 c 1,6,-1
 9 12 l 1,7,-1
 229 683 l 1,8,9
 268 689 268 689 323.5 689 c 128,-1,10
 379 689 379 689 414 682 c 1,11,-1
 630 10 l 1,12,13
 595 -9 595 -9 547 -9 c 128,-1,14
 499 -9 499 -9 478 9 c 128,-1,15
 457 27 457 27 442 78 c 2,16,-1
 423 144 l 1,17,18
 410 143 410 143 384 143 c 2,19,-1
 242 143 l 2,0,1
239 269 m 1,20,-1
 279 270 l 1,21,-1
 352 270 l 2,22,23
 357 270 357 270 369.5 269.5 c 128,-1,24
 382 269 382 269 388 269 c 1,25,-1
 371 331 l 2,26,27
 347 415 347 415 316 537 c 1,28,-1
 310 537 l 1,29,30
 302 494 302 494 262 346 c 1,31,-1
 239 269 l 1,20,-1
EndSplineSet
Substitution2: "'c2sc' Capitals to Small Capitals lookup 3 subtable" a.smcp
Substitution2: "'aalt' Access All Alternates lookup 0 subtable" a.smcp
EndChar

StartChar: B
Encoding: 66 66 32
Width: 615
Flags: HMW
HStem: -6 113<307.5 359 307.5 405.5> 301 114<234 305 305 317 234 305> 575 114<297 339.5>
VStem: 76 158<106 301 106 415 415 576> 392 156<477 515.5> 419 161<182 225>
LayerCount: 2
Fore
SplineSet
83 685 m 1,0,1
 243 689 243 689 314 689 c 0,2,3
 423 689 423 689 485.5 643.5 c 128,-1,4
 548 598 548 598 548 507 c 0,5,6
 548 463 548 463 523 425 c 128,-1,7
 498 387 498 387 459 370 c 1,8,9
 510 353 510 353 545 304 c 128,-1,10
 580 255 580 255 580 196 c 0,11,12
 580 94 580 94 514 44 c 128,-1,13
 448 -6 448 -6 329 -6 c 0,14,15
 255 -6 255 -6 83 -2 c 1,16,-1
 76 5 l 1,17,-1
 76 678 l 1,18,-1
 83 685 l 1,0,1
317 301 m 2,19,-1
 234 301 l 1,20,-1
 234 106 l 1,21,22
 266 107 266 107 319.5 107 c 0,23,24
 373 107 373 107 396 135.5 c 128,-1,25
 419 164 419 164 419 203.5 c 0,26,27
 419 243 419 243 395 272 c 128,-1,28
 371 301 371 301 317 301 c 2,19,-1
234 576 m 1,29,-1
 234 415 l 1,30,-1
 305 415 l 2,31,32
 352 415 352 415 372 438.5 c 128,-1,33
 392 462 392 462 392 496 c 128,-1,34
 392 530 392 530 372 552.5 c 128,-1,35
 352 575 352 575 305.5 575 c 0,36,37
 259 575 259 575 234 576 c 1,29,-1
EndSplineSet
Substitution2: "'c2sc' Capitals to Small Capitals lookup 3 subtable" b.smcp
Substitution2: "'aalt' Access All Alternates lookup 0 subtable" b.smcp
EndChar

StartChar: C
Encoding: 67 67 33
Width: 609
Flags: HMW
HStem: -15 140<297.5 367> 571 128<280 367>
VStem: 36 168<267 414 267 465> 433 152
LayerCount: 2
Fore
SplineSet
433 411 m 1,0,1
 437 571 437 571 323 571 c 0,2,3
 260 571 260 571 232 513 c 128,-1,4
 204 455 204 455 204 344 c 128,-1,5
 204 233 204 233 239.5 179 c 128,-1,6
 275 125 275 125 345 125 c 128,-1,7
 415 125 415 125 511 194 c 1,8,9
 536 177 536 177 557.5 147.5 c 128,-1,10
 579 118 579 118 584 91 c 1,11,12
 538 46 538 46 464.5 15.5 c 128,-1,13
 391 -15 391 -15 313.5 -15 c 128,-1,14
 236 -15 236 -15 180.5 15.5 c 128,-1,15
 125 46 125 46 94.5 98.5 c 0,16,17
 36 199.196721311 36 199.196721311 36 339 c 0,18,19
 36 518 36 518 118 608.5 c 128,-1,20
 200 699 200 699 321 699 c 128,-1,21
 442 699 442 699 513.5 639.5 c 128,-1,22
 585 580 585 580 585 491 c 128,-1,23
 585 402 585 402 494 402 c 0,24,25
 467 402 467 402 433 411 c 1,0,1
EndSplineSet
Substitution2: "'c2sc' Capitals to Small Capitals lookup 3 subtable" c.smcp
Substitution2: "'aalt' Access All Alternates lookup 0 subtable" c.smcp
EndChar

StartChar: D
Encoding: 68 68 34
Width: 667
Flags: HMW
HStem: -6 125<317 362.5> 564 125<317 362.5 291.5 391.5>
VStem: 76 159<118 565 118 678 118 678> 466 164<291 392.5>
LayerCount: 2
Fore
SplineSet
606.5 515 m 128,-1,1
 630 442 630 442 630 341.5 c 128,-1,2
 630 241 630 241 607 168 c 128,-1,3
 584 95 584 95 518 44 c 0,4,5
 486 19 486 19 434 6.5 c 128,-1,6
 382 -6 382 -6 319.5 -6 c 128,-1,7
 257 -6 257 -6 83 -2 c 1,8,-1
 76 5 l 1,9,-1
 76 678 l 1,10,-1
 83 685 l 1,11,12
 198 689 198 689 335 689 c 0,13,14
 382 689 382 689 434 676.5 c 128,-1,15
 486 664 486 664 518 639 c 0,16,0
 583 588 583 588 606.5 515 c 128,-1,1
334 119 m 0,17,18
 466 119 466 119 466 341.5 c 128,-1,19
 466 564 466 564 334 564 c 0,20,21
 271 564 271 564 235 565 c 1,22,-1
 235 118 l 1,23,24
 271 119 271 119 334 119 c 0,17,18
EndSplineSet
Substitution2: "'c2sc' Capitals to Small Capitals lookup 3 subtable" d.smcp
Substitution2: "'aalt' Access All Alternates lookup 0 subtable" d.smcp
EndChar

StartChar: E
Encoding: 69 69 35
Width: 573
Flags: HMW
HStem: -3 134<306 433> 278 130<233 454 233 454 301 454> 549 134<232 301 232 232 301 505>
VStem: 75 158<189 202 202 278 407 477>
LayerCount: 2
Fore
SplineSet
233 202 m 1,0,-1
 232 130 l 1,1,-1
 232 129 l 1,2,3
 278 131 278 131 306 131 c 2,4,-1
 538 131 l 1,5,6
 538 94 538 94 535 74 c 0,7,8
 523 -3 523 -3 433 -3 c 2,9,-1
 167 -3 l 2,10,11
 124 -3 124 -3 99.5 22 c 128,-1,12
 75 47 75 47 75 90 c 2,13,-1
 75 676 l 1,14,-1
 82 683 l 1,15,-1
 513 683 l 1,16,17
 519 654 519 654 519 620 c 128,-1,18
 519 586 519 586 505 549 c 1,19,-1
 232 549 l 1,20,-1
 233 477 l 1,21,-1
 233 407 l 1,22,23
 259 408 259 408 301 408 c 2,24,-1
 454 408 l 1,25,26
 463 380 463 380 463 344 c 128,-1,27
 463 308 463 308 454 278 c 1,28,-1
 233 278 l 1,29,-1
 233 202 l 1,0,-1
EndSplineSet
Substitution2: "'c2sc' Capitals to Small Capitals lookup 3 subtable" e.smcp
Substitution2: "'aalt' Access All Alternates lookup 0 subtable" e.smcp
EndChar

StartChar: F
Encoding: 70 70 36
Width: 535
Flags: HMW
HStem: 275 131<236 256 236 256 256 450> 547 136<235 307 235 235 307 432>
VStem: 76 160<0 275 406 469>
LayerCount: 2
Fore
SplineSet
235 547 m 1,0,-1
 236 469 l 1,1,-1
 236 406 l 1,2,-1
 450 406 l 1,3,4
 458 376 458 376 458 340.5 c 128,-1,5
 458 305 458 305 450 275 c 1,6,-1
 236 275 l 1,7,-1
 236 0 l 1,8,9
 204 -6 204 -6 156 -6 c 128,-1,10
 108 -6 108 -6 76 0 c 1,11,-1
 76 677 l 1,12,-1
 83 683 l 1,13,-1
 511 683 l 1,14,15
 517 658 517 658 517 620.5 c 128,-1,16
 517 583 517 583 496.5 565 c 128,-1,17
 476 547 476 547 432 547 c 2,18,-1
 235 547 l 1,0,-1
EndSplineSet
Substitution2: "'c2sc' Capitals to Small Capitals lookup 3 subtable" f.smcp
Substitution2: "'aalt' Access All Alternates lookup 0 subtable" f.smcp
EndChar

StartChar: G
Encoding: 71 71 37
Width: 654
Flags: HMW
HStem: -15 126<312.5 382 312.5 393.5> 255 133<340 405 340 455> 566 132<311.5 390>
VStem: 36 163<258 416 258 458.5> 453 150<119 186 186 196.5>
LayerCount: 2
Fore
SplineSet
340 388 m 1,0,-1
 497 389 l 2,1,2
 603 390 603 390 603 289 c 2,3,-1
 603 26 l 1,4,5
 476 -15 476 -15 332 -15 c 128,-1,6
 188 -15 188 -15 112 78 c 128,-1,7
 36 171 36 171 36 337 c 0,8,9
 36 425 36 425 63 495.5 c 128,-1,10
 90 566 90 566 134.5 609 c 0,11,12
 226.604651163 698 226.604651163 698 356.802325581 698 c 128,-1,13
 487 698 487 698 601 626 c 1,14,15
 599 594 599 594 577.5 561.5 c 128,-1,16
 556 529 556 529 530 512 c 1,17,18
 447 566 447 566 362 566 c 0,19,20
 199 566 199 566 199 338.5 c 128,-1,21
 199 111 199 111 366 111 c 0,22,23
 411 111 411 111 453 119 c 1,24,-1
 453 186 l 2,25,26
 453 231 453 231 455 255 c 1,27,-1
 405 255 l 2,28,29
 365 255 365 255 347 270 c 128,-1,30
 329 285 329 285 329 319 c 128,-1,31
 329 353 329 353 340 388 c 1,0,-1
EndSplineSet
Substitution2: "'c2sc' Capitals to Small Capitals lookup 3 subtable" g.smcp
Substitution2: "'aalt' Access All Alternates lookup 0 subtable" g.smcp
EndChar

StartChar: H
Encoding: 72 72 38
Width: 686
Flags: HMW
HStem: 285 134<278 401 285 401>
VStem: 76 160<0 212 478 492 492 683> 450 160<0 212 212 226 492 683 0 683>
LayerCount: 2
Fore
SplineSet
451 418 m 1,0,-1
 450 492 l 1,1,-1
 450 683 l 1,2,3
 481 689 481 689 530.5 689 c 128,-1,4
 580 689 580 689 610 683 c 1,5,-1
 610 0 l 1,6,7
 578 -6 578 -6 530 -6 c 128,-1,8
 482 -6 482 -6 450 0 c 1,9,-1
 450 212 l 1,10,-1
 451 286 l 1,11,-1
 401 285 l 1,12,-1
 285 285 l 1,13,-1
 235 286 l 1,14,-1
 236 212 l 1,15,-1
 236 0 l 1,16,17
 205 -6 205 -6 156 -6 c 128,-1,18
 107 -6 107 -6 76 0 c 1,19,-1
 76 683 l 1,20,21
 107 689 107 689 156 689 c 128,-1,22
 205 689 205 689 236 683 c 1,23,-1
 236 492 l 1,24,-1
 235 418 l 1,25,-1
 285 419 l 1,26,-1
 401 419 l 1,27,-1
 451 418 l 1,0,-1
EndSplineSet
Substitution2: "'c2sc' Capitals to Small Capitals lookup 3 subtable" h.smcp
Substitution2: "'aalt' Access All Alternates lookup 0 subtable" h.smcp
EndChar

StartChar: I
Encoding: 73 73 39
Width: 317
Flags: HMW
HStem: -6 695<148.5 169>
VStem: 78 161<0 683 0 683>
LayerCount: 2
Fore
SplineSet
78 0 m 1,0,-1
 78 683 l 1,1,2
 109 689 109 689 158 689 c 128,-1,3
 207 689 207 689 239 683 c 1,4,-1
 239 0 l 1,5,6
 207 -6 207 -6 158 -6 c 128,-1,7
 109 -6 109 -6 78 0 c 1,0,-1
EndSplineSet
Substitution2: "'c2sc' Capitals to Small Capitals lookup 3 subtable" i.smcp
Substitution2: "'aalt' Access All Alternates lookup 0 subtable" i.smcp
EndChar

StartChar: J
Encoding: 74 74 40
Width: 471
Flags: HMW
HStem: -10 132<146.5 191.5 139.5 267>
VStem: 245 160<247 262 262 683>
LayerCount: 2
Fore
SplineSet
65 152 m 1,0,1
 114 122 114 122 160.5 122 c 0,2,3
 207 122 207 122 226 152.5 c 128,-1,4
 245 183 245 183 245 247 c 2,5,-1
 245 683 l 1,6,7
 275 689 275 689 324.5 689 c 0,8,9
 374 689 374 689 405 683 c 1,10,-1
 405 262 l 2,11,12
 405 131 405 131 354.5 60.5 c 128,-1,13
 304 -10 304 -10 173 -10 c 0,14,15
 79 -10 79 -10 10 34 c 1,16,17
 20 103 20 103 65 152 c 1,0,1
EndSplineSet
Substitution2: "'c2sc' Capitals to Small Capitals lookup 3 subtable" j.smcp
Substitution2: "'aalt' Access All Alternates lookup 0 subtable" j.smcp
EndChar

StartChar: K
Encoding: 75 75 41
Width: 621
Flags: HMW
HStem: 287 133<273.5 274.5 262 304> 673 16
VStem: 76 160<0 285 0 419 419 683>
LayerCount: 2
Fore
SplineSet
614 39 m 1,0,1
 580 -9 580 -9 508 -9 c 0,2,3
 467 -9 467 -9 446.5 12 c 128,-1,4
 426 33 426 33 411 83 c 1,5,-1
 373 200 l 2,6,7
 358 247 358 247 337 267 c 128,-1,8
 316 287 316 287 280 287 c 0,9,10
 268 287 268 287 236 285 c 1,11,-1
 236 0 l 1,12,13
 205 -6 205 -6 156 -6 c 128,-1,14
 107 -6 107 -6 76 0 c 1,15,-1
 76 683 l 1,16,17
 107 689 107 689 156 689 c 128,-1,18
 205 689 205 689 236 683 c 1,19,-1
 236 419 l 1,20,-1
 262 420 l 2,21,22
 280 420 280 420 288 426.5 c 128,-1,23
 296 433 296 433 307 454 c 2,24,-1
 402 633 l 1,25,26
 417 664 417 664 434 676.5 c 128,-1,27
 451 689 451 689 489 689 c 128,-1,28
 527 689 527 689 580 684 c 1,29,-1
 589 673 l 1,30,-1
 467 443 l 1,31,32
 444 397 444 397 411 370 c 1,33,34
 458 360 458 360 481.5 332 c 128,-1,35
 505 304 505 304 521 257 c 2,36,-1
 562 133 l 2,37,38
 563 131 563 131 566.5 120.5 c 128,-1,39
 570 110 570 110 571 107.5 c 128,-1,40
 572 105 572 105 575 96.5 c 128,-1,41
 578 88 578 88 580 84.5 c 128,-1,42
 582 81 582 81 586 73.5 c 128,-1,43
 590 66 590 66 593.5 61.5 c 0,44,45
 600.5 52.5 600.5 52.5 614 39 c 1,0,1
EndSplineSet
Substitution2: "'c2sc' Capitals to Small Capitals lookup 3 subtable" k.smcp
Substitution2: "'aalt' Access All Alternates lookup 0 subtable" k.smcp
EndChar

StartChar: L
Encoding: 76 76 42
Width: 522
Flags: HMW
HStem: -3 138<329 394>
VStem: 75 160<131 588 131 683 131 683>
LayerCount: 2
Fore
SplineSet
329 135 m 2,0,-1
 502 135 l 1,1,2
 502 95 502 95 497 66.5 c 0,3,4
 492 38 492 38 465 17.5 c 128,-1,5
 438 -3 438 -3 394 -3 c 2,6,-1
 168 -3 l 2,7,8
 125 -3 125 -3 100 22 c 128,-1,9
 75 47 75 47 75 90 c 2,10,-1
 75 683 l 1,11,-1
 82 690 l 1,12,-1
 141 690 l 2,13,14
 235 690 235 690 235 588 c 2,15,-1
 235 131 l 1,16,17
 279 135 279 135 329 135 c 2,0,-1
EndSplineSet
Substitution2: "'c2sc' Capitals to Small Capitals lookup 3 subtable" l.smcp
Substitution2: "'aalt' Access All Alternates lookup 0 subtable" l.smcp
EndChar

StartChar: M
Encoding: 77 77 43
Width: 833
Flags: HMW
HStem: -18 20G<55 55 779 779> 101 155<334 420 413 499> 508 174<108 236 108 229>
VStem: 55 724<2 2>
LayerCount: 2
Fore
SplineSet
55 2 m 1,0,-1
 108 682 l 1,1,2
 152 690 152 690 212 690 c 0,3,4
 272 690 272 690 317 682 c 1,5,-1
 376 437 l 1,6,7
 411 271 411 271 413 256 c 1,8,-1
 420 256 l 1,9,10
 424 281 424 281 457 437 c 1,11,-1
 517 682 l 1,12,13
 561 690 561 690 621 690 c 0,14,15
 681 690 681 690 726 682 c 1,16,-1
 779 2 l 1,17,18
 748 -6 748 -6 702.5 -6 c 0,19,20
 657 -6 657 -6 628 -1 c 1,21,-1
 612 277 l 1,22,23
 605 443 605 443 604 508 c 1,24,-1
 598 508 l 1,25,-1
 499 101 l 1,26,27
 463 95 463 95 416.5 95 c 0,28,29
 370 95 370 95 334 101 c 1,30,-1
 236 508 l 1,31,-1
 229 508 l 1,32,33
 229 419 229 419 221 277 c 2,34,-1
 206 -1 l 1,35,36
 177 -6 177 -6 131.5 -6 c 0,37,38
 86 -6 86 -6 55 2 c 1,0,-1
EndSplineSet
Substitution2: "'c2sc' Capitals to Small Capitals lookup 3 subtable" m.smcp
Substitution2: "'aalt' Access All Alternates lookup 0 subtable" m.smcp
EndChar

StartChar: N
Encoding: 78 78 44
Width: 696
Flags: HMW
HStem: 478 20G<213 213>
VStem: 76 149<0 199 0 680> 472 148<471 593 593 628.5>
LayerCount: 2
Fore
SplineSet
613 690 m 1,0,-1
 620 683 l 1,1,-1
 620 3 l 1,2,3
 581 -6 581 -6 526.5 -6 c 0,4,5
 472 -6 472 -6 430 0 c 1,6,-1
 273 358 l 1,7,8
 245 419 245 419 216 499 c 1,9,-1
 213 498 l 1,10,11
 225 352 225 352 225 199 c 2,12,-1
 225 0 l 1,13,14
 194 -6 194 -6 150 -6 c 0,15,16
 106 -6 106 -6 76 0 c 1,17,-1
 76 680 l 1,18,19
 114 689 114 689 167.5 689 c 0,20,21
 221 689 221 689 263 683 c 1,22,-1
 418 326 l 2,23,24
 460 227 460 227 480 174 c 1,25,-1
 484 176 l 1,26,27
 472 315 472 315 472 471 c 2,28,-1
 472 593 l 2,29,30
 472 645 472 645 493 667.5 c 128,-1,31
 514 690 514 690 561 690 c 2,32,-1
 613 690 l 1,0,-1
EndSplineSet
Substitution2: "'c2sc' Capitals to Small Capitals lookup 3 subtable" n.smcp
Substitution2: "'aalt' Access All Alternates lookup 0 subtable" n.smcp
EndChar

StartChar: O
Encoding: 79 79 45
Width: 667
Flags: HMW
HStem: -15 123<288.5 378.5> 575 123<288.5 378.5 288.5 391>
VStem: 36 167<289.5 394.5> 464 167<289.5 394.5>
LayerCount: 2
Fore
SplineSet
203 342 m 128,-1,1
 203 296 203 296 207.5 260 c 128,-1,2
 212 224 212 224 224.5 186.5 c 0,3,4
 250.666666667 108 250.666666667 108 333 108 c 0,5,6
 366 108 366 108 391 123 c 128,-1,7
 416 138 416 138 429.5 160 c 128,-1,8
 443 182 443 182 451 215 c 0,9,10
 464 268.625 464 268.625 464 328.3125 c 128,-1,11
 464 388 464 388 459.5 424 c 128,-1,12
 455 460 455 460 442.5 497 c 128,-1,13
 430 534 430 534 402 554.5 c 128,-1,14
 374 575 374 575 333 575 c 128,-1,15
 292 575 292 575 264.5 554.5 c 128,-1,16
 237 534 237 534 224.5 497 c 128,-1,17
 212 460 212 460 207.5 424 c 128,-1,0
 203 388 203 388 203 342 c 128,-1,1
143 48 m 0,18,19
 36 137 36 137 36 341.5 c 128,-1,20
 36 546 36 546 143 635 c 0,21,22
 220 698 220 698 333 698 c 128,-1,23
 446 698 446 698 524 635 c 1,24,25
 631 545 631 545 631 341.5 c 128,-1,26
 631 138 631 138 524 48 c 1,27,28
 446 -15 446 -15 333 -15 c 128,-1,29
 220 -15 220 -15 143 48 c 0,18,19
EndSplineSet
Substitution2: "'c2sc' Capitals to Small Capitals lookup 3 subtable" o.smcp
Substitution2: "'aalt' Access All Alternates lookup 0 subtable" o.smcp
EndChar

StartChar: P
Encoding: 80 80 46
Width: 589
Flags: HMW
HStem: 214 122<296.5 315 236 341.5> 566 123<291.5 341.5>
VStem: 76 160<0 214 0 334 334 567> 397 163<427 474.5>
LayerCount: 2
Fore
SplineSet
493 628.5 m 128,-1,1
 560 568 560 568 560 452.5 c 128,-1,2
 560 337 560 337 492.5 275.5 c 128,-1,3
 425 214 425 214 315 214 c 2,4,-1
 236 214 l 1,5,-1
 236 0 l 1,6,7
 205 -6 205 -6 156 -6 c 128,-1,8
 107 -6 107 -6 76 0 c 1,9,-1
 76 678 l 1,10,-1
 83 685 l 1,11,12
 255 689 255 689 315 689 c 0,13,0
 426 689 426 689 493 628.5 c 128,-1,1
236 567 m 1,14,-1
 236 334 l 1,15,16
 292 336 292 336 302 336 c 0,17,18
 355 336 355 336 376 370.5 c 128,-1,19
 397 405 397 405 397 451 c 128,-1,20
 397 497 397 497 376 531.5 c 128,-1,21
 355 566 355 566 309 566 c 128,-1,22
 263 566 263 566 236 567 c 1,14,-1
EndSplineSet
Substitution2: "'c2sc' Capitals to Small Capitals lookup 3 subtable" p.smcp
Substitution2: "'aalt' Access All Alternates lookup 0 subtable" p.smcp
EndChar

StartChar: Q
Encoding: 81 81 47
Width: 671
Flags: HMW
HStem: -145 114<518.5 643> -15 123<289 333> 575 123<290 380 290 393>
VStem: 36 164<290 394.5> 468 166<295 394 295 395>
LayerCount: 2
Fore
SplineSet
435 -104 m 2,0,-1
 333 -15 l 1,1,2
 222 -15 222 -15 144 48 c 1,3,4
 36 139 36 139 36 341.5 c 128,-1,5
 36 544 36 544 144 635 c 0,6,7
 219 698 219 698 335.5 698 c 128,-1,8
 452 698 452 698 525 635 c 1,9,10
 634 543 634 543 634 341 c 0,11,12
 634 168 634 168 556 81 c 1,13,14
 528 48 528 48 491 34 c 1,15,-1
 517 16 l 2,16,17
 584 -31 584 -31 643 -31 c 1,18,19
 642 -82 642 -82 613 -113.5 c 128,-1,20
 584 -145 584 -145 533.5 -145 c 128,-1,21
 483 -145 483 -145 435 -104 c 2,0,-1
335 575 m 0,22,23
 200 575 200 575 200 341.5 c 128,-1,24
 200 108 200 108 335 108 c 0,25,26
 468 108 468 108 468 341.5 c 128,-1,27
 468 575 468 575 335 575 c 0,22,23
EndSplineSet
Substitution2: "'c2sc' Capitals to Small Capitals lookup 3 subtable" q.smcp
Substitution2: "'aalt' Access All Alternates lookup 0 subtable" q.smcp
EndChar

StartChar: R
Encoding: 82 82 48
Width: 615
Flags: HMW
HStem: 250 125<235 347 235 347> 568 121<299 347>
VStem: 76 159<0 250 0 373 373 569> 403 163<446.5 498>
LayerCount: 2
Fore
SplineSet
566 472 m 0,0,1
 566 405 566 405 529.5 356.5 c 128,-1,2
 493 308 493 308 444 289 c 1,3,4
 496 270 496 270 521 197 c 2,5,-1
 551 112 l 2,6,7
 567 64 567 64 601 38 c 1,8,9
 586 18 586 18 556 4.5 c 128,-1,10
 526 -9 526 -9 490 -9 c 0,11,12
 454 -9 454 -9 434 12 c 128,-1,13
 414 33 414 33 397 83 c 2,14,-1
 361 188 l 2,15,16
 351 218 351 218 332 234 c 128,-1,17
 313 250 313 250 276 250 c 2,18,-1
 235 250 l 1,19,-1
 235 0 l 1,20,21
 203 -6 203 -6 155 -6 c 128,-1,22
 107 -6 107 -6 76 0 c 1,23,-1
 76 678 l 1,24,-1
 83 685 l 1,25,26
 255 689 255 689 323 689 c 0,27,28
 433 689 433 689 499.5 635 c 128,-1,29
 566 581 566 581 566 472 c 0,0,1
235 569 m 1,30,-1
 235 373 l 1,31,32
 297 375 297 375 309 375 c 0,33,34
 403 375 403 375 403 471.5 c 0,35,36
 403 568 403 568 309 568 c 0,37,38
 263 568 263 568 235 569 c 1,30,-1
EndSplineSet
Substitution2: "'c2sc' Capitals to Small Capitals lookup 3 subtable" r.smcp
Substitution2: "'aalt' Access All Alternates lookup 0 subtable" r.smcp
EndChar

StartChar: S
Encoding: 83 83 49
Width: 557
Flags: HMW
HStem: -15 129<244 309 244 355.5> 570 128<252 307.5>
VStem: 37 164<498 524 498 551.5> 361 170<163.5 190.5>
LayerCount: 2
Fore
SplineSet
15 59 m 1,0,1
 18 92 18 92 35.5 125 c 128,-1,2
 53 158 53 158 77 179 c 1,3,4
 184 114 184 114 280 114 c 0,5,6
 321 114 321 114 341 133 c 128,-1,7
 361 152 361 152 361 180 c 0,8,9
 361 227 361 227 298 254 c 2,10,-1
 180 304 l 1,11,12
 112 335 112 335 74.5 378.5 c 128,-1,13
 37 422 37 422 37 489 c 0,14,15
 37 581 37 581 107 639.5 c 128,-1,16
 177 698 177 698 289 698 c 0,17,18
 401 698 401 698 515 641 c 1,19,20
 510 565 510 565 461 521 c 1,21,22
 357 570 357 570 281 570 c 0,23,24
 241 570 241 570 221 552 c 128,-1,25
 201 534 201 534 201 511 c 0,26,27
 201 472 201 472 260 448 c 2,28,-1
 380 397 l 1,29,30
 531 331 531 331 531 199 c 0,31,32
 531 104 531 104 463 44.5 c 128,-1,33
 395 -15 395 -15 263.5 -15 c 0,34,35
 132 -15 132 -15 15 59 c 1,0,1
EndSplineSet
Substitution2: "'c2sc' Capitals to Small Capitals lookup 3 subtable" s.smcp
Substitution2: "'aalt' Access All Alternates lookup 0 subtable" s.smcp
EndChar

StartChar: T
Encoding: 84 84 50
Width: 510
Flags: HMW
HStem: 550 133<9 112 9 504 391.5 399 399 428>
VStem: 176 160<0 477 0 551 0 551>
LayerCount: 2
Fore
SplineSet
335 551 m 1,0,-1
 336 477 l 1,1,-1
 336 0 l 1,2,3
 302 -6 302 -6 255 -6 c 128,-1,4
 208 -6 208 -6 176 0 c 1,5,-1
 176 551 l 1,6,-1
 112 550 l 1,7,-1
 9 550 l 1,8,9
 3 579 3 579 3 616.5 c 128,-1,10
 3 654 3 654 9 683 c 1,11,-1
 504 683 l 1,12,13
 512 657 512 657 512 620 c 128,-1,14
 512 583 512 583 492 566.5 c 128,-1,15
 472 550 472 550 428 550 c 2,16,-1
 399 550 l 1,17,-1
 336 551 l 1,18,-1
 335 551 l 1,0,-1
EndSplineSet
Substitution2: "'c2sc' Capitals to Small Capitals lookup 3 subtable" t.smcp
Substitution2: "'aalt' Access All Alternates lookup 0 subtable" t.smcp
EndChar

StartChar: U
Encoding: 85 85 51
Width: 673
Flags: HMW
HStem: -15 127<296.5 377 296.5 423.5>
VStem: 66 161<252 588> 447 160<250 252 252 683>
LayerCount: 2
Fore
SplineSet
607 683 m 1,0,-1
 607 252 l 2,1,2
 607 125 607 125 536.5 55 c 128,-1,3
 466 -15 466 -15 337 -15 c 128,-1,4
 208 -15 208 -15 137 55 c 128,-1,5
 66 125 66 125 66 252 c 2,6,-1
 66 683 l 1,7,-1
 73 690 l 1,8,-1
 132 690 l 2,9,10
 227 690 227 690 227 588 c 2,11,-1
 227 250 l 2,12,13
 227 180 227 180 252.5 146 c 128,-1,14
 278 112 278 112 337 112 c 128,-1,15
 396 112 396 112 421.5 146 c 128,-1,16
 447 180 447 180 447 250 c 2,17,-1
 447 683 l 1,18,19
 478 689 478 689 527 689 c 0,20,21
 576 689 576 689 607 683 c 1,0,-1
EndSplineSet
Substitution2: "'c2sc' Capitals to Small Capitals lookup 3 subtable" u.smcp
Substitution2: "'aalt' Access All Alternates lookup 0 subtable" u.smcp
EndChar

StartChar: V
Encoding: 86 86 52
Width: 606
Flags: HMW
HStem: -6 140<256.5 317>
VStem: 9 589<669 670>
LayerCount: 2
Fore
SplineSet
317 134 m 1,0,-1
 448 683 l 1,1,2
 472 689 472 689 517 689 c 0,3,4
 562 689 562 689 592 678 c 1,5,-1
 598 670 l 1,6,-1
 411 0 l 1,7,8
 354 -6 354 -6 296.5 -6 c 0,9,10
 239 -6 239 -6 213.5 8.5 c 128,-1,11
 188 23 188 23 175 66 c 1,12,-1
 9 669 l 1,13,14
 63 692 63 692 101.5 692 c 0,15,16
 140 692 140 692 160 673 c 128,-1,17
 180 654 180 654 191 613 c 2,18,-1
 268 328 l 2,19,20
 286 261 286 261 306 146 c 0,21,22
 308 134 308 134 317 134 c 1,0,-1
EndSplineSet
Substitution2: "'c2sc' Capitals to Small Capitals lookup 3 subtable" v.smcp
Substitution2: "'aalt' Access All Alternates lookup 0 subtable" v.smcp
EndChar

StartChar: W
Encoding: 87 87 53
Width: 903
Flags: HMW
HStem: -6 140<209 267> 515 155<350 454 350 447>
VStem: 15 868<669 674>
LayerCount: 2
Fore
SplineSet
133 66 m 2,0,-1
 15 674 l 1,1,2
 63 692 63 692 102.5 692 c 0,3,4
 142 692 142 692 161 673.5 c 128,-1,5
 180 655 180 655 188 604 c 2,6,-1
 230 346 l 2,7,8
 249 230 249 230 254 184 c 0,9,10
 259 138 259 138 260.5 136 c 128,-1,11
 262 134 262 134 267 134 c 1,12,-1
 350 670 l 1,13,14
 387 677 387 677 453 677 c 0,15,16
 519 677 519 677 555 670 c 1,17,-1
 631 147 l 2,18,19
 632 138 632 138 634.5 136 c 128,-1,20
 637 134 637 134 642 134 c 1,21,22
 651 228 651 228 672 347 c 1,23,-1
 728 683 l 1,24,25
 757 689 757 689 799 689 c 0,26,27
 841 689 841 689 876 678 c 1,28,-1
 883 669 l 1,29,-1
 751 1 l 1,30,31
 686 -6 686 -6 629 -6 c 0,32,33
 572 -6 572 -6 548 8 c 128,-1,34
 524 22 524 22 517 66 c 2,35,-1
 483 283 l 2,36,37
 465 401 465 401 454 515 c 1,38,-1
 447 515 l 1,39,40
 436 418 436 418 414 283 c 2,41,-1
 369 1 l 1,42,43
 301 -6 301 -6 245.5 -6 c 0,44,45
 190 -6 190 -6 166 8 c 128,-1,46
 142 22 142 22 133 66 c 2,0,-1
EndSplineSet
Substitution2: "'c2sc' Capitals to Small Capitals lookup 3 subtable" w.smcp
Substitution2: "'aalt' Access All Alternates lookup 0 subtable" w.smcp
EndChar

StartChar: X
Encoding: 88 88 54
Width: 616
Flags: HMW
HStem: 638 20G<24 24>
VStem: 8 600<16 25>
LayerCount: 2
Fore
SplineSet
433 683 m 1,0,1
 458 689 458 689 503 689 c 0,2,3
 548 689 548 689 583 675 c 1,4,-1
 587 668 l 1,5,-1
 399 359 l 1,6,-1
 608 25 l 1,7,8
 555 -10 555 -10 512 -10 c 0,9,10
 469 -10 469 -10 446 4 c 128,-1,11
 423 18 423 18 400 53 c 1,12,-1
 296 221 l 1,13,-1
 165 0 l 1,14,15
 140 -6 140 -6 96 -6 c 0,16,17
 52 -6 52 -6 12 8 c 1,18,-1
 8 16 l 1,19,-1
 214 352 l 1,20,-1
 24 658 l 1,21,22
 77 693 77 693 120 693 c 0,23,24
 163 693 163 693 185.5 679 c 128,-1,25
 208 665 208 665 230 630 c 2,26,-1
 318 488 l 1,27,-1
 433 683 l 1,0,1
EndSplineSet
Substitution2: "'c2sc' Capitals to Small Capitals lookup 3 subtable" x.smcp
Substitution2: "'aalt' Access All Alternates lookup 0 subtable" x.smcp
EndChar

StartChar: Y
Encoding: 89 89 55
Width: 542
Flags: HMW
HStem: -6 697<78 282.5>
VStem: 191 160<0 210 0 214 0 214>
LayerCount: 2
Fore
SplineSet
328 514 m 2,0,-1
 395 683 l 1,1,2
 421 689 421 689 463.5 689 c 0,3,4
 506 689 506 689 538 677 c 1,5,-1
 545 669 l 1,6,-1
 351 210 l 1,7,-1
 351 0 l 1,8,9
 320 -6 320 -6 271 -6 c 0,10,11
 222 -6 222 -6 191 0 c 1,12,-1
 191 214 l 1,13,-1
 -2 664 l 1,14,15
 44 691 44 691 86 691 c 0,16,17
 128 691 128 691 146.5 676.5 c 128,-1,18
 165 662 165 662 179 627 c 2,19,-1
 227 508 l 2,20,21
 253 444 253 444 272 365 c 1,22,-1
 278 365 l 1,23,24
 294 428 294 428 328 514 c 2,0,-1
EndSplineSet
Substitution2: "'c2sc' Capitals to Small Capitals lookup 3 subtable" y.smcp
Substitution2: "'aalt' Access All Alternates lookup 0 subtable" y.smcp
EndChar

StartChar: Z
Encoding: 90 90 56
Width: 580
Flags: HMW
HStem: 0 133<363 419 419 437> 553 130<64 202 59 507>
VStem: 37 505<89 96.5 55.5 105.5>
LayerCount: 2
Fore
SplineSet
57 155 m 2,0,-1
 279 460 l 1,1,2
 313 509 313 509 360 559 c 1,3,-1
 357 562 l 1,4,5
 286 553 286 553 202 553 c 2,6,-1
 59 553 l 1,7,8
 53 576 53 576 53 608.5 c 0,9,10
 53 641 53 641 64 683 c 1,11,-1
 507 683 l 1,12,13
 529 600 529 600 529 577.5 c 0,14,15
 529 555 529 555 511 529 c 2,16,-1
 288 223 l 2,17,18
 254 175 254 175 210 129 c 1,19,-1
 213 126 l 1,20,21
 313 133 313 133 363 133 c 2,22,-1
 419 133 l 2,23,24
 479 133 479 133 531 156 c 1,25,26
 542 121 542 121 542 82 c 0,27,28
 542 43 542 43 513.5 21.5 c 128,-1,29
 485 0 485 0 437 0 c 2,30,-1
 55 0 l 1,31,32
 37 80 37 80 37 103.5 c 0,33,34
 37 127 37 127 57 155 c 2,0,-1
EndSplineSet
Substitution2: "'c2sc' Capitals to Small Capitals lookup 3 subtable" z.smcp
Substitution2: "'aalt' Access All Alternates lookup 0 subtable" z.smcp
EndChar

StartChar: ampersand
Encoding: 38 38 57
Width: 656
Flags: HMW
HStem: -15 121<259 266> 293 131<282 526 332 384 536 545 332 558 536 536> 575 123<287.5 326.5 220.5 339.5> 644 20G
VStem: 40 163<163 226.5 163 226.5> 69 164<479.5 523 475.5 569.5> 383 154<144 160 160 231 138 239.5>
LayerCount: 2
Fore
SplineSet
536 293 m 1,0,-1
 537 231 l 1,1,-1
 537 160 l 2,2,3
 537 82 537 82 544 0 c 1,4,5
 521 -9 521 -9 473 -9 c 128,-1,6
 425 -9 425 -9 401 -2 c 1,7,-1
 391 42 l 1,8,9
 327 -15 327 -15 235 -15 c 128,-1,10
 143 -15 143 -15 91.5 40.5 c 128,-1,11
 40 96 40 96 40 171.5 c 128,-1,12
 40 247 40 247 76.5 297 c 128,-1,13
 113 347 113 347 167 364 c 1,14,15
 123 380 123 380 96 421 c 128,-1,16
 69 462 69 462 69 515 c 0,17,18
 69 597 69 597 128.5 647.5 c 128,-1,19
 188 698 188 698 294.5 698 c 128,-1,20
 401 698 401 698 499 664 c 1,21,22
 501 634 501 634 490 601 c 128,-1,23
 479 568 479 568 459 547 c 1,24,25
 375 575 375 575 325 575 c 0,26,27
 233 575 233 575 233 502 c 0,28,29
 233 424 233 424 332 424 c 2,30,-1
 526 424 l 2,31,32
 587 424 587 424 632 444 c 1,33,34
 652 419 652 419 652 371 c 0,35,36
 652 293 652 293 558 293 c 2,37,-1
 536 293 l 1,0,-1
383 231 m 2,38,39
 383 270 383 270 384 293 c 1,40,-1
 320 293 l 2,41,42
 203 293 203 293 203 194 c 0,43,44
 203 150 203 150 224.5 128 c 128,-1,45
 246 106 246 106 280 106 c 0,46,47
 339 106 339 106 383 144 c 1,48,-1
 383 231 l 2,38,39
EndSplineSet
Substitution2: "'c2sc' Capitals to Small Capitals lookup 3 subtable" ampersand.smcp
Substitution2: "'aalt' Access All Alternates lookup 0 subtable" ampersand.smcp
EndChar

StartChar: zero
Encoding: 48 48 58
Width: 530
Flags: HMW
HStem: -15 119<253 277.5 253 306> 544 119<253 277.5>
VStem: 30 160<277.5 371 277.5 378.5> 322 178
LayerCount: 2
Fore
SplineSet
30 324 m 128,-1,1
 30 419 30 419 44 484.5 c 128,-1,2
 58 550 58 550 101 598 c 1,3,4
 168 663 168 663 265 663 c 128,-1,5
 362 663 362 663 429 598 c 1,6,7
 472 550 472 550 486 484.5 c 128,-1,8
 500 419 500 419 500 324 c 128,-1,9
 500 229 500 229 486 163.5 c 128,-1,10
 472 98 472 98 429 50 c 1,11,12
 362 -15 362 -15 265 -15 c 128,-1,13
 168 -15 168 -15 101 50 c 1,14,15
 58 98 58 98 44 163.5 c 128,-1,0
 30 229 30 229 30 324 c 128,-1,1
190 324 m 128,-1,17
 190 189 190 189 208 142 c 0,18,19
 223 104 223 104 265 104 c 128,-1,20
 307 104 307 104 322 142 c 0,21,22
 340 189 340 189 340 324 c 128,-1,23
 340 459 340 459 322 506 c 0,24,25
 307 544 307 544 265 544 c 128,-1,26
 223 544 223 544 208 506 c 0,27,16
 190 459 190 459 190 324 c 128,-1,17
EndSplineSet
Substitution2: "'c2sc' Capitals to Small Capitals lookup 3 subtable" zero.smcp
Substitution2: "'aalt' Access All Alternates lookup 0 subtable" zero.smcp
EndChar

StartChar: one
Encoding: 49 49 59
Width: 530
Flags: HMW
HStem: 0 128<75 156 156 163 438 492 75 156> 628 20G<371 371>
VStem: 219 152<201 332 332 345.5>
LayerCount: 2
Fore
SplineSet
220 127 m 1,0,-1
 219 201 l 1,1,-1
 219 332 l 2,2,3
 219 347 219 347 222 389 c 128,-1,4
 225 431 225 431 226 448 c 1,5,6
 174 390 174 390 93 356 c 1,7,8
 70 366 70 366 51 391.5 c 128,-1,9
 32 417 32 417 28 446 c 1,10,11
 168 533 168 533 224 648 c 1,12,13
 258 654 258 654 298.5 654 c 128,-1,14
 339 654 339 654 371 648 c 1,15,-1
 371 201 l 1,16,-1
 370 127 l 1,17,-1
 438 128 l 1,18,-1
 492 128 l 1,19,20
 500 98 500 98 500 64 c 128,-1,21
 500 30 500 30 492 0 c 1,22,-1
 75 0 l 1,23,24
 67 32 67 32 67 65 c 128,-1,25
 67 98 67 98 75 128 c 1,26,-1
 156 128 l 1,27,-1
 220 127 l 1,0,-1
EndSplineSet
Substitution2: "'sups' Superscript lookup 5 subtable" onesuperior
Substitution2: "'c2sc' Capitals to Small Capitals lookup 3 subtable" one.smcp
AlternateSubs2: "'aalt' Access All Alternates lookup 1 subtable" one.smcp onesuperior
EndChar

StartChar: two
Encoding: 50 50 60
Width: 530
Flags: HMW
HStem: -1 133<351 389> 536 127<220 265.5>
VStem: 313 158<445.5 485>
LayerCount: 2
Fore
SplineSet
488 132 m 1,0,1
 488 96 488 96 484 73 c 0,2,3
 472 -1 472 -1 389 -1 c 2,4,-1
 91 -1 l 1,5,6
 72 17 72 17 54.5 44.5 c 128,-1,7
 37 72 37 72 37 94 c 0,8,9
 37 170 37 170 152 272 c 1,10,-1
 260 370 l 1,11,12
 313 416 313 416 313 465 c 0,13,14
 313 496 313 496 294.5 516 c 128,-1,15
 276 536 276 536 243.5 536 c 0,16,17
 211 536 211 536 188 510.5 c 128,-1,18
 165 485 165 485 155 448 c 1,19,20
 125 448 125 448 91.5 460.5 c 128,-1,21
 58 473 58 473 44 494 c 1,22,23
 65 568 65 568 122 615.5 c 128,-1,24
 179 663 179 663 267 663 c 0,25,26
 355 663 355 663 413 607.5 c 128,-1,27
 471 552 471 552 471 461 c 0,28,29
 471 402 471 402 440 356.5 c 128,-1,30
 409 311 409 311 352 262 c 1,31,-1
 280 202 l 1,32,33
 211 143 211 143 199 121 c 1,34,35
 284 132 284 132 351 132 c 2,36,-1
 488 132 l 1,0,1
EndSplineSet
Substitution2: "'sups' Superscript lookup 5 subtable" twosuperior
Substitution2: "'c2sc' Capitals to Small Capitals lookup 3 subtable" two.smcp
AlternateSubs2: "'aalt' Access All Alternates lookup 1 subtable" two.smcp twosuperior
EndChar

StartChar: three
Encoding: 51 51 61
Width: 530
Flags: HMW
HStem: -15 125<205.5 261.5 205.5 315.5> 517 131<73 191 70 434>
VStem: 332 160<177.5 235>
LayerCount: 2
Fore
SplineSet
435 492 m 2,0,-1
 358 414 l 2,1,2
 349 405 349 405 329 389 c 1,3,4
 402 379 402 379 447 329.5 c 128,-1,5
 492 280 492 280 492 201 c 0,6,7
 492 102 492 102 422 43.5 c 128,-1,8
 352 -15 352 -15 251 -15 c 0,9,10
 117 -15 117 -15 37 58 c 1,11,12
 41 85 41 85 59 112.5 c 128,-1,13
 77 140 77 140 102 159 c 1,14,15
 164 110 164 110 231 110 c 0,16,17
 277 110 277 110 304.5 136.5 c 128,-1,18
 332 163 332 163 332 205.5 c 0,19,20
 332 248 332 248 307 271 c 128,-1,21
 282 294 282 294 248.75 294 c 0,22,23
 215.5 294 215.5 294 190 282 c 1,24,25
 171 291 171 291 154.5 315.5 c 128,-1,26
 138 340 138 340 132 366 c 1,27,-1
 224 461 l 2,28,29
 260 497 260 497 292 523 c 1,30,-1
 288 529 l 1,31,32
 242 517 242 517 191 517 c 2,33,-1
 70 517 l 1,34,35
 60 544 60 544 60 581 c 0,36,37
 60 618 60 618 73 648 c 1,38,-1
 434 648 l 1,39,40
 465 593 465 593 465 558 c 0,41,42
 465 523 465 523 435 492 c 2,0,-1
EndSplineSet
Substitution2: "'sups' Superscript lookup 5 subtable" threesuperior
Substitution2: "'c2sc' Capitals to Small Capitals lookup 3 subtable" three.smcp
AlternateSubs2: "'aalt' Access All Alternates lookup 1 subtable" three.smcp threesuperior
EndChar

StartChar: four
Encoding: 52 52 62
Width: 530
Flags: HMW
HStem: 113 128<54 271> 636 20G<200 200>
VStem: 271 151<0 42 0 55.5 301.5 315 315 332>
LayerCount: 2
Fore
SplineSet
421 114 m 1,0,-1
 422 42 l 1,1,-1
 422 0 l 1,2,3
 388 -6 388 -6 345.5 -6 c 128,-1,4
 303 -6 303 -6 271 0 c 1,5,-1
 271 42 l 1,6,-1
 272 114 l 1,7,-1
 198 113 l 1,8,-1
 54 113 l 1,9,10
 21 165 21 165 21 200.5 c 128,-1,11
 21 236 21 236 39 274 c 1,12,-1
 200 656 l 1,13,14
 235 662 235 662 280 653 c 128,-1,15
 325 644 325 644 342 624 c 1,16,-1
 275 463 l 1,17,18
 211 305 211 305 166 240 c 1,19,-1
 169 235 l 1,20,21
 205 239 205 239 271 241 c 1,22,-1
 271 294 l 2,23,24
 271 352 271 352 299.5 385 c 128,-1,25
 328 418 328 418 379 418 c 2,26,-1
 415 418 l 1,27,-1
 422 412 l 1,28,-1
 422 315 l 1,29,-1
 421 242 l 1,30,-1
 478 243 l 1,31,-1
 505 243 l 1,32,33
 509 219 509 219 509 183.5 c 128,-1,34
 509 148 509 148 499 114 c 1,35,-1
 421 114 l 1,0,-1
EndSplineSet
Substitution2: "'c2sc' Capitals to Small Capitals lookup 3 subtable" four.smcp
Substitution2: "'aalt' Access All Alternates lookup 0 subtable" four.smcp
EndChar

StartChar: five
Encoding: 53 53 63
Width: 530
Flags: HMW
HStem: -15 126<200.5 251 200.5 299> 315 119<209.5 339> 519 129<224 232 224 224 232 396>
VStem: 71 153 326 159<180.5 249>
LayerCount: 2
Fore
SplineSet
451 648 m 1,0,1
 462 619 462 619 462 584 c 0,2,3
 462 519 462 519 396 519 c 2,4,-1
 224 519 l 1,5,-1
 224 492 l 1,6,-1
 220 445 l 1,7,-1
 217 428 l 1,8,9
 242.5 434 242.5 434 271 434 c 0,10,11
 372 434 372 434 428.5 376 c 128,-1,12
 485 318 485 318 485 221 c 0,13,14
 485 144 485 144 448 89 c 0,15,16
 378.036363636 -15 378.036363636 -15 237 -15 c 0,17,18
 114 -15 114 -15 37 54 c 1,19,20
 41 78 41 78 59.5 109 c 128,-1,21
 78 140 78 140 100 156 c 1,22,23
 163 111 163 111 215 111 c 128,-1,24
 267 111 267 111 296.5 138.5 c 128,-1,25
 326 166 326 166 326 215 c 128,-1,26
 326 264 326 264 297.5 289.5 c 128,-1,27
 269 315 269 315 225.5 315 c 128,-1,28
 182 315 182 315 140 284 c 1,29,30
 120 289 120 289 97 304.5 c 128,-1,31
 74 320 74 320 62 338 c 1,32,-1
 80 640 l 1,33,-1
 88 648 l 1,34,-1
 451 648 l 1,0,1
EndSplineSet
Substitution2: "'c2sc' Capitals to Small Capitals lookup 3 subtable" five.smcp
Substitution2: "'aalt' Access All Alternates lookup 0 subtable" five.smcp
EndChar

StartChar: six
Encoding: 54 54 64
Width: 530
Flags: HMW
HStem: -15 115<261 298.5 261 332> 311 125<292 297.5> 541 122<276.5 338>
VStem: 32 162<235 270 270 280 235 426> 344 154<176.5 244.5>
LayerCount: 2
Fore
SplineSet
271 -15 m 0,0,1
 32 -15 32 -15 32 318 c 0,2,3
 32 480 32 480 104 571.5 c 128,-1,4
 176 663 176 663 305 663 c 0,5,6
 401 663 401 663 469 628 c 1,7,8
 464 560 464 560 419 521 c 1,9,10
 370 541 370 541 318 541 c 0,11,12
 202 541 202 541 194 395 c 1,13,14
 249 436 249 436 325.5 436 c 128,-1,15
 402 436 402 436 450 382 c 128,-1,16
 498 328 498 328 498 218.5 c 128,-1,17
 498 109 498 109 432.5 47 c 128,-1,18
 367 -15 367 -15 271 -15 c 0,0,1
276 311 m 0,19,20
 233 311 233 311 194 280 c 1,21,-1
 194 270 l 2,22,23
 194 162 194 162 222 127 c 0,24,25
 243 100 243 100 273 100 c 0,26,27
 344 100 344 100 344 205.5 c 128,-1,28
 344 311 344 311 276 311 c 0,19,20
EndSplineSet
Substitution2: "'c2sc' Capitals to Small Capitals lookup 3 subtable" six.smcp
Substitution2: "'aalt' Access All Alternates lookup 0 subtable" six.smcp
EndChar

StartChar: seven
Encoding: 55 55 65
Width: 530
Flags: HMW
HStem: 517 131<59 210 52 469>
VStem: 44 453<561 566 545.5 584> 134 158
LayerCount: 2
Fore
SplineSet
59 648 m 1,0,-1
 469 648 l 1,1,2
 497 588 497 588 497 557 c 0,3,4
 497 526 497 526 476 495 c 1,5,-1
 437 441 l 2,6,7
 312 267 312 267 294 46 c 1,8,-1
 290 0 l 1,9,10
 258 -6 258 -6 213 -6 c 0,11,12
 168 -6 168 -6 132 0 c 1,13,-1
 136 48 l 2,14,15
 145 161 145 161 183 263 c 128,-1,16
 221 365 221 365 276 437 c 2,17,-1
 289 454 l 1,18,19
 318 494 318 494 353 525 c 1,20,-1
 348 530 l 1,21,22
 293 517 293 517 210 517 c 2,23,-1
 52 517 l 1,24,25
 44 541 44 541 44 577 c 0,26,27
 44 613 44 613 59 648 c 1,0,-1
EndSplineSet
Substitution2: "'c2sc' Capitals to Small Capitals lookup 3 subtable" seven.smcp
Substitution2: "'aalt' Access All Alternates lookup 0 subtable" seven.smcp
EndChar

StartChar: eight
Encoding: 56 56 66
Width: 530
Flags: HMW
HStem: -15 108<239.5 291 239.5 326> 553 110<243.5 286.5>
VStem: 26 156<151 192.5 151 201.5> 42 152<467 505.5 467 536> 337 149<466 503> 346 158<173 173>
LayerCount: 2
Fore
SplineSet
26 165 m 0,0,1
 26 266 26 266 134 332 c 1,2,3
 42 390 42 390 42 486 c 0,4,5
 42 562 42 562 105 612.5 c 128,-1,6
 168 663 168 663 266.5 663 c 0,7,8
 365 663 365 663 425.5 614 c 128,-1,9
 486 565 486 565 486 484 c 0,10,11
 486 403 486 403 393 350 c 1,12,13
 505 284 505 284 504 172 c 0,14,15
 503 86 503 86 433 35.5 c 128,-1,16
 363 -15 363 -15 257.5 -15 c 0,17,18
 152 -15 152 -15 89 33 c 128,-1,19
 26 81 26 81 26 165 c 0,0,1
261 274 m 1,20,-1
 236 283 l 1,21,22
 182 237 182 237 182 174 c 0,23,24
 182 139 182 139 204.5 116 c 128,-1,25
 227 93 227 93 265 93 c 128,-1,26
 303 93 303 93 324.5 116 c 128,-1,27
 346 139 346 139 346 173 c 0,28,29
 346 241 346 241 261 274 c 1,20,-1
194 487 m 0,30,31
 194 432 194 432 277 402 c 1,32,-1
 290 397 l 1,33,34
 337 432 337 432 337 483 c 0,35,36
 337 514 337 514 317 533.5 c 128,-1,37
 297 553 297 553 265.5 553 c 0,38,39
 234 553 234 553 214 534 c 128,-1,40
 194 515 194 515 194 487 c 0,30,31
EndSplineSet
Substitution2: "'c2sc' Capitals to Small Capitals lookup 3 subtable" eight.smcp
Substitution2: "'aalt' Access All Alternates lookup 0 subtable" eight.smcp
EndChar

StartChar: nine
Encoding: 57 57 67
Width: 530
Flags: HMW
HStem: -15 122<192 253.5 192 311.5> 212 125<232.5 237.5> 548 115<231.5 269>
VStem: 32 154<403.5 471.5 403.5 505.5> 336 162<368 378 378 413>
LayerCount: 2
Fore
SplineSet
259 663 m 0,0,1
 498 663 498 663 498 330 c 0,2,3
 498 168 498 168 426 76.5 c 128,-1,4
 354 -15 354 -15 225 -15 c 0,5,6
 129 -15 129 -15 61 20 c 1,7,8
 66 88 66 88 111 127 c 1,9,10
 160 107 160 107 212 107 c 0,11,12
 327 107 327 107 335 252 c 1,13,14
 282 212 282 212 205 212 c 128,-1,15
 128 212 128 212 80 266 c 128,-1,16
 32 320 32 320 32 429.5 c 128,-1,17
 32 539 32 539 97.5 601 c 128,-1,18
 163 663 163 663 259 663 c 0,0,1
254 337 m 0,19,20
 297 337 297 337 336 368 c 1,21,-1
 336 378 l 2,22,23
 336 486 336 486 308 521 c 0,24,25
 287 548 287 548 257 548 c 0,26,27
 186 548 186 548 186 442.5 c 128,-1,28
 186 337 186 337 254 337 c 0,19,20
EndSplineSet
Substitution2: "'c2sc' Capitals to Small Capitals lookup 3 subtable" nine.smcp
Substitution2: "'aalt' Access All Alternates lookup 0 subtable" nine.smcp
EndChar

StartChar: period
Encoding: 46 46 68
Width: 287
Flags: HMW
HStem: 8 121<65 65 222 222>
VStem: 53 169
LayerCount: 2
Fore
SplineSet
53 68 m 128,-1,1
 53 104 53 104 65 129 c 1,2,3
 98 147 98 147 143.5 147 c 0,4,5
 189 147 189 147 222 129 c 1,6,7
 234 104 234 104 234 68 c 128,-1,8
 234 32 234 32 222 8 c 1,9,10
 193 -11 193 -11 143.5 -11 c 0,11,12
 94 -11 94 -11 65 8 c 1,13,0
 53 32 53 32 53 68 c 128,-1,1
EndSplineSet
EndChar

StartChar: periodcentered
Encoding: 183 183 69
Width: 329
Flags: HMW
HStem: 227 121<91 91 239 239>
VStem: 80 159
LayerCount: 2
Fore
SplineSet
80 287 m 128,-1,1
 80 322 80 322 91 348 c 1,2,3
 122 366 122 366 165 366 c 0,4,5
 208 366 208 366 239 348 c 1,6,7
 250 322 250 322 250 287 c 128,-1,8
 250 252 250 252 239 227 c 1,9,10
 211 208 211 208 165 208 c 0,11,12
 119 208 119 208 91 227 c 1,13,0
 80 252 80 252 80 287 c 128,-1,1
EndSplineSet
EndChar

StartChar: bullet
Encoding: 8226 8226 70
Width: 462
Flags: HMW
HStem: 171 197<113 113 351 351>
VStem: 94 257
LayerCount: 2
Fore
SplineSet
113 171 m 1,0,1
 94 210 94 210 94 268 c 128,-1,2
 94 326 94 326 113 368 c 1,3,4
 161 397 161 397 231 397 c 128,-1,5
 301 397 301 397 351 368 c 1,6,7
 369 325 369 325 369 268 c 128,-1,8
 369 211 369 211 351 171 c 1,9,10
 305 140 305 140 231 140 c 128,-1,11
 157 140 157 140 113 171 c 1,0,1
EndSplineSet
EndChar

StartChar: comma
Encoding: 44 44 71
Width: 295
Flags: HMW
HStem: -8 136
VStem: 72 166
LayerCount: 2
Fore
SplineSet
225 128 m 1,0,1
 238 93 238 93 238 48 c 0,2,3
 238 -26 238 -26 191 -90 c 128,-1,4
 144 -154 144 -154 59 -180 c 1,5,6
 39 -171 39 -171 29.5 -150.5 c 128,-1,7
 20 -130 20 -130 22 -108 c 1,8,9
 58 -96 58 -96 84 -69 c 128,-1,10
 110 -42 110 -42 115 -8 c 1,11,12
 83 -2 83 -2 72 8 c 1,13,14
 60 29 60 29 60 67.5 c 0,15,16
 60 106 60 106 72 128 c 1,17,18
 104 146 104 146 149 146 c 0,19,20
 194 146 194 146 225 128 c 1,0,1
EndSplineSet
EndChar

StartChar: colon
Encoding: 58 58 72
Width: 294
Flags: HMW
HStem: 8 121<69 69 226 226> 317 121<69 69 226 226>
VStem: 57 169
LayerCount: 2
Fore
SplineSet
57 68 m 128,-1,1
 57 104 57 104 69 129 c 1,2,3
 102 147 102 147 147.5 147 c 0,4,5
 193 147 193 147 226 129 c 1,6,7
 238 104 238 104 238 68 c 128,-1,8
 238 32 238 32 226 8 c 1,9,10
 197 -11 197 -11 147.5 -11 c 0,11,12
 98 -11 98 -11 69 8 c 1,13,0
 57 32 57 32 57 68 c 128,-1,1
57 377 m 128,-1,15
 57 413 57 413 69 438 c 1,16,17
 102 456 102 456 147.5 456 c 0,18,19
 193 456 193 456 226 438 c 1,20,21
 238 413 238 413 238 377 c 128,-1,22
 238 341 238 341 226 317 c 1,23,24
 197 298 197 298 147.5 298 c 0,25,26
 98 298 98 298 69 317 c 1,27,14
 57 341 57 341 57 377 c 128,-1,15
EndSplineSet
EndChar

StartChar: semicolon
Encoding: 59 59 73
Width: 298
Flags: HMW
HStem: -8 136 317 121<71 71 228 228>
VStem: 59 169 72 166
LayerCount: 2
Fore
SplineSet
225 128 m 1,0,1
 238 93 238 93 238 48 c 0,2,3
 238 -26 238 -26 191 -90 c 128,-1,4
 144 -154 144 -154 59 -180 c 1,5,6
 39 -171 39 -171 29.5 -150.5 c 128,-1,7
 20 -130 20 -130 22 -108 c 1,8,9
 58 -96 58 -96 84 -69 c 128,-1,10
 110 -42 110 -42 115 -8 c 1,11,12
 83 -2 83 -2 72 8 c 1,13,14
 60 29 60 29 60 67.5 c 0,15,16
 60 106 60 106 72 128 c 1,17,18
 104 146 104 146 149 146 c 0,19,20
 194 146 194 146 225 128 c 1,0,1
59 377 m 128,-1,22
 59 413 59 413 71 438 c 1,23,24
 104 456 104 456 149.5 456 c 0,25,26
 195 456 195 456 228 438 c 1,27,28
 240 413 240 413 240 377 c 128,-1,29
 240 341 240 341 228 317 c 1,30,31
 199 298 199 298 149.5 298 c 0,32,33
 100 298 100 298 71 317 c 1,34,21
 59 341 59 341 59 377 c 128,-1,22
EndSplineSet
EndChar

StartChar: exclam
Encoding: 33 33 74
Width: 308
Flags: HMW
HStem: 5 134 680 12<200 244>
VStem: 75 148<5 5 122 122>
LayerCount: 2
Fore
SplineSet
91 209 m 1,0,-1
 69 649 l 1,1,2
 129 692 129 692 235 692 c 1,3,-1
 244 680 l 1,4,-1
 209 209 l 1,5,6
 185 202 185 202 149.5 202 c 128,-1,7
 114 202 114 202 91 209 c 1,0,-1
75 122 m 1,8,9
 106 139 106 139 150.5 139 c 128,-1,10
 195 139 195 139 223 122 c 1,11,12
 235 104 235 104 235 63.5 c 128,-1,13
 235 23 235 23 223 5 c 1,14,15
 195 -12 195 -12 150.5 -12 c 128,-1,16
 106 -12 106 -12 75 5 c 1,17,18
 65 25 65 25 65 63.5 c 128,-1,19
 65 102 65 102 75 122 c 1,8,9
EndSplineSet
EndChar

StartChar: exclamdown
Encoding: 161 161 75
Width: 308
Flags: HMW
HStem: -193 11<64 108> 359 134
VStem: 85 148<376 376 493 493>
LayerCount: 2
Fore
SplineSet
218 289 m 1,0,-1
 239 -150 l 1,1,2
 181 -193 181 -193 73 -193 c 1,3,-1
 64 -182 l 1,4,-1
 99 289 l 1,5,6
 123 296 123 296 159 296 c 128,-1,7
 195 296 195 296 218 289 c 1,0,-1
233 376 m 1,8,9
 202 359 202 359 157.5 359 c 128,-1,10
 113 359 113 359 85 376 c 1,11,12
 73 394 73 394 73 434.5 c 128,-1,13
 73 475 73 475 85 493 c 1,14,15
 113 510 113 510 157.5 510 c 128,-1,16
 202 510 202 510 233 493 c 1,17,18
 243 473 243 473 243 434.5 c 128,-1,19
 243 396 243 396 233 376 c 1,8,9
EndSplineSet
EndChar

StartChar: question
Encoding: 63 63 76
Width: 420
Flags: HMW
HStem: 2 134 565 134<167.5 198>
VStem: 81 148<2 2 120 120> 91 126 251 163<476.5 518.5>
LayerCount: 2
Fore
SplineSet
1 641 m 1,0,1
 99 699 99 699 202.5 699 c 128,-1,2
 306 699 306 699 360 648.5 c 128,-1,3
 414 598 414 598 414 516 c 0,4,5
 414 386 414 386 283 318 c 1,6,-1
 223 286 l 1,7,-1
 213 210 l 1,8,9
 189 202 189 202 155 202 c 128,-1,10
 121 202 121 202 96 210 c 1,11,-1
 87 359 l 1,12,-1
 99 374 l 1,13,-1
 155 399 l 1,14,15
 251 445 251 445 251 499 c 0,16,17
 251 529 251 529 230.5 547 c 128,-1,18
 210 565 210 565 164.5 565 c 128,-1,19
 119 565 119 565 58 529 c 1,20,21
 36 545 36 545 19.5 578 c 128,-1,22
 3 611 3 611 1 641 c 1,0,1
81 120 m 1,23,24
 113 136 113 136 156.5 136 c 128,-1,25
 200 136 200 136 229 120 c 1,26,27
 241 101 241 101 241 61 c 128,-1,28
 241 21 241 21 229 2 c 1,29,30
 203 -14 203 -14 156.5 -14 c 128,-1,31
 110 -14 110 -14 81 2 c 1,32,33
 71 24 71 24 71 61 c 128,-1,34
 71 98 71 98 81 120 c 1,23,24
EndSplineSet
EndChar

StartChar: questiondown
Encoding: 191 191 77
Width: 420
Flags: HMW
HStem: -203 134<230 260> 359 134
VStem: 14 163<-23.5 18.5 -23.5 29> 198 148<376 376 493 493> 210 126
LayerCount: 2
Fore
SplineSet
426 -145 m 1,0,1
 332 -203 332 -203 227 -203 c 0,2,3
 122 -203 122 -203 68 -152.5 c 128,-1,4
 14 -102 14 -102 14 -21 c 0,5,6
 14 108 14 108 145 178 c 1,7,-1
 205 209 l 1,8,-1
 215 286 l 1,9,10
 240 293 240 293 272.5 293 c 0,11,12
 305 293 305 293 332 286 c 1,13,-1
 341 137 l 1,14,-1
 328 121 l 1,15,-1
 273 96 l 2,16,17
 177 52 177 52 177 -4 c 0,18,19
 177 -34 177 -34 197.5 -51.5 c 128,-1,20
 218 -69 218 -69 262 -69 c 0,21,22
 306 -69 306 -69 370 -34 c 1,23,24
 392 -50 392 -50 408 -82.5 c 128,-1,25
 424 -115 424 -115 426 -145 c 1,0,1
272 359 m 128,-1,27
 227 359 227 359 198 376 c 1,28,29
 187 395 187 395 187 434.5 c 0,30,31
 187 474 187 474 198 493 c 1,32,33
 227 510 227 510 272 510 c 128,-1,34
 317 510 317 510 346 493 c 1,35,36
 357 474 357 474 357 434.5 c 0,37,38
 357 395 357 395 346 376 c 1,39,26
 317 359 317 359 272 359 c 128,-1,27
EndSplineSet
EndChar

StartChar: quoteleft
Encoding: 8216 8216 78
Width: 268
Flags: HMW
HStem: 504 135
VStem: 39 166
LayerCount: 2
Fore
SplineSet
51 504 m 1,0,1
 39 540 39 540 39 583 c 0,2,3
 39 657 39 657 82.5 714.5 c 128,-1,4
 126 772 126 772 210 796 c 1,5,6
 229 786 229 786 238 766 c 128,-1,7
 247 746 247 746 245 724 c 1,8,9
 214 714 214 714 187 692 c 128,-1,10
 160 670 160 670 159 639 c 1,11,12
 194 633 194 633 205 624 c 1,13,14
 216 600 216 600 216 562 c 0,15,16
 216 524 216 524 205 504 c 1,17,18
 173 486 173 486 126.5 486 c 0,19,20
 80 486 80 486 51 504 c 1,0,1
EndSplineSet
EndChar

StartChar: quoteright
Encoding: 8217 8217 79
Width: 268
Flags: HMW
HStem: 538 20G 643 134
VStem: 64 166
LayerCount: 2
Fore
SplineSet
217 777 m 1,0,1
 230 742 230 742 230 698 c 0,2,3
 230 624 230 624 186 566.5 c 128,-1,4
 142 509 142 509 58 486 c 1,5,6
 39 495 39 495 30 515.5 c 128,-1,7
 21 536 21 536 23 558 c 1,8,9
 53 567 53 567 80.5 589 c 128,-1,10
 108 611 108 611 109 643 c 1,11,12
 75 647 75 647 64 657 c 1,13,14
 52 679 52 679 52 717.5 c 0,15,16
 52 756 52 756 64 777 c 1,17,18
 93 795 93 795 141 795 c 0,19,20
 189 795 189 795 217 777 c 1,0,1
EndSplineSet
EndChar

StartChar: quotedblleft
Encoding: 8220 8220 80
Width: 503
Flags: HMW
HStem: 504 135
VStem: 36 166
LayerCount: 2
Fore
SplineSet
48 504 m 1,0,1
 36 540 36 540 36 583 c 0,2,3
 36 657 36 657 79.5 714.5 c 128,-1,4
 123 772 123 772 207 796 c 1,5,6
 226 786 226 786 235 766 c 128,-1,7
 244 746 244 746 242 724 c 1,8,9
 211 714 211 714 184 692 c 128,-1,10
 157 670 157 670 156 639 c 1,11,12
 191 633 191 633 202 624 c 1,13,14
 213 600 213 600 213 562 c 0,15,16
 213 524 213 524 202 504 c 1,17,18
 170 486 170 486 123.5 486 c 0,19,20
 77 486 77 486 48 504 c 1,0,1
283 504 m 1,21,22
 271 540 271 540 271 583 c 0,23,24
 271 657 271 657 314.5 714.5 c 128,-1,25
 358 772 358 772 442 796 c 1,26,27
 461 786 461 786 470 766 c 128,-1,28
 479 746 479 746 477 724 c 1,29,30
 446 714 446 714 419 692 c 128,-1,31
 392 670 392 670 391 639 c 1,32,33
 426 633 426 633 437 624 c 1,34,35
 448 600 448 600 448 562 c 0,36,37
 448 524 448 524 437 504 c 1,38,39
 405 486 405 486 358.5 486 c 0,40,41
 312 486 312 486 283 504 c 1,21,22
EndSplineSet
EndChar

StartChar: quotedblright
Encoding: 8221 8221 81
Width: 503
Flags: HMW
HStem: 538 20G 643 134
VStem: 69 166 304 166
LayerCount: 2
Fore
SplineSet
222 777 m 1,0,1
 235 742 235 742 235 698 c 0,2,3
 235 624 235 624 191 566.5 c 128,-1,4
 147 509 147 509 63 486 c 1,5,6
 44 495 44 495 35 515.5 c 128,-1,7
 26 536 26 536 28 558 c 1,8,9
 58 567 58 567 85.5 589 c 128,-1,10
 113 611 113 611 114 643 c 1,11,12
 80 647 80 647 69 657 c 1,13,14
 57 679 57 679 57 717.5 c 0,15,16
 57 756 57 756 69 777 c 1,17,18
 98 795 98 795 146 795 c 0,19,20
 194 795 194 795 222 777 c 1,0,1
457 777 m 1,21,22
 470 742 470 742 470 698 c 0,23,24
 470 624 470 624 426 566.5 c 128,-1,25
 382 509 382 509 298 486 c 1,26,27
 279 495 279 495 270 515.5 c 128,-1,28
 261 536 261 536 263 558 c 1,29,30
 293 567 293 567 320.5 589 c 128,-1,31
 348 611 348 611 349 643 c 1,32,33
 315 647 315 647 304 657 c 1,34,35
 292 679 292 679 292 717.5 c 0,36,37
 292 756 292 756 304 777 c 1,38,39
 333 795 333 795 381 795 c 0,40,41
 429 795 429 795 457 777 c 1,21,22
EndSplineSet
EndChar

StartChar: quotesingle
Encoding: 39 39 82
Width: 242
Flags: HMW
HStem: 484 294 484 312
VStem: 40 151<707.5 728.5>
LayerCount: 2
Fore
SplineSet
40 727.5 m 128,-1,1
 40 746 40 746 47 778 c 1,2,3
 77 796 77 796 116 796 c 128,-1,4
 155 796 155 796 185 778 c 1,5,6
 191 751 191 751 191 730 c 128,-1,7
 191 709 191 709 184.5 674.5 c 0,8,9
 161.127659574 550.446808511 161.127659574 550.446808511 154 492 c 1,10,11
 141 484 141 484 116 484 c 128,-1,12
 91 484 91 484 78 492 c 1,13,14
 72.7074468085 535.39893617 72.7074468085 535.39893617 56.3537234043 622.199468085 c 128,-1,0
 40 709 40 709 40 727.5 c 128,-1,1
EndSplineSet
EndChar

StartChar: quotesinglbase
Encoding: 8218 8218 83
Width: 268
Flags: HMW
HStem: -9 135
VStem: 61 167
LayerCount: 2
Fore
SplineSet
215 126 m 1,0,1
 228 87 228 87 228 46 c 0,2,3
 228 -28 228 -28 184 -85 c 128,-1,4
 140 -142 140 -142 56 -166 c 1,5,6
 37 -157 37 -157 28 -136.5 c 128,-1,7
 19 -116 19 -116 21 -94 c 1,8,9
 52 -84 52 -84 79 -62 c 128,-1,10
 106 -40 106 -40 107 -9 c 1,11,12
 72 -3 72 -3 61 6 c 1,13,14
 50 28 50 28 50 65 c 0,15,16
 50 102 50 102 61 126 c 1,17,18
 95 144 95 144 139.5 144 c 0,19,20
 184 144 184 144 215 126 c 1,0,1
EndSplineSet
EndChar

StartChar: quotedbl
Encoding: 34 34 84
Width: 451
Flags: HMW
HStem: 484 294 484 312
VStem: 40 151<707.5 728.5> 259 151<707.5 728.5>
LayerCount: 2
Fore
SplineSet
259 727.5 m 128,-1,1
 259 746 259 746 266 778 c 1,2,3
 296 796 296 796 335 796 c 128,-1,4
 374 796 374 796 404 778 c 1,5,6
 410 751 410 751 410 730 c 128,-1,7
 410 709 410 709 403.5 674.5 c 0,8,9
 380.127659574 550.446808511 380.127659574 550.446808511 373 492 c 1,10,11
 360 484 360 484 335 484 c 128,-1,12
 310 484 310 484 297 492 c 1,13,14
 291.707446809 535.39893617 291.707446809 535.39893617 275.353723404 622.199468085 c 128,-1,0
 259 709 259 709 259 727.5 c 128,-1,1
40 727.5 m 128,-1,16
 40 746 40 746 47 778 c 1,17,18
 77 796 77 796 116 796 c 128,-1,19
 155 796 155 796 185 778 c 1,20,21
 191 751 191 751 191 730 c 128,-1,22
 191 709 191 709 184.5 674.5 c 0,23,24
 161.127659574 550.446808511 161.127659574 550.446808511 154 492 c 1,25,26
 141 484 141 484 116 484 c 128,-1,27
 91 484 91 484 78 492 c 1,28,29
 72.7074468085 535.39893617 72.7074468085 535.39893617 56.3537234043 622.199468085 c 128,-1,15
 40 709 40 709 40 727.5 c 128,-1,16
EndSplineSet
EndChar

StartChar: quotedblbase
Encoding: 8222 8222 85
Width: 503
Flags: HMW
HStem: -9 135
VStem: 61 167
LayerCount: 2
Fore
SplineSet
215 126 m 1,0,1
 228 87 228 87 228 46 c 0,2,3
 228 -28 228 -28 184 -85 c 128,-1,4
 140 -142 140 -142 56 -166 c 1,5,6
 37 -157 37 -157 28 -136.5 c 128,-1,7
 19 -116 19 -116 21 -94 c 1,8,9
 52 -84 52 -84 79 -62 c 128,-1,10
 106 -40 106 -40 107 -9 c 1,11,12
 72 -3 72 -3 61 6 c 1,13,14
 50 28 50 28 50 65 c 0,15,16
 50 102 50 102 61 126 c 1,17,18
 95 144 95 144 139.5 144 c 0,19,20
 184 144 184 144 215 126 c 1,0,1
450 126 m 1,21,22
 463 87 463 87 463 46 c 0,23,24
 463 -28 463 -28 419 -85 c 128,-1,25
 375 -142 375 -142 291 -166 c 1,26,27
 272 -157 272 -157 263 -136.5 c 128,-1,28
 254 -116 254 -116 256 -94 c 1,29,30
 287 -84 287 -84 314 -62 c 128,-1,31
 341 -40 341 -40 342 -9 c 1,32,33
 307 -3 307 -3 296 6 c 1,34,35
 285 28 285 28 285 65 c 0,36,37
 285 102 285 102 296 126 c 1,38,39
 330 144 330 144 374.5 144 c 0,40,41
 419 144 419 144 450 126 c 1,21,22
EndSplineSet
EndChar

StartChar: guilsinglleft
Encoding: 8249 8249 86
Width: 349
Flags: HMW
HStem: 26 463<231 233>
VStem: 23 296
LayerCount: 2
Fore
SplineSet
314 409 m 1,0,-1
 192 258 l 1,1,-1
 319 104 l 1,2,3
 312 80 312 80 285 56 c 128,-1,4
 258 32 258 32 233 26 c 1,5,-1
 30 211 l 1,6,7
 22 229 22 229 22 255 c 128,-1,8
 22 281 22 281 30 299 c 1,9,-1
 231 489 l 1,10,11
 256 483 256 483 281.5 458.5 c 128,-1,12
 307 434 307 434 314 409 c 1,0,-1
EndSplineSet
EndChar

StartChar: guilsinglright
Encoding: 8250 8250 87
Width: 349
Flags: HMW
HStem: 26 463<117 118>
VStem: 31 296
LayerCount: 2
Fore
SplineSet
35 105 m 1,0,-1
 157 256 l 1,1,-1
 31 410 l 1,2,3
 38 435 38 435 64.5 459 c 128,-1,4
 91 483 91 483 117 489 c 1,5,-1
 319 304 l 1,6,7
 327 286 327 286 327 259.5 c 128,-1,8
 327 233 327 233 319 215 c 1,9,-1
 118 26 l 1,10,11
 93 32 93 32 68 56.5 c 128,-1,12
 43 81 43 81 35 105 c 1,0,-1
EndSplineSet
EndChar

StartChar: guillemotleft
Encoding: 171 171 88
Width: 617
Flags: HMW
HStem: 26 463<231 233 231 500>
VStem: 23 296 290 296
LayerCount: 2
Fore
SplineSet
581 409 m 1,0,-1
 459 258 l 1,1,-1
 586 104 l 1,2,3
 579 80 579 80 552 56 c 128,-1,4
 525 32 525 32 500 26 c 1,5,-1
 297 211 l 1,6,7
 290 229 290 229 290 255 c 128,-1,8
 290 281 290 281 297 299 c 1,9,-1
 498 489 l 1,10,11
 523 483 523 483 548.5 458.5 c 128,-1,12
 574 434 574 434 581 409 c 1,0,-1
314 409 m 1,13,-1
 192 258 l 1,14,-1
 319 104 l 1,15,16
 312 80 312 80 285 56 c 128,-1,17
 258 32 258 32 233 26 c 1,18,-1
 30 211 l 1,19,20
 22 229 22 229 22 255 c 128,-1,21
 22 281 22 281 30 299 c 1,22,-1
 231 489 l 1,23,24
 256 483 256 483 281.5 458.5 c 128,-1,25
 307 434 307 434 314 409 c 1,13,-1
EndSplineSet
EndChar

StartChar: guillemotright
Encoding: 187 187 89
Width: 617
Flags: HMW
HStem: 26 463<117 118 117 385>
VStem: 31 296 298 296
LayerCount: 2
Fore
SplineSet
35 105 m 1,0,-1
 157 256 l 1,1,-1
 31 410 l 1,2,3
 38 435 38 435 64.5 459 c 128,-1,4
 91 483 91 483 117 489 c 1,5,-1
 319 304 l 1,6,7
 327 286 327 286 327 259.5 c 128,-1,8
 327 233 327 233 319 215 c 1,9,-1
 118 26 l 1,10,11
 93 32 93 32 68 56.5 c 128,-1,12
 43 81 43 81 35 105 c 1,0,-1
302 105 m 1,13,-1
 424 256 l 1,14,-1
 298 410 l 1,15,16
 305 435 305 435 331.5 459 c 128,-1,17
 358 483 358 483 384 489 c 1,18,-1
 586 304 l 1,19,20
 594 286 594 286 594 259.5 c 128,-1,21
 594 233 594 233 586 215 c 1,22,-1
 385 26 l 1,23,24
 360 32 360 32 335 56.5 c 128,-1,25
 310 81 310 81 302 105 c 1,13,-1
EndSplineSet
EndChar

StartChar: onesuperior
Encoding: 185 185 90
Width: 420
Flags: HMW
HStem: 319 112<69 169 295 376 69 169>
VStem: 169 126<431 515 515 523>
LayerCount: 2
Fore
SplineSet
34 621 m 1,0,1
 89 655 89 655 119.5 687.5 c 128,-1,2
 150 720 150 720 174 769 c 1,3,4
 211 774 211 774 232 774 c 0,5,6
 253 774 253 774 295 769 c 1,7,-1
 295 431 l 1,8,-1
 376 431 l 1,9,10
 383 407 383 407 383 374 c 0,11,12
 383 341 383 341 376 319 c 1,13,-1
 69 319 l 1,14,15
 64 347 64 347 64 375 c 128,-1,16
 64 403 64 403 69 431 c 1,17,-1
 169 431 l 1,18,-1
 169 515 l 2,19,20
 169 533 169 533 173 599 c 1,21,22
 147 567 147 567 92 542 c 1,23,24
 71 553 71 553 54.5 576 c 128,-1,25
 38 599 38 599 34 621 c 1,0,1
EndSplineSet
EndChar

StartChar: twosuperior
Encoding: 178 178 91
Width: 420
Flags: HMW
HStem: 317 114<283 291> 637 20G 662 115<173 196>
VStem: 221 136<617 636>
LayerCount: 2
Fore
SplineSet
370 431 m 1,0,1
 370 398 370 398 367 377 c 0,2,3
 356 317 356 317 291 317 c 2,4,-1
 80 317 l 1,5,6
 78 320 78 320 69.5 331 c 128,-1,7
 61 342 61 342 57.5 347 c 128,-1,8
 54 352 54 352 48.5 361.5 c 0,9,10
 38 379.636363636 38 379.636363636 38 396 c 0,11,12
 38 448 38 448 104 501 c 1,13,-1
 194 577 l 1,14,15
 221 598 221 598 221 626 c 0,16,17
 221 641 221 641 211 651.5 c 128,-1,18
 201 662 201 662 184.5 662 c 128,-1,19
 168 662 168 662 156 648 c 128,-1,20
 144 634 144 634 140 615 c 1,21,22
 116 615 116 615 84.5 628 c 128,-1,23
 53 641 53 641 43 657 c 1,24,25
 53 708 53 708 96 742.5 c 128,-1,26
 139 777 139 777 204.5 777 c 128,-1,27
 270 777 270 777 313.5 737.5 c 128,-1,28
 357 698 357 698 357 635 c 0,29,30
 357 552 357 552 276 491 c 1,31,-1
 219 449 l 2,32,33
 211 443 211 443 195.5 433.5 c 128,-1,34
 180 424 180 424 175 420 c 1,35,36
 238 431 238 431 283 431 c 2,37,-1
 370 431 l 1,0,1
EndSplineSet
EndChar

StartChar: threesuperior
Encoding: 179 179 92
Width: 420
Flags: HMW
HStem: 314 103<160.5 189 155.5 237.5> 664 106<64 127 61 320>
VStem: 228 135<451 478.5>
LayerCount: 2
Fore
SplineSet
320 639 m 1,0,-1
 275 603 l 2,1,2
 266 595 266 595 251 587 c 1,3,4
 300 581 300 581 331.5 546 c 128,-1,5
 363 511 363 511 363 461 c 0,6,7
 363 394 363 394 313 354 c 128,-1,8
 263 314 263 314 193 314 c 0,9,10
 97 314 97 314 38 363 c 1,11,12
 48 413 48 413 90 448 c 1,13,14
 134 417 134 417 166 417 c 0,15,16
 228 417 228 417 228 466 c 0,17,18
 228 486 228 486 215 500 c 128,-1,19
 202 514 202 514 177 514 c 0,20,21
 172 514 172 514 150 509 c 1,22,23
 135 515 135 515 118.5 536.5 c 128,-1,24
 102 558 102 558 98 576 c 1,25,-1
 162 632 l 2,26,27
 170 639 170 639 209 666 c 1,28,-1
 206 670 l 1,29,30
 179 664 179 664 127 664 c 2,31,-1
 61 664 l 1,32,33
 54 686 54 686 54 717 c 128,-1,34
 54 748 54 748 64 770 c 1,35,-1
 320 770 l 1,36,37
 348 726 348 726 348 694.5 c 128,-1,38
 348 663 348 663 320 639 c 1,0,-1
EndSplineSet
EndChar

StartChar: onequarter
Encoding: 188 188 93
Width: 1054
Flags: HMW
HStem: -20 20G<296 296 296 446> 75 106<684 843> 233 112<61 161 287 368 61 161>
VStem: 161 126<345 429 429 437> 296 528 843 123<8 25 25 36 182 189 189 192 8 212>
LayerCount: 2
Fore
SplineSet
26 535 m 1,0,1
 81 569 81 569 111.5 601.5 c 128,-1,2
 142 634 142 634 166 683 c 1,3,4
 203 688 203 688 224 688 c 128,-1,5
 245 688 245 688 287 683 c 1,6,-1
 287 345 l 1,7,-1
 368 345 l 1,8,9
 375 321 375 321 375 288 c 128,-1,10
 375 255 375 255 368 233 c 1,11,-1
 61 233 l 1,12,13
 56 261 56 261 56 289 c 128,-1,14
 56 317 56 317 61 345 c 1,15,-1
 161 345 l 1,16,-1
 161 429 l 2,17,18
 161 447 161 447 165 513 c 1,19,20
 139 481 139 481 84 456 c 1,21,22
 63 467 63 467 46.5 490 c 128,-1,23
 30 513 30 513 26 535 c 1,0,1
296 0 m 1,24,-1
 674 683 l 1,25,26
 707 690 707 690 755.5 689.5 c 128,-1,27
 804 689 804 689 824 683 c 1,28,-1
 446 0 l 1,29,30
 414 -7 414 -7 365 -6.5 c 128,-1,31
 316 -6 316 -6 296 0 c 1,24,-1
998 76 m 1,32,-1
 966 77 l 1,33,-1
 966 8 l 1,34,35
 942 2 942 2 905 2 c 128,-1,36
 868 2 868 2 843 8 c 1,37,-1
 843 25 l 1,38,-1
 844 77 l 1,39,-1
 788 75 l 1,40,-1
 684 75 l 1,41,42
 656 121 656 121 656 146.5 c 128,-1,43
 656 172 656 172 670 203 c 2,44,-1
 784 461 l 1,45,46
 813 464 813 464 850 456 c 128,-1,47
 887 448 887 448 908 434 c 1,48,-1
 856 320 l 1,49,50
 813 221 813 221 779 179 c 1,51,-1
 781 177 l 1,52,53
 815 181 815 181 843 181 c 1,54,-1
 843 212 l 2,55,56
 843 256 843 256 866.5 280.5 c 128,-1,57
 890 305 890 305 933 305 c 2,58,-1
 962 305 l 1,59,-1
 967 301 l 1,60,-1
 967 257 l 1,61,-1
 966 182 l 1,62,-1
 1018 182 l 1,63,64
 1022 163 1022 163 1022 136 c 128,-1,65
 1022 109 1022 109 1013 76 c 1,66,-1
 998 76 l 1,32,-1
EndSplineSet
Ligature2: "'frac' Diagonal Fractions lookup 4 subtable" one fraction four
Ligature2: "'frac' Diagonal Fractions lookup 4 subtable" one slash four
EndChar

StartChar: onehalf
Encoding: 189 189 94
Width: 1054
Flags: HMW
HStem: -20 20G<285 285 285 435> 6 114<925 933> 233 112<61 161 287 368 61 161> 326 20G 351 115<815 838>
VStem: 161 126<345 429 429 437> 285 528 863 136<306 325>
LayerCount: 2
Fore
SplineSet
285 0 m 1,0,-1
 663 683 l 1,1,2
 696 690 696 690 744.5 689.5 c 128,-1,3
 793 689 793 689 813 683 c 1,4,-1
 435 0 l 1,5,6
 403 -7 403 -7 354 -6.5 c 128,-1,7
 305 -6 305 -6 285 0 c 1,0,-1
26 535 m 1,8,9
 81 569 81 569 111.5 601.5 c 128,-1,10
 142 634 142 634 166 683 c 1,11,12
 203 688 203 688 224 688 c 128,-1,13
 245 688 245 688 287 683 c 1,14,-1
 287 345 l 1,15,-1
 368 345 l 1,16,17
 375 321 375 321 375 288 c 128,-1,18
 375 255 375 255 368 233 c 1,19,-1
 61 233 l 1,20,21
 56 261 56 261 56 289 c 128,-1,22
 56 317 56 317 61 345 c 1,23,-1
 161 345 l 1,24,-1
 161 429 l 2,25,26
 161 447 161 447 165 513 c 1,27,28
 139 481 139 481 84 456 c 1,29,30
 63 467 63 467 46.5 490 c 128,-1,31
 30 513 30 513 26 535 c 1,8,9
1012 120 m 1,32,33
 1012 87 1012 87 1009 66 c 0,34,35
 999 6 999 6 933 6 c 2,36,-1
 722 6 l 1,37,38
 720 9 720 9 711.5 20 c 128,-1,39
 703 31 703 31 699.5 36 c 128,-1,40
 696 41 696 41 690.5 50.5 c 0,41,42
 680 68.6363636364 680 68.6363636364 680 85 c 0,43,44
 680 137 680 137 746 190 c 1,45,-1
 836 266 l 1,46,47
 863 287 863 287 863 315 c 0,48,49
 863 330 863 330 853 340.5 c 128,-1,50
 843 351 843 351 826.5 351 c 128,-1,51
 810 351 810 351 798 337 c 128,-1,52
 786 323 786 323 782 304 c 1,53,54
 758 304 758 304 726.5 317 c 128,-1,55
 695 330 695 330 685 346 c 1,56,57
 695 397 695 397 738 431.5 c 128,-1,58
 781 466 781 466 846.5 466 c 128,-1,59
 912 466 912 466 955.5 426.5 c 128,-1,60
 999 387 999 387 999 324 c 0,61,62
 999 241 999 241 918 180 c 1,63,-1
 861 138 l 2,64,65
 853 132 853 132 837.5 122.5 c 128,-1,66
 822 113 822 113 817 109 c 1,67,68
 880 120 880 120 925 120 c 2,69,-1
 1012 120 l 1,32,33
EndSplineSet
Ligature2: "'frac' Diagonal Fractions lookup 4 subtable" one fraction two
Ligature2: "'frac' Diagonal Fractions lookup 4 subtable" one slash two
EndChar

StartChar: threequarters
Encoding: 190 190 95
Width: 1054
Flags: HMW
HStem: -20 20G<268 268 268 418> 75 106<663 822> 229 103<164.5 193 159.5 241.5> 579 106<68 131 65 324>
VStem: 232 135<366 393.5> 268 528 822 123<8 25 25 36 182 189 189 192 8 212>
LayerCount: 2
Fore
SplineSet
268 0 m 1,0,-1
 646 683 l 1,1,2
 679 690 679 690 727.5 689.5 c 128,-1,3
 776 689 776 689 796 683 c 1,4,-1
 418 0 l 1,5,6
 386 -7 386 -7 337 -6.5 c 128,-1,7
 288 -6 288 -6 268 0 c 1,0,-1
324 554 m 1,8,-1
 279 518 l 2,9,10
 270 510 270 510 255 502 c 1,11,12
 304 496 304 496 335.5 461 c 128,-1,13
 367 426 367 426 367 376 c 0,14,15
 367 309 367 309 317 269 c 128,-1,16
 267 229 267 229 197 229 c 0,17,18
 101 229 101 229 42 278 c 1,19,20
 52 328 52 328 94 363 c 1,21,22
 138 332 138 332 170 332 c 0,23,24
 232 332 232 332 232 381 c 0,25,26
 232 401 232 401 219 415 c 128,-1,27
 206 429 206 429 181 429 c 0,28,29
 176 429 176 429 154 424 c 1,30,31
 139 430 139 430 122.5 451.5 c 128,-1,32
 106 473 106 473 102 491 c 1,33,-1
 166 547 l 2,34,35
 174 554 174 554 213 581 c 1,36,-1
 210 585 l 1,37,38
 183 579 183 579 131 579 c 2,39,-1
 65 579 l 1,40,41
 58 601 58 601 58 632 c 128,-1,42
 58 663 58 663 68 685 c 1,43,-1
 324 685 l 1,44,45
 352 641 352 641 352 609.5 c 128,-1,46
 352 578 352 578 324 554 c 1,8,-1
977 76 m 1,47,-1
 945 77 l 1,48,-1
 945 8 l 1,49,50
 921 2 921 2 884 2 c 128,-1,51
 847 2 847 2 822 8 c 1,52,-1
 822 25 l 1,53,-1
 823 77 l 1,54,55
 767 75 l 1,56,-1
 663 75 l 1,57,58
 635 121 635 121 635 146.5 c 128,-1,59
 635 172 635 172 649 203 c 2,60,-1
 763 461 l 1,61,62
 792 464 792 464 829 456 c 128,-1,63
 866 448 866 448 887 434 c 1,64,-1
 835 320 l 1,65,66
 792 221 792 221 758 179 c 1,67,-1
 760 177 l 1,68,69
 794 181 794 181 822 181 c 1,70,-1
 822 212 l 2,71,72
 822 256 822 256 845.5 280.5 c 128,-1,73
 869 305 869 305 912 305 c 2,74,-1
 941 305 l 1,75,-1
 946 301 l 1,76,-1
 946 257 l 1,77,-1
 945 182 l 1,78,-1
 997 182 l 1,79,80
 1001 163 1001 163 1001 136 c 128,-1,81
 1001 109 1001 109 992 76 c 1,82,-1
 977 76 l 1,47,-1
EndSplineSet
Ligature2: "'frac' Diagonal Fractions lookup 4 subtable" three fraction four
Ligature2: "'frac' Diagonal Fractions lookup 4 subtable" three slash four
EndChar

StartChar: ordfeminine
Encoding: 170 170 96
Width: 457
Flags: HMW
HStem: 271 94<126 212> 452 81<196.5 208 157 219> 600 98<217.5 219>
VStem: 39 125<392.5 418 392.5 443> 256 137<410 450 450 450 531 555 555 559>
LayerCount: 2
Fore
SplineSet
420 345 m 1,0,1
 418 325 418 325 404 305 c 128,-1,2
 390 285 390 285 373 276 c 1,3,4
 317 276 317 276 283 318 c 1,5,6
 228 271 228 271 168 271 c 128,-1,7
 108 271 108 271 73.5 307.5 c 128,-1,8
 39 344 39 344 39 395 c 0,9,10
 39 463 39 463 84.5 498 c 128,-1,11
 130 533 130 533 201 533 c 0,12,13
 214 533 214 533 256 531 c 1,14,-1
 256 555 l 2,15,16
 256 578 256 578 241.5 589 c 128,-1,17
 227 600 227 600 198 600 c 128,-1,18
 169 600 169 600 91 577 c 1,19,20
 62 607 62 607 59 661 c 1,21,22
 152 698 152 698 245 698 c 0,23,24
 305 698 305 698 349 664 c 128,-1,25
 393 630 393 630 393 559 c 2,26,-1
 393 400 l 2,27,28
 393 357 393 357 420 345 c 1,0,1
175 376 m 128,-1,30
 186 365 186 365 207.5 365 c 128,-1,31
 229 365 229 365 257 387 c 1,32,33
 256 394 256 394 256 410 c 2,34,-1
 256 450 l 1,35,36
 224 452 224 452 213 452 c 0,37,38
 164 452 164 452 164 403 c 0,39,29
 164 387 164 387 175 376 c 128,-1,30
EndSplineSet
EndChar

StartChar: ordmasculine
Encoding: 186 186 97
Width: 456
Flags: HMW
HStem: 270 98<206 249.5 206 252.5> 600 98<206 249.5>
VStem: 41 129<452 516.5> 286 129<452 516.5 452 519>
LayerCount: 2
Fore
SplineSet
415 484 m 128,-1,1
 415 376 415 376 354 316 c 1,2,3
 309 270 309 270 228 270 c 128,-1,4
 147 270 147 270 102 316 c 1,5,6
 41 376 41 376 41 484 c 128,-1,7
 41 592 41 592 102 652 c 1,8,9
 147 698 147 698 228 698 c 128,-1,10
 309 698 309 698 354 652 c 1,11,0
 415 592 415 592 415 484 c 128,-1,1
170 484 m 128,-1,13
 170 368 170 368 228 368 c 128,-1,14
 286 368 286 368 286 484 c 128,-1,15
 286 600 286 600 228 600 c 128,-1,12
 170 600 170 600 170 484 c 128,-1,13
EndSplineSet
EndChar

StartChar: degree
Encoding: 176 176 98
Width: 351
Flags: HMW
HStem: 353 96<159 191 159 222> 578 97<159 191>
VStem: 14 108<494 533.5 494 561> 227 109<494 533.5>
LayerCount: 2
Fore
SplineSet
59.5 398 m 128,-1,1
 14 443 14 443 14 513.5 c 128,-1,2
 14 584 14 584 59.5 629.5 c 128,-1,3
 105 675 105 675 175.5 675 c 128,-1,4
 246 675 246 675 291 629.5 c 128,-1,5
 336 584 336 584 336 513.5 c 128,-1,6
 336 443 336 443 291 398 c 128,-1,7
 246 353 246 353 175.5 353 c 128,-1,0
 105 353 105 353 59.5 398 c 128,-1,1
136.5 560.5 m 128,-1,9
 122 543 122 543 122 513.5 c 128,-1,10
 122 484 122 484 136.5 466.5 c 128,-1,11
 151 449 151 449 175 449 c 128,-1,12
 199 449 199 449 213 466.5 c 128,-1,13
 227 484 227 484 227 513.5 c 128,-1,14
 227 543 227 543 213 560.5 c 128,-1,15
 199 578 199 578 175 578 c 128,-1,8
 151 578 151 578 136.5 560.5 c 128,-1,9
EndSplineSet
EndChar

StartChar: less
Encoding: 60 60 99
Width: 530
Flags: HMW
HStem: 534 20G<406 406>
VStem: 45 163
LayerCount: 2
Fore
SplineSet
51 358 m 1,0,-1
 406 554 l 1,1,2
 435 537 435 537 455.5 503.5 c 128,-1,3
 476 470 476 470 477 433 c 1,4,-1
 293 339 l 2,5,6
 258 320 258 320 208 303 c 1,7,-1
 208 295 l 1,8,9
 258 278 258 278 293 259 c 2,10,-1
 477 165 l 1,11,12
 474 128 474 128 453.5 93 c 128,-1,13
 433 58 433 58 405 43 c 1,14,-1
 51 240 l 1,15,16
 36 300 36 300 51 358 c 1,0,-1
EndSplineSet
EndChar

StartChar: greater
Encoding: 62 62 100
Width: 530
Flags: HMW
HStem: 535 20G<125 125>
VStem: 322 163
LayerCount: 2
Fore
SplineSet
479 241 m 1,0,-1
 124 45 l 1,1,2
 95 61 95 61 74.5 94.5 c 128,-1,3
 54 128 54 128 53 165 c 1,4,-1
 237 260 l 2,5,6
 277 280 277 280 322 295 c 1,7,-1
 322 303 l 1,8,9
 272 320 272 320 237 339 c 2,10,-1
 53 433 l 1,11,12
 56 470 56 470 76.5 505 c 128,-1,13
 97 540 97 540 125 555 c 1,14,-1
 479 359 l 1,15,16
 493 297 493 297 479 241 c 1,0,-1
EndSplineSet
EndChar

StartChar: plus
Encoding: 43 43 101
Width: 530
Flags: HMW
HStem: 237 125<53 132 53 132 398 477> 494 20G<199 199 331 331>
VStem: 199 132<85 170 85 182.5 430 514>
LayerCount: 2
Fore
SplineSet
200 361 m 1,0,-1
 199 430 l 1,1,-1
 199 514 l 1,2,3
 227 520 227 520 265 520 c 128,-1,4
 303 520 303 520 331 514 c 1,5,-1
 331 430 l 1,6,-1
 330 361 l 1,7,-1
 398 362 l 1,8,-1
 477 362 l 1,9,10
 484 330 484 330 484 297.5 c 128,-1,11
 484 265 484 265 477 237 c 1,12,-1
 398 237 l 1,13,-1
 330 238 l 1,14,-1
 331 170 l 1,15,-1
 331 85 l 1,16,17
 303 79 303 79 265 79 c 128,-1,18
 227 79 227 79 199 85 c 1,19,-1
 199 170 l 1,20,-1
 200 238 l 1,21,-1
 132 237 l 1,22,-1
 53 237 l 1,23,24
 46 264 46 264 46 299 c 128,-1,25
 46 334 46 334 53 362 c 1,26,-1
 132 362 l 1,27,-1
 200 361 l 1,0,-1
EndSplineSet
EndChar

StartChar: plusminus
Encoding: 177 177 102
Width: 530
Flags: HMW
HStem: 0 117<63 467 63 467> 309 112<63 135 63 135 395 467> 532 20G<201 201 330 330>
VStem: 201 129<179 240 179 252 492 552>
LayerCount: 2
Fore
SplineSet
202 420 m 1,0,-1
 201 492 l 1,1,-1
 201 552 l 1,2,3
 227 558 227 558 265.5 558 c 128,-1,4
 304 558 304 558 330 552 c 1,5,-1
 330 492 l 1,6,7
 329 420 l 1,8,-1
 395 421 l 1,9,-1
 467 421 l 1,10,11
 472 393 472 393 472 365.5 c 128,-1,12
 472 338 472 338 467 309 c 1,13,-1
 395 309 l 1,14,-1
 329 310 l 1,15,-1
 330 240 l 1,16,-1
 330 179 l 1,17,18
 304 173 304 173 265.5 173 c 128,-1,19
 227 173 227 173 201 179 c 1,20,-1
 201 240 l 1,21,-1
 202 310 l 1,22,-1
 135 309 l 1,23,-1
 63 309 l 1,24,25
 58 338 58 338 58 366 c 128,-1,26
 58 394 58 394 63 421 c 1,27,-1
 135 421 l 1,28,-1
 202 420 l 1,0,-1
467 0 m 1,29,-1
 63 0 l 1,30,31
 58 28 58 28 58 58 c 128,-1,32
 58 88 58 88 63 117 c 1,33,-1
 467 117 l 1,34,35
 472 88 472 88 472 58 c 128,-1,36
 472 28 472 28 467 0 c 1,29,-1
EndSplineSet
EndChar

StartChar: hyphen
Encoding: 45 45 103
Width: 376
Flags: HMW
HStem: 207 125<47 329 47 329>
VStem: 47 282<207 207 207 332>
LayerCount: 2
Fore
SplineSet
329 207 m 1,0,-1
 47 207 l 1,1,2
 41 232 41 232 41 269.5 c 0,3,4
 41 307 41 307 47 332 c 1,5,-1
 329 332 l 1,6,7
 335 307 335 307 335 269.5 c 0,8,9
 335 232 335 232 329 207 c 1,0,-1
EndSplineSet
EndChar

StartChar: equal
Encoding: 61 61 104
Width: 530
Flags: HMW
HStem: 123 125<53 477 53 477> 352 125<53 477 53 477>
VStem: 46 438<179 193 408 422>
LayerCount: 2
Fore
SplineSet
477 123 m 1,0,-1
 53 123 l 1,1,2
 46 148 46 148 46 185.5 c 0,3,4
 46 223 46 223 53 248 c 1,5,-1
 477 248 l 1,6,7
 484 224 484 224 484 186 c 128,-1,8
 484 148 484 148 477 123 c 1,0,-1
477 352 m 1,9,-1
 53 352 l 1,10,11
 46 376 46 376 46 414 c 0,12,13
 46 452 46 452 53 477 c 1,14,-1
 477 477 l 1,15,16
 484 452 484 452 484 414 c 0,17,18
 484 376 484 376 477 352 c 1,9,-1
EndSplineSet
EndChar

StartChar: multiply
Encoding: 215 215 105
Width: 530
Flags: HMW
HStem: 486 20G<381 381> 487 20G<147 147>
VStem: 57 415<183 183 183 416>
LayerCount: 2
Fore
SplineSet
264 209 m 1,0,-1
 147 91 l 1,1,2
 117 107 117 107 94 130 c 128,-1,3
 71 153 71 153 57 183 c 1,4,-1
 175 299 l 1,5,-1
 57 416 l 1,6,7
 72 448 72 448 97 472.5 c 128,-1,8
 122 497 122 497 147 507 c 1,9,-1
 222 433 l 1,10,-1
 264 389 l 1,11,-1
 381 506 l 1,12,13
 406 496 406 496 430.5 472 c 128,-1,14
 455 448 455 448 472 416 c 1,15,-1
 354 299 l 1,16,-1
 472 183 l 1,17,18
 456 151 456 151 435 129.5 c 128,-1,19
 414 108 414 108 381 92 c 1,20,-1
 307 167 l 1,21,-1
 264 209 l 1,0,-1
EndSplineSet
EndChar

StartChar: divide
Encoding: 247 247 106
Width: 530
Flags: HMW
HStem: 68 105<198 198 331 331> 237 125<53 477 53 477> 425 106<198 198 331 331>
VStem: 187 144
LayerCount: 2
Fore
SplineSet
187 478 m 128,-1,1
 187 507 187 507 198 531 c 1,2,3
 226 545 226 545 266 545 c 128,-1,4
 306 545 306 545 331 531 c 1,5,6
 343 509 343 509 343 478.5 c 128,-1,7
 343 448 343 448 331 425 c 1,8,9
 306 411 306 411 264.5 411 c 128,-1,10
 223 411 223 411 198 425 c 1,11,0
 187 449 187 449 187 478 c 128,-1,1
198 68 m 1,12,13
 187 90 187 90 187 119.5 c 128,-1,14
 187 149 187 149 198 173 c 1,15,16
 223 187 223 187 266 187 c 128,-1,17
 309 187 309 187 331 173 c 1,18,19
 343 150 343 150 343 119.5 c 128,-1,20
 343 89 343 89 331 68 c 1,21,22
 308 53 308 53 265 53 c 128,-1,23
 222 53 222 53 198 68 c 1,12,13
477 237 m 1,24,-1
 53 237 l 1,25,26
 46 262 46 262 46 300 c 128,-1,27
 46 338 46 338 53 362 c 1,28,-1
 477 362 l 1,29,30
 484 338 484 338 484 300 c 128,-1,31
 484 262 484 262 477 237 c 1,24,-1
EndSplineSet
EndChar

StartChar: logicalnot
Encoding: 172 172 107
Width: 530
Flags: HMW
HStem: 242 125<48 278 48 472>
VStem: 346 133<125 180 180 191>
LayerCount: 2
Fore
SplineSet
347 243 m 1,0,-1
 278 242 l 1,1,-1
 48 242 l 1,2,3
 41 266 41 266 41 304 c 128,-1,4
 41 342 41 342 48 367 c 1,5,-1
 472 367 l 1,6,-1
 479 360 l 1,7,-1
 479 125 l 1,8,9
 454 119 454 119 415.5 119 c 128,-1,10
 377 119 377 119 346 125 c 1,11,-1
 346 180 l 1,12,-1
 347 243 l 1,0,-1
EndSplineSet
EndChar

StartChar: mu
Encoding: 956 956 108
Width: 552
Flags: HMW
HStem: -219 21G<109 160.5> -9 131<251.5 276> 479 20G<59 59 213 213 332 332 489 489>
VStem: 59 154<188 499 188 499 188 499> 332 157<153 499>
LayerCount: 2
Fore
SplineSet
489 499 m 1,0,-1
 489 144 l 2,1,2
 489 90 489 90 517 70 c 1,3,4
 512 50 512 50 498 26.5 c 128,-1,5
 484 3 484 3 469 -8 c 1,6,7
 395 -7 395 -7 358 50 c 1,8,9
 320 -9 320 -9 253 -9 c 0,10,11
 229 -9 229 -9 203 3 c 1,12,-1
 203 -113 l 2,13,14
 203 -166 203 -166 188 -192.5 c 128,-1,15
 173 -219 173 -219 124.5 -219 c 0,16,17
 76 -219 76 -219 34 -187 c 1,18,19
 59 -152 59 -152 59 -86 c 2,20,-1
 59 499 l 1,21,22
 92 505 92 505 135 505 c 0,23,24
 178 505 178 505 213 499 c 1,25,-1
 213 188 l 1,26,27
 215 122 215 122 271 122 c 0,28,29
 306 122 306 122 332 153 c 1,30,-1
 332 499 l 1,31,32
 365 505 365 505 409.5 505 c 0,33,34
 454 505 454 505 489 499 c 1,0,-1
EndSplineSet
EndChar

StartChar: percent
Encoding: 37 37 109
Width: 990
Flags: HMW
HStem: -20 20G<231 231 231 381> -13 95<753 795 753 798> 262 95<195 237.5 195 240.5> 326 95<753 795> 601 95<195 237.5>
VStem: 44 126<448.5 511> 263 125<448.5 511 448.5 513.5> 602 125<172.5 235.5> 820 126<172.5 235.5 172.5 238>
LayerCount: 2
Fore
SplineSet
774 -13 m 0,0,1
 602 -13 602 -13 602 204 c 0,2,3
 602 324 602 324 653 376 c 1,4,5
 699 421 699 421 774 421 c 128,-1,6
 849 421 849 421 893 376 c 1,7,8
 946 324 946 324 946 202.5 c 128,-1,9
 946 81 946 81 893 32 c 1,10,11
 851 -13 851 -13 774 -13 c 0,0,1
736 295 m 128,-1,13
 727 264 727 264 727 214.5 c 128,-1,14
 727 165 727 165 729.5 141.5 c 128,-1,15
 732 118 732 118 743 100 c 128,-1,16
 754 82 754 82 774 82 c 128,-1,17
 794 82 794 82 804.5 100 c 128,-1,18
 815 118 815 118 817.5 141 c 128,-1,19
 820 164 820 164 820 199 c 128,-1,20
 820 234 820 234 818.5 252.5 c 128,-1,21
 817 271 817 271 812.5 289.5 c 0,22,23
 803.621621622 326 803.621621622 326 774.310810811 326 c 128,-1,12
 745 326 745 326 736 295 c 128,-1,13
388 480 m 0,24,25
 388 262 388 262 216 262 c 0,26,27
 140 262 140 262 96 307 c 0,28,29
 44 359 44 359 44 479.5 c 128,-1,30
 44 600 44 600 93 648 c 128,-1,31
 142 696 142 696 216.5 696 c 128,-1,32
 291 696 291 696 336 651 c 0,33,34
 388 600 388 600 388 480 c 0,24,25
172.5 416.5 m 128,-1,36
 175 393 175 393 185.5 375 c 128,-1,37
 196 357 196 357 216 357 c 0,38,39
 245 357 245 357 254 388 c 128,-1,40
 263 419 263 419 263 464 c 128,-1,41
 263 509 263 509 261.5 527.5 c 128,-1,42
 260 546 260 546 255.5 564.5 c 0,43,44
 246.621621622 601 246.621621622 601 216 601 c 0,45,46
 186.5 601 186.5 601 177.5 565 c 0,47,48
 170 535 170 535 170 487.5 c 128,-1,35
 170 440 170 440 172.5 416.5 c 128,-1,36
231 0 m 1,49,-1
 609 683 l 1,50,51
 642 690 642 690 690 689.5 c 128,-1,52
 738 689 738 689 759 683 c 1,53,-1
 381 0 l 1,54,55
 348 -7 348 -7 299.5 -6.5 c 128,-1,56
 251 -6 251 -6 231 0 c 1,49,-1
EndSplineSet
Ligature2: "'frac' Diagonal Fractions lookup 4 subtable" zero fraction zero
Ligature2: "'frac' Diagonal Fractions lookup 4 subtable" zero slash zero
EndChar

StartChar: numbersign
Encoding: 35 35 110
Width: 718
Flags: HMW
HStem: 1 11 132 123<27 122 27 149 285 377 27 258 540 641> 408 123<81 183 81 211 347 438 81 319 602 694> 651 11
VStem: 18 686
LayerCount: 2
Fore
SplineSet
466 531 m 1,0,-1
 493 651 l 1,1,2
 518 662 518 662 562 662 c 128,-1,3
 606 662 606 662 629 651 c 1,4,-1
 602 531 l 1,5,-1
 694 531 l 1,6,7
 704 505 704 505 704 470 c 128,-1,8
 704 435 704 435 694 408 c 1,9,-1
 574 408 l 1,10,-1
 540 255 l 1,11,-1
 641 255 l 1,12,13
 650 229 650 229 650 194 c 128,-1,14
 650 159 650 159 641 132 c 1,15,-1
 513 132 l 1,16,-1
 486 12 l 1,17,18
 460 1 460 1 416 1 c 128,-1,19
 372 1 372 1 350 12 c 1,20,-1
 377 132 l 1,21,-1
 258 132 l 1,22,-1
 231 12 l 1,23,24
 206 1 206 1 162 1 c 128,-1,25
 118 1 118 1 95 12 c 1,26,-1
 122 132 l 1,27,-1
 27 132 l 1,28,29
 18 159 18 159 18 194 c 128,-1,30
 18 229 18 229 27 255 c 1,31,-1
 149 255 l 1,32,-1
 183 408 l 1,33,-1
 81 408 l 1,34,35
 71 435 71 435 71 470 c 128,-1,36
 71 505 71 505 81 531 c 1,37,-1
 211 531 l 1,38,-1
 238 651 l 1,39,40
 264 662 264 662 307.5 662 c 128,-1,41
 351 662 351 662 374 651 c 1,42,-1
 347 531 l 1,43,-1
 466 531 l 1,0,-1
319 408 m 1,44,-1
 285 255 l 1,45,-1
 404 255 l 1,46,-1
 438 408 l 1,47,-1
 319 408 l 1,44,-1
EndSplineSet
EndChar

StartChar: asterisk
Encoding: 42 42 111
Width: 521
Flags: HMW
HStem: 543 20G 544 20G 730 9
VStem: 199 121
LayerCount: 2
Fore
SplineSet
36 522 m 1,0,1
 34 545 34 545 46.5 584 c 128,-1,2
 59 623 59 623 75 641 c 1,3,-1
 135 618 l 2,4,5
 167 605 167 605 224 564 c 1,6,7
 203 628 203 628 201 665 c 2,8,-1
 197 730 l 1,9,10
 218 739 218 739 259 739 c 128,-1,11
 300 739 300 739 322 730 c 1,12,-1
 319 665 l 2,13,14
 317 631 317 631 295 563 c 1,15,16
 345 599 345 599 385 616 c 2,17,-1
 445 640 l 1,18,19
 460 622 460 622 472.5 584 c 128,-1,20
 485 546 485 546 484 522 c 1,21,-1
 421 505 l 2,22,23
 390 496 390 496 317 496 c 1,24,25
 368 459 368 459 395 427 c 2,26,-1
 436 378 l 1,27,28
 424 358 424 358 391.5 333.5 c 128,-1,29
 359 309 359 309 336 304 c 1,30,-1
 300 358 l 2,31,32
 283 384 283 384 260 454 c 1,33,34
 240 392 240 392 218 359 c 1,35,-1
 184 305 l 1,36,37
 161 310 161 310 128 333.5 c 128,-1,38
 95 357 95 357 83 378 c 1,39,-1
 124 428 l 2,40,41
 146 455 146 455 202 496 c 1,42,43
 133 496 133 496 99 506 c 1,44,-1
 36 522 l 1,0,1
EndSplineSet
EndChar

StartChar: endash
Encoding: 8211 8211 112
Width: 555
Flags: HMW
HStem: 206 119<62 494 62 494>
VStem: 56 445<259 273>
LayerCount: 2
Fore
SplineSet
494 206 m 1,0,-1
 62 206 l 1,1,2
 56 231 56 231 56 265.5 c 0,3,4
 56 300 56 300 62 325 c 1,5,-1
 494 325 l 1,6,7
 501 301 501 301 501 266 c 128,-1,8
 501 231 501 231 494 206 c 1,0,-1
EndSplineSet
EndChar

StartChar: emdash
Encoding: 8212 8212 113
Width: 816
Flags: HMW
HStem: 206 119<74 742 74 742>
VStem: 67 681<259 273>
LayerCount: 2
Fore
SplineSet
742 206 m 1,0,-1
 74 206 l 1,1,2
 67 231 67 231 67 265.5 c 0,3,4
 67 300 67 300 74 325 c 1,5,-1
 742 325 l 1,6,7
 748 300 748 300 748 265.5 c 0,8,9
 748 231 748 231 742 206 c 1,0,-1
EndSplineSet
EndChar

StartChar: slash
Encoding: 47 47 114
Width: 451
Flags: HMW
HStem: -120 888<134 315>
VStem: 1 447
LayerCount: 2
Fore
SplineSet
1 -69 m 1,0,-1
 315 768 l 1,1,2
 397 757 397 757 448 717 c 1,3,-1
 134 -120 l 1,4,5
 52 -109 52 -109 1 -69 c 1,0,-1
EndSplineSet
EndChar

StartChar: backslash
Encoding: 92 92 115
Width: 451
Flags: HMW
HStem: -120 888<136 317>
VStem: 3 447
LayerCount: 2
Fore
SplineSet
317 -120 m 1,0,-1
 3 717 l 1,1,2
 57 759 57 759 136 768 c 1,3,-1
 450 -69 l 1,4,5
 399 -109 399 -109 317 -120 c 1,0,-1
EndSplineSet
EndChar

StartChar: bar
Encoding: 124 124 116
Width: 270
Flags: HMW
HStem: -149 929<128.5 146>
VStem: 62 146<-142 773 -142 773>
LayerCount: 2
Fore
SplineSet
62 -142 m 1,0,-1
 62 773 l 1,1,2
 89 780 89 780 134.5 780 c 0,3,4
 180 780 180 780 208 773 c 1,5,-1
 208 -142 l 1,6,7
 180 -149 180 -149 134.5 -149 c 0,8,9
 89 -149 89 -149 62 -142 c 1,0,-1
EndSplineSet
EndChar

StartChar: brokenbar
Encoding: 166 166 117
Width: 264
Flags: HMW
HStem: -149 929<125.5 143>
VStem: 60 144<-142 245 -142 245 386 773>
LayerCount: 2
Fore
SplineSet
60 -142 m 1,0,-1
 60 245 l 1,1,2
 87 252 87 252 131.5 252 c 0,3,4
 176 252 176 252 204 245 c 1,5,-1
 204 -142 l 1,6,7
 176 -149 176 -149 131.5 -149 c 0,8,9
 87 -149 87 -149 60 -142 c 1,0,-1
60 386 m 1,10,-1
 60 773 l 1,11,12
 87 780 87 780 131.5 780 c 0,13,14
 176 780 176 780 204 773 c 1,15,-1
 204 386 l 1,16,17
 176 379 176 379 131.5 379 c 0,18,19
 87 379 87 379 60 386 c 1,10,-1
EndSplineSet
EndChar

StartChar: paragraph
Encoding: 182 182 118
Width: 751
Flags: HMW
HStem: -159 117<171.5 199.5 169.5 238> 549 134<696 705 705 732>
VStem: 276 156<64 95 95 236 236 236> 493 158<-130 551 -130 676 -130 676>
LayerCount: 2
Fore
SplineSet
276 64 m 2,0,-1
 276 236 l 1,1,-1
 264 236 l 2,2,3
 159 236 159 236 92.5 294.5 c 128,-1,4
 26 353 26 353 26 466.5 c 0,5,6
 26 580 26 580 93 634.5 c 128,-1,7
 160 689 160 689 273 689 c 0,8,9
 282 689 282 689 425 684 c 1,10,-1
 432 677 l 1,11,-1
 432 95 l 2,12,13
 432 28 432 28 421.5 -16.5 c 128,-1,14
 411 -61 411 -61 381 -95 c 0,15,16
 324 -159 324 -159 201 -159 c 0,17,18
 120 -159 120 -159 54 -135 c 1,19,20
 53 -111 53 -111 62 -77.5 c 128,-1,21
 71 -44 71 -44 86 -22 c 1,22,23
 148 -42 148 -42 190 -42 c 0,24,25
 232 -42 232 -42 254 -19 c 128,-1,26
 276 4 276 4 276 64 c 2,0,-1
493 -130 m 1,27,-1
 493 676 l 1,28,-1
 500 683 l 1,29,-1
 732 683 l 1,30,31
 740 660 740 660 740 616 c 128,-1,32
 740 572 740 572 732 549 c 1,33,-1
 705 549 l 2,34,35
 687 549 687 549 651 551 c 1,36,-1
 651 -130 l 1,37,38
 621 -137 621 -137 571.5 -137 c 0,39,40
 522 -137 522 -137 493 -130 c 1,27,-1
EndSplineSet
EndChar

StartChar: braceleft
Encoding: 123 123 119
Width: 399
Flags: HMW
HStem: -180 1016<357 357>
VStem: 38 160 129 157<8 9 9 167 487 489 489 646>
LayerCount: 2
Fore
SplineSet
45 377 m 1,0,1
 81 384 81 384 105 415.5 c 128,-1,2
 129 447 129 447 129 487 c 2,3,-1
 129 647 l 2,4,5
 129 723 129 723 173 768 c 128,-1,6
 217 813 217 813 291 825 c 2,7,-1
 357 836 l 1,8,9
 372 819 372 819 382 786 c 128,-1,10
 392 753 392 753 387 735 c 1,11,-1
 326 714 l 2,12,13
 310 709 310 709 298 691 c 128,-1,14
 286 673 286 673 286 646 c 2,15,-1
 286 489 l 2,16,17
 286 437 286 437 261.5 393 c 128,-1,18
 237 349 237 349 198 332 c 1,19,-1
 198 324 l 1,20,21
 237 307 237 307 261.5 263 c 128,-1,22
 286 219 286 219 286 167 c 2,23,-1
 286 9 l 2,24,25
 286 -18 286 -18 298 -36 c 128,-1,26
 310 -54 310 -54 326 -59 c 2,27,-1
 387 -80 l 1,28,29
 392 -98 392 -98 382 -130.5 c 128,-1,30
 372 -163 372 -163 357 -180 c 1,31,-1
 291 -170 l 2,32,33
 217 -158 217 -158 173 -112.5 c 128,-1,34
 129 -67 129 -67 129 8 c 2,35,-1
 129 169 l 2,36,37
 129 208 129 208 105 239.5 c 128,-1,38
 81 271 81 271 45 278 c 1,39,40
 38 297 38 297 38 328 c 128,-1,41
 38 359 38 359 45 377 c 1,0,1
EndSplineSet
EndChar

StartChar: braceright
Encoding: 125 125 120
Width: 399
Flags: HMW
HStem: -180 1016<41 41>
VStem: 113 156<9 167 167 169 489 646 646 647>
LayerCount: 2
Fore
SplineSet
354 377 m 1,0,1
 361 359 361 359 361 328 c 128,-1,2
 361 297 361 297 354 278 c 1,3,4
 317 271 317 271 293 240 c 128,-1,5
 269 209 269 209 269 169 c 2,6,-1
 269 8 l 2,7,8
 269 -67 269 -67 225 -112.5 c 128,-1,9
 181 -158 181 -158 108 -170 c 1,10,-1
 41 -180 l 1,11,12
 26 -163 26 -163 16.5 -130.5 c 128,-1,13
 7 -98 7 -98 12 -80 c 1,14,-1
 72 -59 l 2,15,16
 89 -54 89 -54 101 -36 c 128,-1,17
 113 -18 113 -18 113 9 c 2,18,-1
 113 167 l 2,19,20
 113 219 113 219 137 263 c 128,-1,21
 161 307 161 307 201 324 c 1,22,-1
 201 332 l 1,23,24
 161 349 161 349 137 392.5 c 128,-1,25
 113 436 113 436 113 489 c 2,26,-1
 113 646 l 2,27,28
 113 673 113 673 101 691 c 128,-1,29
 89 709 89 709 72 714 c 2,30,-1
 12 735 l 1,31,32
 7 753 7 753 16.5 786 c 128,-1,33
 26 819 26 819 41 836 c 1,34,-1
 108 825 l 2,35,36
 181 813 181 813 225 768 c 128,-1,37
 269 723 269 723 269 647 c 2,38,-1
 269 487 l 2,39,40
 269 447 269 447 293 415.5 c 128,-1,41
 317 384 317 384 354 377 c 1,0,1
EndSplineSet
EndChar

StartChar: parenleft
Encoding: 40 40 121
Width: 375
Flags: HMW
HStem: -198 1041<265 265>
VStem: 59 162<250 394.5 250 411>
LayerCount: 2
Fore
SplineSet
255 552.5 m 128,-1,1
 221 436 221 436 221 322.5 c 128,-1,2
 221 209 221 209 255 92.5 c 128,-1,3
 289 -24 289 -24 355 -117 c 1,4,5
 327 -177 327 -177 265 -198 c 1,6,7
 166 -105 166 -105 112.5 38 c 128,-1,8
 59 181 59 181 59 322 c 128,-1,9
 59 463 59 463 112.5 606 c 128,-1,10
 166 749 166 749 265 843 c 1,11,12
 327 822 327 822 355 762 c 1,13,0
 289 669 289 669 255 552.5 c 128,-1,1
EndSplineSet
EndChar

StartChar: parenright
Encoding: 41 41 122
Width: 375
Flags: HMW
HStem: -198 1041<109 109>
VStem: 154 162<250 394.5>
LayerCount: 2
Fore
SplineSet
119.5 92 m 128,-1,1
 154 209 154 209 154 322.5 c 128,-1,2
 154 436 154 436 119.5 553 c 128,-1,3
 85 670 85 670 19 762 c 1,4,5
 48 822 48 822 109 843 c 1,6,7
 209 749 209 749 262.5 606 c 128,-1,8
 316 463 316 463 316 322 c 128,-1,9
 316 181 316 181 262.5 38 c 128,-1,10
 209 -105 209 -105 109 -198 c 1,11,12
 48 -177 48 -177 19 -117 c 1,13,0
 85 -25 85 -25 119.5 92 c 128,-1,1
EndSplineSet
EndChar

StartChar: bracketleft
Encoding: 91 91 123
Width: 395
Flags: HMW
HStem: -159 112 711 112
VStem: 98 152<-46 710 -46 820 -46 820>
LayerCount: 2
Fore
SplineSet
356 -155 m 1,0,-1
 107 -164 l 1,1,-1
 98 -156 l 1,2,-1
 98 820 l 1,3,-1
 107 828 l 1,4,-1
 356 819 l 1,5,6
 362 804 362 804 362 773 c 0,7,8
 362 742 362 742 350 713 c 1,9,-1
 250 710 l 1,10,-1
 250 -46 l 1,11,-1
 350 -49 l 1,12,13
 362 -75 362 -75 362 -107.5 c 0,14,15
 362 -140 362 -140 356 -155 c 1,0,-1
EndSplineSet
EndChar

StartChar: bracketright
Encoding: 93 93 124
Width: 395
Flags: HMW
HStem: -159 112 711 112
VStem: 145 152<-46 710 710 710>
LayerCount: 2
Fore
SplineSet
288 -164 m 1,0,-1
 38 -155 l 1,1,2
 33 -138 33 -138 33 -105.5 c 0,3,4
 33 -73 33 -73 44 -49 c 1,5,-1
 145 -46 l 1,6,-1
 145 710 l 1,7,-1
 44 713 l 1,8,9
 33 739 33 739 33 770.5 c 0,10,11
 33 802 33 802 38 819 c 1,12,-1
 288 828 l 1,13,-1
 297 820 l 1,14,-1
 297 -156 l 1,15,-1
 288 -164 l 1,0,-1
EndSplineSet
EndChar

StartChar: currency
Encoding: 164 164 125
Width: 591
Flags: HMW
HStem: 112 115<273.5 314> 440 115<273 315 273 323.5>
VStem: 63 153<311 354.5> 373 153<310.5 354.5 310.5 362.5>
LayerCount: 2
Fore
SplineSet
91 218 m 1,0,1
 63 268 63 268 63 333.5 c 128,-1,2
 63 399 63 399 91 448 c 1,3,-1
 22 525 l 1,4,5
 48 572 48 572 101 604 c 1,6,-1
 182 531 l 1,7,8
 230 555 230 555 291.5 555 c 128,-1,9
 353 555 353 555 406 531 c 1,10,-1
 490 607 l 1,11,12
 538 576 538 576 568 528 c 1,13,-1
 497 447 l 1,14,15
 526 398 526 398 526 333 c 128,-1,16
 526 268 526 268 496 216 c 1,17,-1
 566 139 l 1,18,19
 536 89 536 89 487 60 c 1,20,-1
 403 134 l 1,21,22
 356 112 356 112 293.5 112 c 128,-1,23
 231 112 231 112 184 134 c 1,24,-1
 101 61 l 1,25,26
 59 85 59 85 22 140 c 1,27,-1
 91 218 l 1,0,1
216 333 m 0,28,29
 216 286 216 286 234.5 256.5 c 128,-1,30
 253 227 253 227 294 227 c 0,31,32
 373 227 373 227 373 333.5 c 128,-1,33
 373 440 373 440 294.5 440 c 128,-1,34
 216 440 216 440 216 333 c 0,28,29
EndSplineSet
Substitution2: "'c2sc' Capitals to Small Capitals lookup 3 subtable" currency.smcp
Substitution2: "'aalt' Access All Alternates lookup 0 subtable" currency.smcp
EndChar

StartChar: dollar
Encoding: 36 36 126
Width: 510
Flags: HMW
HStem: -41 196<196 275.5 225.5 308> 487 203<200 280.5>
VStem: 196 112<-41 35 -41 35> 200 112<611 690 611 690 611 690>
LayerCount: 2
Fore
SplineSet
22 95 m 1,0,1
 23 124 23 124 40 159.5 c 128,-1,2
 57 195 57 195 79 210 c 1,3,4
 183 155 183 155 257 155 c 0,5,6
 286 155 286 155 303 165.5 c 128,-1,7
 320 176 320 176 320 196 c 0,8,9
 320 227 320 227 275 244 c 2,10,-1
 180 278 l 1,11,12
 46 329 46 329 46 439 c 0,13,14
 46 505 46 505 88.5 551 c 128,-1,15
 131 597 131 597 200 610 c 1,16,-1
 200 690 l 1,17,18
 219 695 219 695 256 695 c 128,-1,19
 293 695 293 695 312 690 c 1,20,-1
 312 611 l 1,21,22
 383 603 383 603 470 568 c 1,23,24
 470 534 470 534 455 500.5 c 128,-1,25
 440 467 440 467 416 447 c 1,26,27
 316 487 316 487 262 487 c 0,28,29
 208 487 208 487 208 449 c 0,30,31
 208 435 208 435 219 427 c 128,-1,32
 230 419 230 419 254 410 c 2,33,-1
 346 375 l 2,34,35
 485 322 485 322 485 202 c 0,36,37
 485 136 485 136 436 91.5 c 128,-1,38
 387 47 387 47 308 35 c 1,39,-1
 308 -41 l 1,40,41
 293 -45 293 -45 252 -45 c 128,-1,42
 211 -45 211 -45 196 -41 c 1,43,-1
 196 35 l 1,44,45
 87 50 87 50 22 95 c 1,0,1
EndSplineSet
Substitution2: "'c2sc' Capitals to Small Capitals lookup 3 subtable" dollar.smcp
Substitution2: "'aalt' Access All Alternates lookup 0 subtable" dollar.smcp
EndChar

StartChar: cent
Encoding: 162 162 127
Width: 463
Flags: HMW
HStem: -33 216<185 290 245 297> 474 208<188 267>
VStem: 185 112<-33 65 -33 66 -33 66>
LayerCount: 2
Fore
SplineSet
185 -33 m 1,0,-1
 185 66 l 1,1,2
 99 86 99 86 62 157 c 128,-1,3
 25 228 25 228 25 331.5 c 0,4,5
 25 435 25 435 70.5 499 c 128,-1,6
 116 563 116 563 188 582 c 1,7,-1
 188 682 l 1,8,9
 205 687 205 687 242.5 687 c 0,10,11
 280 687 280 687 300 682 c 1,12,-1
 300 585 l 1,13,14
 363 572 363 572 401 530 c 128,-1,15
 439 488 439 488 439 432 c 0,16,17
 439 347 439 347 356 347 c 0,18,19
 324 347 324 347 300 354 c 1,20,21
 300 474 300 474 242 474 c 0,22,23
 209 474 209 474 196.5 438.5 c 128,-1,24
 184 403 184 403 184 325 c 0,25,26
 184 247 184 247 206.5 215 c 128,-1,27
 229 183 229 183 273 183 c 0,28,29
 317 183 317 183 378 225 c 1,30,31
 396 212 396 212 413.5 187 c 128,-1,32
 431 162 431 162 436 140 c 1,33,34
 387 83 387 83 297 65 c 1,35,-1
 297 -33 l 1,36,37
 281 -37 281 -37 240 -37 c 0,38,39
 199 -37 199 -37 185 -33 c 1,0,-1
EndSplineSet
Substitution2: "'c2sc' Capitals to Small Capitals lookup 3 subtable" cent.smcp
Substitution2: "'aalt' Access All Alternates lookup 0 subtable" cent.smcp
EndChar

StartChar: sterling
Encoding: 163 163 128
Width: 539
Flags: HMW
HStem: -2 129<389 404> 255 111<47 101 47 119 47 101 388 414> 535 128<274.5 318.5>
VStem: 66 152<457 487 446.5 520>
LayerCount: 2
Fore
SplineSet
245 365 m 1,0,-1
 414 366 l 1,1,2
 422 345 422 345 422 311 c 128,-1,3
 422 277 422 277 414 255 c 1,4,5
 310 255 310 255 259 256 c 1,6,7
 250 181 250 181 208 123 c 1,8,-1
 211 120 l 1,9,10
 302 127 302 127 389 127 c 2,11,-1
 512 127 l 1,12,13
 512 96 512 96 509 76 c 0,14,15
 503 39 503 39 475.5 18.5 c 128,-1,16
 448 -2 448 -2 404 -2 c 2,17,-1
 65 -2 l 1,18,19
 47 78 47 78 47 101.5 c 128,-1,20
 47 125 47 125 65 150 c 2,21,-1
 78 169 l 1,22,23
 112 224 112 224 119 255 c 1,24,-1
 47 255 l 1,25,26
 39 277 39 277 39 311 c 128,-1,27
 39 345 39 345 47 366 c 1,28,-1
 101 366 l 1,29,30
 66 436 66 436 66 478 c 0,31,32
 66 549 66 549 124 606 c 128,-1,33
 182 663 182 663 286 663 c 0,34,35
 350 663 350 663 407 639 c 128,-1,36
 464 615 464 615 499 582 c 1,37,38
 494 552 494 552 471 524.5 c 128,-1,39
 448 497 448 497 419 487 c 1,40,41
 360 535 360 535 297 535 c 0,42,43
 262 535 262 535 240 516.5 c 128,-1,44
 218 498 218 498 218 464 c 0,45,46
 218 441 218 441 223.5 424.5 c 128,-1,47
 229 408 229 408 236.5 388.5 c 128,-1,48
 244 369 244 369 245 365 c 1,0,-1
EndSplineSet
Substitution2: "'c2sc' Capitals to Small Capitals lookup 3 subtable" sterling.smcp
Substitution2: "'aalt' Access All Alternates lookup 0 subtable" sterling.smcp
EndChar

StartChar: Euro
Encoding: 8364 8364 129
Width: 561
Flags: HMW
HStem: -15 125<322.5 369> 195 96<12 84 12 95 12 84 251 412 251 251> 356 96<12 84 12 94 251 412> 538 125<322.5 369.5 254 372>
VStem: 84 154<291 322 291 356>
LayerCount: 2
Fore
SplineSet
491 483 m 1,0,1
 418 538 418 538 346 538 c 128,-1,2
 274 538 274 538 251 452 c 1,3,-1
 412 452 l 1,4,5
 418 428 418 428 418 403.5 c 128,-1,6
 418 379 418 379 412 356 c 1,7,-1
 238 356 l 1,8,-1
 238 291 l 1,9,-1
 412 291 l 1,10,11
 418 267 418 267 418 242.5 c 128,-1,12
 418 218 418 218 412 195 c 1,13,-1
 251 195 l 1,14,15
 274 110 274 110 345.5 110 c 128,-1,16
 417 110 417 110 491 164 c 1,17,18
 516 150 516 150 533 125 c 128,-1,19
 550 100 550 100 554 73 c 1,20,21
 451 -15 451 -15 326 -15 c 0,22,23
 137 -15 137 -15 95 195 c 1,24,-1
 12 195 l 1,25,26
 6 214 6 214 6 242.5 c 128,-1,27
 6 271 6 271 12 291 c 1,28,-1
 84 291 l 1,29,30
 83 301 83 301 83 323 c 128,-1,31
 83 345 83 345 84 356 c 1,32,-1
 12 356 l 1,33,34
 6 375 6 375 6 403.5 c 128,-1,35
 6 432 6 432 12 452 c 1,36,-1
 94 452 l 1,37,38
 138 663 138 663 326 663 c 0,39,40
 451 663 451 663 554 575 c 1,41,42
 550 548 550 548 532.5 522 c 128,-1,43
 515 496 515 496 491 483 c 1,0,1
EndSplineSet
Substitution2: "'c2sc' Capitals to Small Capitals lookup 3 subtable" Euro.smcp
Substitution2: "'aalt' Access All Alternates lookup 0 subtable" Euro.smcp
EndChar

StartChar: yen
Encoding: 165 165 130
Width: 548
Flags: HMW
HStem: 149 96<51 189 51 195 51 189 353 494> 311 96<51 116 51 159 51 116 429 494> 639 20G<99 134.5>
VStem: 195 153<0 149 0 149>
LayerCount: 2
Fore
SplineSet
494 149 m 1,0,-1
 348 149 l 1,1,-1
 348 0 l 1,2,3
 317 -6 317 -6 271.5 -6 c 0,4,5
 226 -6 226 -6 195 0 c 1,6,-1
 195 149 l 1,7,-1
 51 149 l 1,8,9
 43 174 43 174 43 196 c 0,10,11
 43 218 43 218 51 245 c 1,12,-1
 189 245 l 1,13,-1
 159 311 l 1,14,-1
 51 311 l 1,15,16
 43 336 43 336 43 358 c 0,17,18
 43 380 43 380 51 407 c 1,19,-1
 116 407 l 1,20,-1
 15 631 l 1,21,22
 69 659 69 659 106 659 c 0,23,24
 143 659 143 659 158.5 647 c 128,-1,25
 174 635 174 635 185 607 c 2,26,-1
 230 496 l 2,27,28
 248 454 248 454 275 362 c 1,29,-1
 281 362 l 1,30,31
 301 433 301 433 330 499 c 2,32,-1
 395 648 l 1,33,34
 421 655 421 655 456.5 655 c 0,35,36
 492 655 492 655 531 646 c 1,37,-1
 537 638 l 1,38,-1
 429 407 l 1,39,-1
 494 407 l 1,40,41
 501 379 501 379 501 358.5 c 0,42,43
 501 338 501 338 494 311 c 1,44,-1
 384 311 l 1,45,-1
 353 245 l 1,46,-1
 494 245 l 1,47,48
 501 217 501 217 501 196.5 c 0,49,50
 501 176 501 176 494 149 c 1,0,-1
EndSplineSet
Substitution2: "'c2sc' Capitals to Small Capitals lookup 3 subtable" yen.smcp
Substitution2: "'aalt' Access All Alternates lookup 0 subtable" yen.smcp
EndChar

StartChar: at
Encoding: 64 64 131
Width: 980
Flags: HMW
HStem: -203 119<387 502> -3 116<467.5 476> 378 108<476 513> 571 115<412 593>
VStem: 39 155<117.5 324.5 117.5 358> 287 150<192.5 273.5 192.5 303.5> 551 144<146 160 160 164 146 361> 795 153<229 384.5>
LayerCount: 2
Fore
SplineSet
696 411 m 1,0,-1
 695 164 l 2,1,2
 695 113 695 113 726 113 c 0,3,4
 795 113 795 113 795 300 c 0,5,6
 795 426 795 426 716.5 498.5 c 128,-1,7
 638 571 638 571 502 571 c 128,-1,8
 366 571 366 571 280 474 c 128,-1,9
 194 377 194 377 194 223 c 128,-1,10
 194 69 194 69 267 -7.5 c 128,-1,11
 340 -84 340 -84 473 -84 c 0,12,13
 572 -84 572 -84 669 -47 c 1,14,15
 708 -89 708 -89 708 -153 c 1,16,17
 660 -174 660 -174 590.5 -188.5 c 128,-1,18
 521 -203 521 -203 461 -203 c 0,19,20
 267 -203 267 -203 153 -97 c 128,-1,21
 39 9 39 9 39 217 c 128,-1,22
 39 425 39 425 171 555.5 c 128,-1,23
 303 686 303 686 501.5 686 c 128,-1,24
 700 686 700 686 824 582 c 128,-1,25
 948 478 948 478 948 296 c 0,26,27
 948 151 948 151 882 75.5 c 128,-1,28
 816 0 816 0 727 0 c 128,-1,29
 638 0 638 0 587 59 c 1,30,31
 521 -3 521 -3 446.5 -3 c 128,-1,32
 372 -3 372 -3 329.5 60 c 128,-1,33
 287 123 287 123 287 233.5 c 128,-1,34
 287 344 287 344 344 415 c 128,-1,35
 401 486 401 486 503 486 c 0,36,37
 559 486 559 486 612.5 464 c 128,-1,38
 666 442 666 442 696 411 c 1,0,-1
448 141 m 128,-1,40
 459 113 459 113 489.5 113 c 128,-1,41
 520 113 520 113 551 146 c 1,42,-1
 551 361 l 1,43,44
 531 378 531 378 503 378 c 0,45,46
 437 378 437 378 437 234 c 0,47,39
 437 169 437 169 448 141 c 128,-1,40
EndSplineSet
EndChar

StartChar: copyright
Encoding: 169 169 132
Width: 789
Flags: HMW
HStem: -22 103<321.5 466.5 321.5 496.5> 148 93<392.5 420.5> 450 86<374.5 411.5> 602 103<321.5 466.5>
VStem: 31 117<268.5 413.5 268.5 443.5> 223 119<308.5 377.5 308.5 413> 438 107<364 452.5> 641 117<268.5 413.5>
LayerCount: 2
Fore
SplineSet
31 341 m 128,-1,1
 31 495 31 495 135.5 600 c 128,-1,2
 240 705 240 705 394 705 c 128,-1,3
 548 705 548 705 653 600 c 128,-1,4
 758 495 758 495 758 341 c 128,-1,5
 758 187 758 187 653 82.5 c 128,-1,6
 548 -22 548 -22 394 -22 c 128,-1,7
 240 -22 240 -22 135.5 82.5 c 128,-1,0
 31 187 31 187 31 341 c 128,-1,1
148 341 m 128,-1,9
 148 231 148 231 217.5 156 c 128,-1,10
 287 81 287 81 394 81 c 128,-1,11
 501 81 501 81 571 156 c 128,-1,12
 641 231 641 231 641 341 c 128,-1,13
 641 451 641 451 571 526.5 c 128,-1,14
 501 602 501 602 394 602 c 128,-1,15
 287 602 287 602 217.5 526.5 c 128,-1,8
 148 451 148 451 148 341 c 128,-1,9
438 364 m 1,16,17
 438 450 438 450 392 450 c 0,18,19
 342 450 342 450 342 345.5 c 0,20,21
 342 241 342 241 416 241 c 0,22,23
 446 241 446 241 498 272 c 1,24,25
 512 262 512 262 524.5 242 c 128,-1,26
 537 222 537 222 539 204 c 1,27,28
 517 181 517 181 475 164.5 c 128,-1,29
 433 148 433 148 396 148 c 0,30,31
 332 148 332 148 291.5 178 c 128,-1,32
 251 208 251 208 237 249 c 128,-1,33
 223 290 223 290 223 342 c 0,34,35
 223 440 223 440 274.5 488 c 128,-1,36
 326 536 326 536 393.5 536 c 0,37,38
 461 536 461 536 503 502.5 c 128,-1,39
 545 469 545 469 545 419 c 0,40,41
 545 358 545 358 481 358 c 0,42,43
 453 358 453 358 438 364 c 1,16,17
EndSplineSet
EndChar

StartChar: registered
Encoding: 174 174 133
Width: 602
Flags: HMW
HStem: 196 82<247.5 353 247.5 377> 436 59<274 280 274 296> 544 58<274 345 291 299> 662 82<247.5 353>
VStem: 27 90<417 522.5 417 547> 196 78<350 436 350 495 495 544> 327 82<514 527> 485 90<417 522.5>
LayerCount: 2
Fore
SplineSet
27 470 m 128,-1,1
 27 586 27 586 106 665 c 128,-1,2
 185 744 185 744 300.5 744 c 128,-1,3
 416 744 416 744 495.5 664.5 c 128,-1,4
 575 585 575 585 575 470 c 128,-1,5
 575 355 575 355 495.5 275.5 c 128,-1,6
 416 196 416 196 300.5 196 c 128,-1,7
 185 196 185 196 106 275 c 128,-1,0
 27 354 27 354 27 470 c 128,-1,1
117 470 m 128,-1,9
 117 390 117 390 169.5 334 c 128,-1,10
 222 278 222 278 300.5 278 c 128,-1,11
 379 278 379 278 432 334 c 128,-1,12
 485 390 485 390 485 470 c 128,-1,13
 485 550 485 550 432 606 c 128,-1,14
 379 662 379 662 300.5 662 c 128,-1,15
 222 662 222 662 169.5 606 c 128,-1,8
 117 550 117 550 117 470 c 128,-1,9
199 599 m 1,16,-1
 307 602 l 1,17,18
 360 602 360 602 384.5 581.5 c 128,-1,19
 409 561 409 561 409 530.5 c 128,-1,20
 409 500 409 500 394.5 483 c 128,-1,21
 380 466 380 466 359 461 c 1,22,23
 379 453 379 453 392 425 c 2,24,-1
 403 403 l 2,25,26
 415 380 415 380 427 373 c 1,27,28
 406 345 406 345 375 345 c 128,-1,29
 344 345 344 345 328 376 c 2,30,-1
 307 419 l 2,31,32
 298 436 298 436 280 436 c 2,33,-1
 274 436 l 1,34,-1
 274 350 l 1,35,36
 260 346 260 346 235 346 c 128,-1,37
 210 346 210 346 196 350 c 1,38,-1
 196 597 l 1,39,-1
 199 599 l 1,16,-1
274 544 m 1,40,-1
 274 495 l 1,41,-1
 296 495 l 2,42,43
 327 495 327 495 327 521 c 0,44,45
 327 544 327 544 299 544 c 2,46,-1
 274 544 l 1,40,-1
EndSplineSet
EndChar

StartChar: asciicircum
Encoding: 94 94 134
Width: 530
Flags: HMW
HStem: 299 7 532 123
VStem: 28 474<306 306>
LayerCount: 2
Fore
SplineSet
348 648 m 1,0,-1
 502 306 l 1,1,2
 473 299 473 299 428 299 c 128,-1,3
 383 299 383 299 353 306 c 1,4,-1
 306 425 l 2,5,6
 295 452 295 452 269 532 c 1,7,-1
 261 532 l 1,8,9
 235 452 235 452 224 425 c 2,10,-1
 177 306 l 1,11,12
 147 299 147 299 102 299 c 128,-1,13
 57 299 57 299 28 306 c 1,14,-1
 182 648 l 1,15,16
 208 655 208 655 264 655 c 128,-1,17
 320 655 320 655 348 648 c 1,0,-1
EndSplineSet
EndChar

StartChar: underscore
Encoding: 95 95 135
Width: 565
Flags: HMW
HStem: -177 117<-1 566 -1 566>
VStem: -8 581<-125 -113.5>
LayerCount: 2
Fore
SplineSet
566 -177 m 1,0,-1
 -1 -177 l 1,1,2
 -8 -154 -8 -154 -8 -119 c 128,-1,3
 -8 -84 -8 -84 -1 -60 c 1,4,-1
 566 -60 l 1,5,6
 573 -89 573 -89 573 -119 c 128,-1,7
 573 -149 573 -149 566 -177 c 1,0,-1
EndSplineSet
EndChar

StartChar: section
Encoding: 167 167 136
Width: 500
Flags: HMW
HStem: -118 113<215 253 215 303> 585 113<248.5 281.5> 641 20G
VStem: 27 148<280.5 300> 59 154<541 560.5 541 581> 289 153<19.5 39.5> 327 148<281.5 301.5>
LayerCount: 2
Fore
SplineSet
475 311 m 0,0,1
 475 226 475 226 376 163 c 1,2,3
 442 115 442 115 442 45 c 0,4,5
 442 -25 442 -25 387 -71.5 c 128,-1,6
 332 -118 332 -118 235 -118 c 0,7,8
 138 -118 138 -118 62 -76 c 1,9,10
 60 -48 60 -48 72.5 -15.5 c 128,-1,11
 85 17 85 17 104 30 c 1,12,13
 185 -5 185 -5 238 -5 c 0,14,15
 261 -5 261 -5 275 4.5 c 128,-1,16
 289 14 289 14 289 30 c 0,17,18
 289 55 289 55 248 72 c 2,19,-1
 191 96 l 2,20,21
 112 129 112 129 69.5 168.5 c 128,-1,22
 27 208 27 208 27 271 c 0,23,24
 27 354 27 354 124 417 c 1,25,26
 59 464 59 464 59 534.5 c 0,27,28
 59 605 59 605 113.5 651.5 c 128,-1,29
 168 698 168 698 255.5 698 c 0,30,31
 343 698 343 698 424 661 c 1,32,33
 426 634 426 634 413 601.5 c 128,-1,34
 400 569 400 569 381 555 c 1,35,36
 309 585 309 585 263 585 c 0,37,38
 241 585 241 585 227 575.5 c 128,-1,39
 213 566 213 566 213 550 c 0,40,41
 213 525 213 525 253 510 c 1,42,-1
 311 486 l 2,43,44
 390 453 390 453 432.5 413.5 c 128,-1,45
 475 374 475 374 475 311 c 0,0,1
231 367 m 1,46,-1
 222 370 l 1,47,48
 175 342 175 342 175 299 c 0,49,50
 175 273 175 273 198.5 253.5 c 128,-1,51
 222 234 222 234 270 215 c 1,52,-1
 279 211 l 1,53,54
 327 241 327 241 327 283 c 0,55,56
 327 329 327 329 231 367 c 1,46,-1
EndSplineSet
EndChar

StartChar: acute
Encoding: 180 180 137
Width: 398
Flags: HMW
HStem: 541 229<168 259>
VStem: 104 249<601 680>
LayerCount: 2
Fore
SplineSet
104 601 m 1,0,-1
 259 770 l 1,1,2
 288 761 288 761 316 734.5 c 128,-1,3
 344 708 344 708 353 680 c 1,4,-1
 168 541 l 1,5,6
 148 546 148 546 129.5 563 c 128,-1,7
 111 580 111 580 104 601 c 1,0,-1
EndSplineSet
EndChar

StartChar: grave
Encoding: 96 96 138
Width: 398
Flags: HMW
HStem: 541 229<147 238>
VStem: 53 249<601 680>
LayerCount: 2
Fore
SplineSet
147 770 m 1,0,-1
 302 601 l 1,1,2
 294 580 294 580 276 563 c 128,-1,3
 258 546 258 546 238 541 c 1,4,-1
 53 680 l 1,5,6
 61 708 61 708 89.5 734.5 c 128,-1,7
 118 761 118 761 147 770 c 1,0,-1
EndSplineSet
EndChar

StartChar: tilde
Encoding: 732 732 139
Width: 398
Flags: HMW
HStem: 554 118<266 277 266 289> 604 117<121 132>
VStem: 11 376<614 661>
LayerCount: 2
Fore
SplineSet
200 572 m 1,0,-1
 156 595 l 1,1,2
 136 604 136 604 123 604 c 0,3,4
 110 604 110 604 92 579 c 2,5,-1
 83 567 l 1,6,7
 62 567 62 567 40 580.5 c 128,-1,8
 18 594 18 594 11 614 c 1,9,-1
 19 633 l 2,10,11
 35 673 35 673 65.5 697 c 128,-1,12
 96 721 96 721 131.5 721 c 0,13,14
 167 721 167 721 198 703 c 1,15,-1
 242 681 l 2,16,17
 258 672 258 672 273.5 672 c 0,18,19
 289 672 289 672 306 696 c 2,20,-1
 315 708 l 1,21,22
 336 708 336 708 358 694.5 c 128,-1,23
 380 681 380 681 387 661 c 1,24,-1
 379 642 l 2,25,26
 362 602 362 602 331.5 578 c 128,-1,27
 301 554 301 554 266.5 554 c 0,28,29
 232 554 232 554 200 572 c 1,0,-1
EndSplineSet
EndChar

StartChar: asciitilde
Encoding: 126 126 140
Width: 632
Flags: HMW
HStem: 193 143<422 439 422 454.5> 262 144<193.5 210.5>
VStem: 31 570<269 329>
LayerCount: 2
Fore
SplineSet
301 385 m 2,0,-1
 385 347 l 2,1,2
 410 336 410 336 434 336 c 0,3,4
 458 336 458 336 484 363 c 2,5,-1
 509 389 l 1,6,7
 535 386 535 386 563 369.5 c 128,-1,8
 591 353 591 353 601 329 c 1,9,-1
 581 295 l 2,10,11
 520 193 520 193 420 193 c 0,12,13
 379 193 379 193 331 214 c 2,14,-1
 248 251 l 2,15,16
 221 262 221 262 204 262 c 0,17,18
 173 262 173 262 149 236 c 2,19,-1
 124 209 l 1,20,21
 97 211 97 211 69.5 227.5 c 128,-1,22
 42 244 42 244 31 269 c 1,23,-1
 51 303 l 2,24,25
 112 406 112 406 212 406 c 0,26,27
 254 406 254 406 301 385 c 2,0,-1
EndSplineSet
EndChar

StartChar: dieresis
Encoding: 168 168 141
Width: 398
Flags: HMW
HStem: 574 99<33 33 163 163 235 235 365 365>
VStem: 25 138 226 139
LayerCount: 2
Fore
SplineSet
235 574 m 1,0,1
 226 596 226 596 226 624 c 128,-1,2
 226 652 226 652 235 673 c 1,3,4
 262 689 262 689 299 689 c 128,-1,5
 336 689 336 689 365 673 c 1,6,7
 373 652 373 652 373 623.5 c 128,-1,8
 373 595 373 595 365 574 c 1,9,10
 337 557 337 557 299 557 c 128,-1,11
 261 557 261 557 235 574 c 1,0,1
33 574 m 1,12,13
 25 597 25 597 25 624.5 c 128,-1,14
 25 652 25 652 33 673 c 1,15,16
 62 689 62 689 99 689 c 128,-1,17
 136 689 136 689 163 673 c 1,18,19
 172 652 172 652 172 623.5 c 128,-1,20
 172 595 172 595 163 574 c 1,21,22
 137 557 137 557 99 557 c 128,-1,23
 61 557 61 557 33 574 c 1,12,13
EndSplineSet
EndChar

StartChar: cedilla
Encoding: 184 184 142
Width: 398
Flags: HMW
HStem: -232 78<171.5 185.5 165 229> -208 21G -96 64 -96 96<173 187>
VStem: 210 117<-134.5 -117>
LayerCount: 2
Fore
SplineSet
135 -78 m 1,0,1
 143 -41 143 -41 161 0 c 1,2,-1
 241 0 l 1,3,4
 233 -14 233 -14 226 -32 c 1,5,6
 272 -34 272 -34 299.5 -59 c 128,-1,7
 327 -84 327 -84 327 -127 c 0,8,9
 327 -170 327 -170 288 -201 c 128,-1,10
 249 -232 249 -232 192 -232 c 0,11,12
 135 -232 135 -232 102 -208 c 1,13,14
 104 -167 104 -167 127 -141 c 1,15,16
 147 -154 147 -154 178.5 -154 c 0,17,18
 210 -154 210 -154 210 -126 c 0,19,20
 210 -112 210 -112 201 -104 c 128,-1,21
 192 -96 192 -96 180.5 -96 c 0,22,23
 169 -96 169 -96 157 -100 c 1,24,25
 140 -93 140 -93 135 -78 c 1,0,1
EndSplineSet
EndChar

StartChar: circumflex
Encoding: 710 710 143
Width: 398
Flags: HMW
HStem: 544 203
VStem: 38 324<604 615>
LayerCount: 2
Fore
SplineSet
295 551 m 1,0,-1
 204 638 l 1,1,-1
 107 544 l 1,2,3
 61 562 61 562 38 604 c 1,4,-1
 142 740 l 1,5,6
 200 758 200 758 271 740 c 1,7,-1
 362 615 l 1,8,9
 354 593 354 593 333.5 575.5 c 128,-1,10
 313 558 313 558 295 551 c 1,0,-1
EndSplineSet
EndChar

StartChar: macron
Encoding: 175 175 144
Width: 398
Flags: HMW
HStem: 572 111<46 353 46 353>
VStem: 46 307<572 572 572 683>
LayerCount: 2
Fore
SplineSet
353 572 m 1,0,-1
 46 572 l 1,1,2
 38 599 38 599 38 627 c 128,-1,3
 38 655 38 655 46 683 c 1,4,-1
 353 683 l 1,5,6
 360 654 360 654 360 627 c 0,7,8
 360 600 360 600 353 572 c 1,0,-1
EndSplineSet
EndChar

StartChar: ae
Encoding: 230 230 145
Width: 756
Flags: HMW
HStem: -15 115<214 219> -15 119<510.5 553.5> 199 108<455 582 454 713 455 455> 211 99<222.5 237.5 176.5 252> 390 121<236 257> 403 111<496.5 542>
VStem: 30 152<133 165.5 133 197> 299 155<307 328 307 348.5> 582 144<307 318 318 341>
LayerCount: 2
Fore
SplineSet
713 199 m 1,0,-1
 455 199 l 1,1,2
 458 153 458 153 477.5 128.5 c 128,-1,3
 497 104 497 104 546.5 104 c 0,4,5
 596 104 596 104 671 134 c 1,6,7
 703 103 703 103 713 42 c 1,8,9
 632 -15 632 -15 520.5 -15 c 0,10,11
 409 -15 409 -15 353 56 c 1,12,13
 280 -15 280 -15 182 -15 c 0,14,15
 110 -15 110 -15 70 31 c 128,-1,16
 30 77 30 77 30 137 c 0,17,18
 30 222 30 222 87 266 c 128,-1,19
 144 310 144 310 228 310 c 0,20,21
 273 310 273 310 299 308 c 1,22,-1
 299 328 l 2,23,24
 299 390 299 390 235 390 c 0,25,26
 185 390 185 390 87 358 c 1,27,28
 56 394 56 394 49 467 c 1,29,30
 158 511 158 511 266 511 c 0,31,32
 343 511 343 511 388 465 c 1,33,34
 443 514 443 514 519 514 c 0,35,36
 616 514 616 514 671 454.5 c 128,-1,37
 726 395 726 395 726 302 c 0,38,39
 726 247 726 247 713 199 c 1,0,-1
228 100 m 0,40,41
 272 100 272 100 312 140 c 1,42,43
 303 171 303 171 300 209 c 1,44,45
 280 211 280 211 245 211 c 0,46,47
 182 211 182 211 182 146 c 0,48,49
 182 126 182 126 194.5 113 c 128,-1,50
 207 100 207 100 228 100 c 0,40,41
518 403 m 0,51,52
 486 403 486 403 471.5 380 c 128,-1,53
 457 357 457 357 454 307 c 1,54,-1
 582 307 l 1,55,-1
 582 318 l 2,56,57
 582 403 582 403 518 403 c 0,51,52
EndSplineSet
Substitution2: "'smcp' Lowercase to Small Capitals lookup 2 subtable" ae.smcp
Substitution2: "'aalt' Access All Alternates lookup 0 subtable" ae.smcp
EndChar

StartChar: aacute
Encoding: 225 225 147
Width: 513
Flags: HMW
HStem: -15 115<214 214.5> 211 99<222.5 237 176.5 252> 390 121<245.5 256.5> 541 229<221 312>
VStem: 30 152<133.5 166 133.5 197> 157 249<601 680> 299 157<129 137 137 209 209 209 308 327 327 340>
LayerCount: 2
Fore
SplineSet
484 72 m 1,0,1
 479 51 479 51 465 27 c 128,-1,2
 451 3 451 3 436 -8 c 1,3,4
 367 -7 367 -7 328 45 c 1,5,6
 264 -15 264 -15 187 -15 c 128,-1,7
 110 -15 110 -15 70 31 c 128,-1,8
 30 77 30 77 30 137 c 0,9,10
 30 222 30 222 87 266 c 128,-1,11
 144 310 144 310 228 310 c 0,12,13
 273 310 273 310 299 308 c 1,14,-1
 299 327 l 2,15,16
 299 390 299 390 234 390 c 0,17,18
 191 390 191 390 87 358 c 1,19,20
 56 394 56 394 49 467 c 1,21,22
 98 487 98 487 163 499 c 128,-1,23
 228 511 228 511 278 511 c 0,24,25
 352 511 352 511 404 469.5 c 128,-1,26
 456 428 456 428 456 340 c 2,27,-1
 456 137 l 2,28,29
 456 92 456 92 484 72 c 1,0,1
182 147 m 0,30,31
 182 100 182 100 235.5 100 c 0,32,33
 264 100 264 100 299 129 c 1,34,-1
 299 209 l 1,35,36
 259 211 259 211 245 211 c 0,37,38
 182 211 182 211 182 147 c 0,30,31
157 601 m 1,39,-1
 312 770 l 1,40,41
 341 761 341 761 369 734.5 c 128,-1,42
 397 708 397 708 406 680 c 1,43,-1
 221 541 l 1,44,45
 201 546 201 546 182.5 563 c 128,-1,46
 164 580 164 580 157 601 c 1,39,-1
EndSplineSet
Substitution2: "'smcp' Lowercase to Small Capitals lookup 2 subtable" aacute.smcp
Substitution2: "'aalt' Access All Alternates lookup 0 subtable" aacute.smcp
EndChar

StartChar: adieresis
Encoding: 228 228 149
Width: 513
Flags: HMW
HStem: -15 115<214 214.5> 211 99<222.5 237 176.5 252> 390 121<245.5 256.5> 574 99<84 84 214 214 286 286 416 416>
VStem: 30 152<133.5 166 133.5 197> 76 138 277 139 299 157<129 137 137 209 209 209 308 327 327 340>
LayerCount: 2
Fore
SplineSet
484 72 m 1,0,1
 479 51 479 51 465 27 c 128,-1,2
 451 3 451 3 436 -8 c 1,3,4
 367 -7 367 -7 328 45 c 1,5,6
 264 -15 264 -15 187 -15 c 128,-1,7
 110 -15 110 -15 70 31 c 128,-1,8
 30 77 30 77 30 137 c 0,9,10
 30 222 30 222 87 266 c 128,-1,11
 144 310 144 310 228 310 c 0,12,13
 273 310 273 310 299 308 c 1,14,-1
 299 327 l 2,15,16
 299 390 299 390 234 390 c 0,17,18
 191 390 191 390 87 358 c 1,19,20
 56 394 56 394 49 467 c 1,21,22
 98 487 98 487 163 499 c 128,-1,23
 228 511 228 511 278 511 c 0,24,25
 352 511 352 511 404 469.5 c 128,-1,26
 456 428 456 428 456 340 c 2,27,-1
 456 137 l 2,28,29
 456 92 456 92 484 72 c 1,0,1
182 147 m 0,30,31
 182 100 182 100 235.5 100 c 0,32,33
 264 100 264 100 299 129 c 1,34,-1
 299 209 l 1,35,36
 259 211 259 211 245 211 c 0,37,38
 182 211 182 211 182 147 c 0,30,31
286 574 m 1,39,40
 277 596 277 596 277 624 c 128,-1,41
 277 652 277 652 286 673 c 1,42,43
 313 689 313 689 350 689 c 128,-1,44
 387 689 387 689 416 673 c 1,45,46
 424 652 424 652 424 623.5 c 128,-1,47
 424 595 424 595 416 574 c 1,48,49
 388 557 388 557 350 557 c 128,-1,50
 312 557 312 557 286 574 c 1,39,40
84 574 m 1,51,52
 76 597 76 597 76 624.5 c 128,-1,53
 76 652 76 652 84 673 c 1,54,55
 113 689 113 689 150 689 c 128,-1,56
 187 689 187 689 214 673 c 1,57,58
 223 652 223 652 223 623.5 c 128,-1,59
 223 595 223 595 214 574 c 1,60,61
 188 557 188 557 150 557 c 128,-1,62
 112 557 112 557 84 574 c 1,51,52
EndSplineSet
Substitution2: "'smcp' Lowercase to Small Capitals lookup 2 subtable" adieresis.smcp
Substitution2: "'aalt' Access All Alternates lookup 0 subtable" adieresis.smcp
EndChar

StartChar: aring
Encoding: 229 229 151
Width: 513
Flags: HMW
HStem: -15 115<214 214.5> 211 99<222.5 237 176.5 252> 390 121<245.5 256.5> 542 79<235 265 235 293> 722 77<235 265>
VStem: 30 152<133.5 166 133.5 197> 109 92<657 685.5 657 706.5> 299 92<657 685.5> 299 157<129 137 137 209 209 209 308 327 327 340>
LayerCount: 2
Fore
SplineSet
484 72 m 1,0,1
 479 51 479 51 465 27 c 128,-1,2
 451 3 451 3 436 -8 c 1,3,4
 367 -7 367 -7 328 45 c 1,5,6
 264 -15 264 -15 187 -15 c 128,-1,7
 110 -15 110 -15 70 31 c 128,-1,8
 30 77 30 77 30 137 c 0,9,10
 30 222 30 222 87 266 c 128,-1,11
 144 310 144 310 228 310 c 0,12,13
 273 310 273 310 299 308 c 1,14,-1
 299 327 l 2,15,16
 299 390 299 390 234 390 c 0,17,18
 191 390 191 390 87 358 c 1,19,20
 56 394 56 394 49 467 c 1,21,22
 98 487 98 487 163 499 c 128,-1,23
 228 511 228 511 278 511 c 0,24,25
 352 511 352 511 404 469.5 c 128,-1,26
 456 428 456 428 456 340 c 2,27,-1
 456 137 l 2,28,29
 456 92 456 92 484 72 c 1,0,1
182 147 m 0,30,31
 182 100 182 100 235.5 100 c 0,32,33
 264 100 264 100 299 129 c 1,34,-1
 299 209 l 1,35,36
 259 211 259 211 245 211 c 0,37,38
 182 211 182 211 182 147 c 0,30,31
109 671 m 128,-1,40
 109 726 109 726 148 762.5 c 128,-1,41
 187 799 187 799 250 799 c 128,-1,42
 313 799 313 799 352 762.5 c 128,-1,43
 391 726 391 726 391 671 c 128,-1,44
 391 616 391 616 352 579 c 128,-1,45
 313 542 313 542 250 542 c 128,-1,46
 187 542 187 542 148 579 c 128,-1,39
 109 616 109 616 109 671 c 128,-1,40
214.5 707.5 m 128,-1,48
 201 693 201 693 201 671.5 c 128,-1,49
 201 650 201 650 214.5 635.5 c 128,-1,50
 228 621 228 621 250 621 c 128,-1,51
 272 621 272 621 285.5 635.5 c 128,-1,52
 299 650 299 650 299 671.5 c 128,-1,53
 299 693 299 693 285.5 707.5 c 128,-1,54
 272 722 272 722 250 722 c 128,-1,47
 228 722 228 722 214.5 707.5 c 128,-1,48
EndSplineSet
Substitution2: "'smcp' Lowercase to Small Capitals lookup 2 subtable" aring.smcp
Substitution2: "'aalt' Access All Alternates lookup 0 subtable" aring.smcp
EndChar

StartChar: ccedilla
Encoding: 231 231 152
Width: 475
Flags: HMW
HStem: -232 78<223 236.5 216 280> -208 21G -96 64<225 278> 398 116<228 277>
VStem: 30 159<195 300.5 195 345> 261 118<-134.5 -117> 309 140
LayerCount: 2
Fore
SplineSet
186 -78 m 1,0,1
 192 -51 192 -51 207 -11 c 1,2,3
 121 2 121 2 75.5 70.5 c 128,-1,4
 30 139 30 139 30 248 c 0,5,6
 30 383 30 383 95.5 448.5 c 128,-1,7
 161 514 161 514 250 514 c 0,8,9
 339 514 339 514 394 468 c 128,-1,10
 449 422 449 422 449 348 c 0,11,12
 449 310 449 310 428 291 c 128,-1,13
 407 272 407 272 373 272 c 0,14,15
 339 272 339 272 309 278 c 1,16,17
 310 342 310 342 298.5 370 c 128,-1,18
 287 398 287 398 252 398 c 0,19,20
 217 398 217 398 203 363 c 128,-1,21
 189 328 189 328 189 249.5 c 0,22,23
 189 171 189 171 210.5 139 c 128,-1,24
 232 107 232 107 278.5 107 c 0,25,26
 325 107 325 107 386 149 c 1,27,28
 404 139 404 139 422 112.5 c 128,-1,29
 440 86 440 86 445 62 c 1,30,31
 388 0 388 0 286 -13 c 1,32,-1
 278 -32 l 1,33,34
 324 -34 324 -34 351.5 -59 c 128,-1,35
 379 -84 379 -84 379 -127 c 0,36,37
 379 -170 379 -170 339.5 -201 c 128,-1,38
 300 -232 300 -232 243 -232 c 0,39,40
 186 -232 186 -232 153 -208 c 1,41,42
 155 -167 155 -167 179 -141 c 1,43,44
 199 -154 199 -154 225 -154 c 0,45,46
 261 -154 261 -154 261 -126 c 0,47,48
 261 -113 261 -113 252 -104.5 c 128,-1,49
 243 -96 243 -96 232 -96 c 0,50,51
 221 -96 221 -96 209 -100 c 1,52,53
 194 -93 194 -93 186 -78 c 1,0,1
EndSplineSet
Substitution2: "'smcp' Lowercase to Small Capitals lookup 2 subtable" ccedilla.smcp
Substitution2: "'aalt' Access All Alternates lookup 0 subtable" ccedilla.smcp
EndChar

StartChar: eacute
Encoding: 233 233 154
Width: 497
Flags: HMW
HStem: -15 119<245 288> 199 108<188 319 187 449 188 188> 403 111<231 276.5> 541 229<226 317>
VStem: 30 157<307 307 307 321.5> 162 249<601 680> 319 143<307 318 318 341>
LayerCount: 2
Fore
SplineSet
449 199 m 1,0,-1
 188 199 l 1,1,2
 192 154 192 154 212 129 c 128,-1,3
 232 104 232 104 281.5 104 c 128,-1,4
 331 104 331 104 408 134 c 1,5,6
 441 101 441 101 449 42 c 1,7,8
 370 -15 370 -15 253 -15 c 0,9,10
 190 -15 190 -15 144.5 6.5 c 128,-1,11
 99 28 99 28 75 66.5 c 0,12,13
 30 138.6875 30 138.6875 30 252.84375 c 128,-1,14
 30 367 30 367 85 440.5 c 128,-1,15
 140 514 140 514 254 514 c 0,16,17
 351 514 351 514 406.5 454.5 c 128,-1,18
 462 395 462 395 462 302 c 0,19,20
 462 242 462 242 449 199 c 1,0,-1
302.5 379 m 128,-1,22
 286 403 286 403 253.5 403 c 128,-1,23
 221 403 221 403 205.5 380 c 128,-1,24
 190 357 190 357 187 307 c 1,25,-1
 319 307 l 1,26,-1
 319 318 l 2,27,21
 319 355 319 355 302.5 379 c 128,-1,22
162 601 m 1,28,-1
 317 770 l 1,29,30
 346 761 346 761 374 734.5 c 128,-1,31
 402 708 402 708 411 680 c 1,32,-1
 226 541 l 1,33,34
 206 546 206 546 187.5 563 c 128,-1,35
 169 580 169 580 162 601 c 1,28,-1
EndSplineSet
Substitution2: "'smcp' Lowercase to Small Capitals lookup 2 subtable" eacute.smcp
Substitution2: "'aalt' Access All Alternates lookup 0 subtable" eacute.smcp
EndChar

StartChar: edieresis
Encoding: 235 235 156
Width: 497
Flags: HMW
HStem: -15 119<245 288> 199 108<188 319 187 449 188 188> 403 111<231 276.5> 574 99<89 89 219 219 291 291 421 421>
VStem: 30 157<307 307 307 321.5> 81 138 282 139 319 143<307 318 318 341>
LayerCount: 2
Fore
SplineSet
449 199 m 1,0,-1
 188 199 l 1,1,2
 192 154 192 154 212 129 c 128,-1,3
 232 104 232 104 281.5 104 c 128,-1,4
 331 104 331 104 408 134 c 1,5,6
 441 101 441 101 449 42 c 1,7,8
 370 -15 370 -15 253 -15 c 0,9,10
 190 -15 190 -15 144.5 6.5 c 128,-1,11
 99 28 99 28 75 66.5 c 0,12,13
 30 138.6875 30 138.6875 30 252.84375 c 128,-1,14
 30 367 30 367 85 440.5 c 128,-1,15
 140 514 140 514 254 514 c 0,16,17
 351 514 351 514 406.5 454.5 c 128,-1,18
 462 395 462 395 462 302 c 0,19,20
 462 242 462 242 449 199 c 1,0,-1
302.5 379 m 128,-1,22
 286 403 286 403 253.5 403 c 128,-1,23
 221 403 221 403 205.5 380 c 128,-1,24
 190 357 190 357 187 307 c 1,25,-1
 319 307 l 1,26,-1
 319 318 l 2,27,21
 319 355 319 355 302.5 379 c 128,-1,22
291 574 m 1,28,29
 282 596 282 596 282 624 c 128,-1,30
 282 652 282 652 291 673 c 1,31,32
 318 689 318 689 355 689 c 128,-1,33
 392 689 392 689 421 673 c 1,34,35
 429 652 429 652 429 623.5 c 128,-1,36
 429 595 429 595 421 574 c 1,37,38
 393 557 393 557 355 557 c 128,-1,39
 317 557 317 557 291 574 c 1,28,29
89 574 m 1,40,41
 81 597 81 597 81 624.5 c 128,-1,42
 81 652 81 652 89 673 c 1,43,44
 118 689 118 689 155 689 c 128,-1,45
 192 689 192 689 219 673 c 1,46,47
 228 652 228 652 228 623.5 c 128,-1,48
 228 595 228 595 219 574 c 1,49,50
 193 557 193 557 155 557 c 128,-1,51
 117 557 117 557 89 574 c 1,40,41
EndSplineSet
Substitution2: "'smcp' Lowercase to Small Capitals lookup 2 subtable" edieresis.smcp
Substitution2: "'aalt' Access All Alternates lookup 0 subtable" edieresis.smcp
EndChar

StartChar: hbar
Encoding: 295 295 157
Width: 546
Flags: HMW
HStem: 488 20G<322.5 394.5> 558 97
VStem: 63 152<0 334 0 453 453 559> 332 157<105.5 125 125 302 302 324.5>
LayerCount: 2
Fore
SplineSet
489 330 m 2,0,-1
 489 125 l 2,1,2
 489 59 489 59 514 26 c 1,3,4
 475 -8 475 -8 422.5 -8 c 0,5,6
 370 -8 370 -8 351 16 c 128,-1,7
 332 40 332 40 332 89 c 2,8,-1
 332 302 l 2,9,10
 332 337 332 337 323 352.5 c 128,-1,11
 314 368 314 368 283 368 c 0,12,13
 252 368 252 368 215 334 c 1,14,-1
 215 0 l 1,15,16
 182 -6 182 -6 140 -6 c 0,17,18
 98 -6 98 -6 63 0 c 1,19,-1
 63 559 l 1,20,-1
 -12 558 l 1,21,22
 -18 580 -18 580 -18 606 c 0,23,24
 -18 632 -18 632 -12 656 c 1,25,-1
 63 654 l 1,26,-1
 63 729 l 1,27,-1
 70 736 l 1,28,-1
 130 736 l 2,29,30
 174 736 174 736 193.5 717.5 c 128,-1,31
 213 699 213 699 215 654 c 1,32,-1
 359 656 l 1,33,34
 366 628 366 628 366 605.5 c 0,35,36
 366 583 366 583 359 558 c 1,37,-1
 215 559 l 1,38,-1
 215 453 l 1,39,40
 282 508 282 508 349 508 c 128,-1,41
 416 508 416 508 452.5 459 c 128,-1,42
 489 410 489 410 489 330 c 2,0,-1
EndSplineSet
Substitution2: "'smcp' Lowercase to Small Capitals lookup 2 subtable" hbar.smcp
Substitution2: "'aalt' Access All Alternates lookup 0 subtable" hbar.smcp
EndChar

StartChar: dotlessi
Encoding: 305 305 158
Width: 298
Flags: HMW
HStem: 389 114<21 131 21 131> 478 20G
VStem: 83 157<0 331 331 347.5>
LayerCount: 2
Fore
SplineSet
240 384 m 2,0,-1
 240 0 l 1,1,2
 207 -6 207 -6 162.5 -6 c 0,3,4
 118 -6 118 -6 83 0 c 1,5,-1
 83 331 l 2,6,7
 83 389 83 389 36 389 c 2,8,-1
 21 389 l 1,9,10
 15 409 15 409 15 442.5 c 0,11,12
 15 476 15 476 21 498 c 1,13,14
 73 503 73 503 109 503 c 2,15,-1
 131 503 l 2,16,17
 181 503 181 503 210.5 471 c 128,-1,18
 240 439 240 439 240 384 c 2,0,-1
EndSplineSet
EndChar

StartChar: itilde
Encoding: 297 297 159
Width: 290
Flags: HMW
HStem: 389 114<15 125 15 125> 478 20G 554 118<199 210 199 222>
VStem: -56 376<614 661> 77 157<0 331 331 347.5>
LayerCount: 2
Fore
SplineSet
234 384 m 2,0,-1
 234 0 l 1,1,2
 201 -6 201 -6 156.5 -6 c 0,3,4
 112 -6 112 -6 77 0 c 1,5,-1
 77 331 l 2,6,7
 77 389 77 389 30 389 c 2,8,-1
 15 389 l 1,9,10
 9 409 9 409 9 442.5 c 0,11,12
 9 476 9 476 15 498 c 1,13,14
 67 503 67 503 103 503 c 2,15,-1
 125 503 l 2,16,17
 175 503 175 503 204.5 471 c 128,-1,18
 234 439 234 439 234 384 c 2,0,-1
133 572 m 1,19,-1
 89 595 l 1,20,21
 69 604 69 604 56 604 c 0,22,23
 43 604 43 604 25 579 c 2,24,-1
 16 567 l 1,25,26
 -5 567 -5 567 -27 580.5 c 128,-1,27
 -49 594 -49 594 -56 614 c 1,28,-1
 -48 633 l 2,29,30
 -32 673 -32 673 -1.5 697 c 128,-1,31
 29 721 29 721 64.5 721 c 0,32,33
 100 721 100 721 131 703 c 1,34,-1
 175 681 l 2,35,36
 191 672 191 672 206.5 672 c 0,37,38
 222 672 222 672 239 696 c 2,39,-1
 248 708 l 1,40,41
 269 708 269 708 291 694.5 c 128,-1,42
 313 681 313 681 320 661 c 1,43,-1
 312 642 l 2,44,45
 295 602 295 602 264.5 578 c 128,-1,46
 234 554 234 554 199.5 554 c 0,47,48
 165 554 165 554 133 572 c 1,19,-1
EndSplineSet
Substitution2: "'smcp' Lowercase to Small Capitals lookup 2 subtable" itilde.smcp
Substitution2: "'aalt' Access All Alternates lookup 0 subtable" itilde.smcp
EndChar

StartChar: ij
Encoding: 307 307 160
Width: 593
Flags: HMW
HStem: -220 21G 389 114<21 131 21 131> 478 20G 584 116<65 65 213 213 357 357 505 505>
VStem: 53 160 83 157<0 331 331 347.5> 381 154<-3 29 29 331 331 347.5>
LayerCount: 2
Fore
SplineSet
240 384 m 2,0,-1
 240 0 l 1,1,2
 207 -6 207 -6 162.5 -6 c 0,3,4
 118 -6 118 -6 83 0 c 1,5,-1
 83 331 l 2,6,7
 83 389 83 389 36 389 c 2,8,-1
 21 389 l 1,9,10
 15 409 15 409 15 442.5 c 0,11,12
 15 476 15 476 21 498 c 1,13,14
 73 503 73 503 109 503 c 2,15,-1
 131 503 l 2,16,17
 181 503 181 503 210.5 471 c 128,-1,18
 240 439 240 439 240 384 c 2,0,-1
53 642 m 128,-1,20
 53 673 53 673 65 700 c 1,21,22
 95 716 95 716 140.5 716 c 0,23,24
 186 716 186 716 213 700 c 1,25,26
 225 673 225 673 225 642 c 128,-1,27
 225 611 225 611 213 584 c 1,28,29
 185 569 185 569 137.5 569 c 0,30,31
 90 569 90 569 65 584 c 1,32,19
 53 611 53 611 53 642 c 128,-1,20
535 384 m 2,33,-1
 535 29 l 2,34,35
 535 -88 535 -88 496.5 -143 c 128,-1,36
 458 -198 458 -198 343 -220 c 1,37,38
 326 -207 326 -207 314 -179.5 c 128,-1,39
 302 -152 302 -152 301 -125 c 1,40,41
 346 -106 346 -106 363.5 -81 c 128,-1,42
 381 -56 381 -56 381 -3 c 2,43,-1
 381 331 l 2,44,45
 381 389 381 389 334 389 c 2,46,-1
 310 389 l 1,47,48
 303 413 303 413 303 443 c 0,49,50
 303 473 303 473 310 498 c 1,51,52
 368 503 368 503 406 503 c 2,53,-1
 428 503 l 2,54,55
 477 503 477 503 506 471 c 128,-1,56
 535 439 535 439 535 384 c 2,33,-1
345 642 m 128,-1,58
 345 673 345 673 357 700 c 1,59,60
 387 716 387 716 432.5 716 c 0,61,62
 478 716 478 716 505 700 c 1,63,64
 517 673 517 673 517 642 c 128,-1,65
 517 611 517 611 505 584 c 1,66,67
 477 569 477 569 429.5 569 c 0,68,69
 382 569 382 569 357 584 c 1,70,57
 345 611 345 611 345 642 c 128,-1,58
EndSplineSet
Substitution2: "'smcp' Lowercase to Small Capitals lookup 2 subtable" ij.smcp
Substitution2: "'aalt' Access All Alternates lookup 0 subtable" ij.smcp
EndChar

StartChar: igrave
Encoding: 236 236 161
Width: 290
Flags: HMW
HStem: 389 114<15 125 15 125> 478 20G 541 229<81 172>
VStem: -13 249<601 680> 77 157<0 331 331 347.5>
LayerCount: 2
Fore
SplineSet
234 384 m 2,0,-1
 234 0 l 1,1,2
 201 -6 201 -6 156.5 -6 c 0,3,4
 112 -6 112 -6 77 0 c 1,5,-1
 77 331 l 2,6,7
 77 389 77 389 30 389 c 2,8,-1
 15 389 l 1,9,10
 9 409 9 409 9 442.5 c 0,11,12
 9 476 9 476 15 498 c 1,13,14
 67 503 67 503 103 503 c 2,15,-1
 125 503 l 2,16,17
 175 503 175 503 204.5 471 c 128,-1,18
 234 439 234 439 234 384 c 2,0,-1
81 770 m 1,19,-1
 236 601 l 1,20,21
 228 580 228 580 210 563 c 128,-1,22
 192 546 192 546 172 541 c 1,23,-1
 -13 680 l 1,24,25
 -5 708 -5 708 23.5 734.5 c 128,-1,26
 52 761 52 761 81 770 c 1,19,-1
EndSplineSet
Substitution2: "'smcp' Lowercase to Small Capitals lookup 2 subtable" igrave.smcp
Substitution2: "'aalt' Access All Alternates lookup 0 subtable" igrave.smcp
EndChar

StartChar: iacute
Encoding: 237 237 162
Width: 290
Flags: HMW
HStem: 389 114<15 125 15 125> 478 20G 541 229<103 194>
VStem: 39 249<601 680> 77 157<0 331 331 347.5>
LayerCount: 2
Fore
SplineSet
234 384 m 2,0,-1
 234 0 l 1,1,2
 201 -6 201 -6 156.5 -6 c 0,3,4
 112 -6 112 -6 77 0 c 1,5,-1
 77 331 l 2,6,7
 77 389 77 389 30 389 c 2,8,-1
 15 389 l 1,9,10
 9 409 9 409 9 442.5 c 0,11,12
 9 476 9 476 15 498 c 1,13,14
 67 503 67 503 103 503 c 2,15,-1
 125 503 l 2,16,17
 175 503 175 503 204.5 471 c 128,-1,18
 234 439 234 439 234 384 c 2,0,-1
39 601 m 1,19,-1
 194 770 l 1,20,21
 223 761 223 761 251 734.5 c 128,-1,22
 279 708 279 708 288 680 c 1,23,-1
 103 541 l 1,24,25
 83 546 83 546 64.5 563 c 128,-1,26
 46 580 46 580 39 601 c 1,19,-1
EndSplineSet
Substitution2: "'smcp' Lowercase to Small Capitals lookup 2 subtable" iacute.smcp
Substitution2: "'aalt' Access All Alternates lookup 0 subtable" iacute.smcp
EndChar

StartChar: icircumflex
Encoding: 238 238 163
Width: 290
Flags: HMW
HStem: 389 114<15 125 15 125> 478 20G 544 203
VStem: -29 324<604 615> 77 157<0 331 331 347.5>
LayerCount: 2
Fore
SplineSet
234 384 m 2,0,-1
 234 0 l 1,1,2
 201 -6 201 -6 156.5 -6 c 0,3,4
 112 -6 112 -6 77 0 c 1,5,-1
 77 331 l 2,6,7
 77 389 77 389 30 389 c 2,8,-1
 15 389 l 1,9,10
 9 409 9 409 9 442.5 c 0,11,12
 9 476 9 476 15 498 c 1,13,14
 67 503 67 503 103 503 c 2,15,-1
 125 503 l 2,16,17
 175 503 175 503 204.5 471 c 128,-1,18
 234 439 234 439 234 384 c 2,0,-1
228 551 m 1,19,-1
 137 638 l 1,20,-1
 40 544 l 1,21,22
 -6 562 -6 562 -29 604 c 1,23,-1
 75 740 l 1,24,25
 133 758 133 758 204 740 c 1,26,-1
 295 615 l 1,27,28
 287 593 287 593 266.5 575.5 c 128,-1,29
 246 558 246 558 228 551 c 1,19,-1
EndSplineSet
Substitution2: "'smcp' Lowercase to Small Capitals lookup 2 subtable" icircumflex.smcp
Substitution2: "'aalt' Access All Alternates lookup 0 subtable" icircumflex.smcp
EndChar

StartChar: idieresis
Encoding: 239 239 164
Width: 290
Flags: HMW
HStem: 389 114<15 125 15 125> 478 20G 574 99<-34 -34 96 96 168 168 298 298>
VStem: -42 138 77 157<0 331 331 347.5> 159 139
LayerCount: 2
Fore
SplineSet
234 384 m 2,0,-1
 234 0 l 1,1,2
 201 -6 201 -6 156.5 -6 c 128,-1,3
 112 -6 112 -6 77 0 c 1,4,-1
 77 331 l 2,5,6
 77 389 77 389 30 389 c 2,7,-1
 15 389 l 1,8,9
 9 409 9 409 9 442.5 c 128,-1,10
 9 476 9 476 15 498 c 1,11,12
 67 503 67 503 103 503 c 2,13,-1
 125 503 l 2,14,15
 175 503 175 503 204.5 471 c 128,-1,16
 234 439 234 439 234 384 c 2,0,-1
168 574 m 1,17,18
 159 596 159 596 159 624 c 128,-1,19
 159 652 159 652 168 673 c 1,20,21
 195 689 195 689 232 689 c 128,-1,22
 269 689 269 689 298 673 c 1,23,24
 306 652 306 652 306 623.5 c 128,-1,25
 306 595 306 595 298 574 c 1,26,27
 270 557 270 557 232 557 c 128,-1,28
 194 557 194 557 168 574 c 1,17,18
-34 574 m 1,29,30
 -42 597 -42 597 -42 624.5 c 128,-1,31
 -42 652 -42 652 -34 673 c 1,32,33
 -5 689 -5 689 32 689 c 128,-1,34
 69 689 69 689 96 673 c 1,35,36
 105 652 105 652 105 623.5 c 128,-1,37
 105 595 105 595 96 574 c 1,38,39
 70 557 70 557 32 557 c 128,-1,40
 -6 557 -6 557 -34 574 c 1,29,30
EndSplineSet
Substitution2: "'smcp' Lowercase to Small Capitals lookup 2 subtable" idieresis.smcp
Substitution2: "'aalt' Access All Alternates lookup 0 subtable" idieresis.smcp
EndChar

StartChar: jcircumflex
Encoding: 309 309 165
Width: 293
Flags: HMW
HStem: -220 21G 389 114<12 130 12 130> 478 20G 544 203
VStem: -28 324<604 615> 83 154<-3 29 29 331 331 347.5>
LayerCount: 2
Fore
SplineSet
237 384 m 2,0,-1
 237 29 l 2,1,2
 237 -88 237 -88 198.5 -143 c 128,-1,3
 160 -198 160 -198 45 -220 c 1,4,5
 28 -207 28 -207 16 -179.5 c 128,-1,6
 4 -152 4 -152 3 -125 c 1,7,8
 48 -106 48 -106 65.5 -81 c 128,-1,9
 83 -56 83 -56 83 -3 c 2,10,-1
 83 331 l 2,11,12
 83 389 83 389 36 389 c 2,13,-1
 12 389 l 1,14,15
 5 413 5 413 5 443 c 0,16,17
 5 473 5 473 12 498 c 1,18,19
 70 503 70 503 108 503 c 2,20,-1
 130 503 l 2,21,22
 179 503 179 503 208 471 c 128,-1,23
 237 439 237 439 237 384 c 2,0,-1
229 551 m 1,24,-1
 138 638 l 1,25,-1
 41 544 l 1,26,27
 -5 562 -5 562 -28 604 c 1,28,-1
 76 740 l 1,29,30
 134 758 134 758 205 740 c 1,31,-1
 296 615 l 1,32,33
 288 593 288 593 267.5 575.5 c 128,-1,34
 247 558 247 558 229 551 c 1,24,-1
EndSplineSet
Substitution2: "'smcp' Lowercase to Small Capitals lookup 2 subtable" jcircumflex.smcp
Substitution2: "'aalt' Access All Alternates lookup 0 subtable" jcircumflex.smcp
EndChar

StartChar: kcommaaccent
Encoding: 311 311 166
Width: 523
Flags: HMW
HStem: -292 21G -229 21G -75 24 200 128<212 257> 493 10
VStem: 60 152<0 199 0 328 328 642> 223 134<-149.5 -119.5>
LayerCount: 2
Fore
SplineSet
443 199 m 2,0,-1
 468 126 l 1,1,2
 487.961864407 60.4110169492 487.961864407 60.4110169492 516 41 c 1,3,4
 472 -8 472 -8 411 -8 c 0,5,6
 378 -8 378 -8 361 7.5 c 128,-1,7
 344 23 344 23 331 62 c 2,8,-1
 301 148 l 2,9,10
 291 179 291 179 278 189.5 c 128,-1,11
 265 200 265 200 243 200 c 128,-1,12
 221 200 221 200 212 199 c 1,13,-1
 212 0 l 1,14,15
 179 -6 179 -6 136 -6 c 128,-1,16
 93 -6 93 -6 60 0 c 1,17,-1
 60 729 l 1,18,-1
 67 736 l 1,19,-1
 127 736 l 2,20,21
 174 736 174 736 193 715 c 128,-1,22
 212 694 212 694 212 642 c 2,23,-1
 212 328 l 1,24,-1
 228 328 l 2,25,26
 246 328 246 328 256 346 c 2,27,-1
 308 446 l 1,28,29
 336 503 336 503 396 503 c 0,30,31
 425 503 425 503 483 501 c 1,32,-1
 489 493 l 1,33,-1
 412 344 l 2,34,35
 392 306 392 306 361 285 c 1,36,37
 421 263 421 263 443 199 c 2,0,-1
346 -59 m 1,38,39
 357 -85 357 -85 357 -120 c 0,40,41
 357 -180 357 -180 316.5 -225.5 c 128,-1,42
 276 -271 276 -271 204 -292 c 1,43,44
 165 -278 165 -278 157 -229 c 1,45,46
 223 -190 223 -190 223 -128 c 0,47,48
 223 -100 223 -100 210 -75 c 1,49,50
 236 -57 236 -57 274.5 -52.5 c 128,-1,51
 313 -48 313 -48 346 -59 c 1,38,39
EndSplineSet
Substitution2: "'smcp' Lowercase to Small Capitals lookup 2 subtable" kcommaaccent.smcp
Substitution2: "'aalt' Access All Alternates lookup 0 subtable" kcommaaccent.smcp
EndChar

StartChar: kgreenlandic
Encoding: 312 312 167
Width: 523
Flags: HMW
HStem: 200 128<212 257> 486 20G<67 127 127 158> 493 10
VStem: 60 152<0 199 0 328 328 412>
LayerCount: 2
Fore
SplineSet
443 199 m 2,0,-1
 468 126 l 1,1,2
 487.961864407 60.4110169492 487.961864407 60.4110169492 516 41 c 1,3,4
 472 -8 472 -8 411 -8 c 0,5,6
 378 -8 378 -8 361 7.5 c 128,-1,7
 344 23 344 23 331 62 c 2,8,-1
 301 148 l 2,9,10
 291 179 291 179 278 189.5 c 128,-1,11
 265 200 265 200 243 200 c 128,-1,12
 221 200 221 200 212 199 c 1,13,-1
 212 0 l 1,14,15
 179 -6 179 -6 136 -6 c 128,-1,16
 93 -6 93 -6 60 0 c 1,17,-1
 60 499 l 1,18,-1
 67 506 l 1,19,-1
 127 506 l 2,20,21
 174 506 174 506 193 485 c 128,-1,22
 212 464 212 464 212 412 c 2,23,-1
 212 328 l 1,24,-1
 228 328 l 2,25,26
 246 328 246 328 256 346 c 2,27,-1
 308 446 l 1,28,29
 336 503 336 503 396 503 c 0,30,31
 425 503 425 503 483 501 c 1,32,-1
 489 493 l 1,33,-1
 412 344 l 2,34,35
 392 306 392 306 361 285 c 1,36,37
 421 263 421 263 443 199 c 2,0,-1
EndSplineSet
Substitution2: "'smcp' Lowercase to Small Capitals lookup 2 subtable" kgreenlandic.smcp
Substitution2: "'aalt' Access All Alternates lookup 0 subtable" kgreenlandic.smcp
EndChar

StartChar: ldot
Encoding: 320 320 168
Width: 402
Flags: HMW
HStem: -5 119<138 282> 305 117<270 270 405 405>
VStem: 59 152<146 161 161 642> 259 146
LayerCount: 2
Fore
SplineSet
255 114 m 2,0,-1
 282 114 l 1,1,2
 294 81 294 81 294 48 c 128,-1,3
 294 15 294 15 291 5 c 1,4,5
 231 -5 231 -5 173.5 -5 c 128,-1,6
 116 -5 116 -5 87.5 28.5 c 128,-1,7
 59 62 59 62 59 134 c 2,8,-1
 59 729 l 1,9,-1
 65 736 l 1,10,-1
 126 736 l 2,11,12
 173 736 173 736 192 715 c 128,-1,13
 211 694 211 694 211 642 c 2,14,-1
 211 161 l 2,15,16
 211 114 211 114 255 114 c 2,0,-1
270 305 m 1,17,18
 259 328 259 328 259 362 c 128,-1,19
 259 396 259 396 270 422 c 1,20,21
 299 439 299 439 336.5 439 c 128,-1,22
 374 439 374 439 405 422 c 1,23,24
 415 395 415 395 415 362 c 128,-1,25
 415 329 415 329 405 305 c 1,26,27
 379 286 379 286 337 286 c 128,-1,28
 295 286 295 286 270 305 c 1,17,18
EndSplineSet
Substitution2: "'smcp' Lowercase to Small Capitals lookup 2 subtable" ldot.smcp
Substitution2: "'aalt' Access All Alternates lookup 0 subtable" ldot.smcp
EndChar

StartChar: lslash
Encoding: 322 322 169
Width: 365
Flags: HMW
HStem: -5 119<174 318> 478 20G<321 321>
VStem: 95 151<146 161 161 263 263 263 461 642>
LayerCount: 2
Fore
SplineSet
291 114 m 2,0,-1
 318 114 l 1,1,2
 330 81 330 81 330 50.5 c 0,3,4
 330 20 330 20 327 5 c 1,5,6
 267 -5 267 -5 209.5 -5 c 0,7,8
 152 -5 152 -5 123.5 28.5 c 128,-1,9
 95 62 95 62 95 134 c 2,10,-1
 95 263 l 1,11,-1
 28 231 l 1,12,-1
 17 236 l 1,13,14
 1 280 1 280 14 347 c 1,15,-1
 95 387 l 1,16,-1
 95 729 l 1,17,-1
 102 736 l 1,18,-1
 161 736 l 2,19,20
 208 736 208 736 227 715 c 128,-1,21
 246 694 246 694 246 642 c 2,22,-1
 246 461 l 1,23,-1
 321 498 l 1,24,-1
 332 492 l 1,25,26
 348 448 348 448 335 381 c 1,27,-1
 246 337 l 1,28,-1
 246 161 l 2,29,30
 246 114 246 114 291 114 c 2,0,-1
EndSplineSet
Substitution2: "'smcp' Lowercase to Small Capitals lookup 2 subtable" lslash.smcp
Substitution2: "'aalt' Access All Alternates lookup 0 subtable" lslash.smcp
EndChar

StartChar: ntilde
Encoding: 241 241 171
Width: 547
Flags: HMW
HStem: 486 20G<67 126 126 147> 488 20G<321 395.5> 554 118<348 359 348 371>
VStem: 60 156<0 334 0 499> 93 376<614 661> 333 157<105.5 125 125 302 302 324.5>
LayerCount: 2
Fore
SplineSet
490 330 m 2,0,-1
 490 125 l 2,1,2
 490 59 490 59 514 26 c 1,3,4
 475 -8 475 -8 423 -8 c 0,5,6
 371 -8 371 -8 352 16 c 128,-1,7
 333 40 333 40 333 89 c 2,8,-1
 333 302 l 2,9,10
 333 337 333 337 324 352.5 c 128,-1,11
 315 368 315 368 284 368 c 0,12,13
 253 368 253 368 216 334 c 1,14,-1
 216 0 l 1,15,16
 183 -6 183 -6 138 -6 c 128,-1,17
 93 -6 93 -6 60 0 c 1,18,-1
 60 499 l 1,19,-1
 67 506 l 1,20,-1
 126 506 l 2,21,22
 187 506 187 506 208 446 c 1,23,24
 277 508 277 508 347 508 c 0,25,26
 417 508 417 508 453.5 459 c 128,-1,27
 490 410 490 410 490 330 c 2,0,-1
282 572 m 1,28,-1
 238 595 l 1,29,30
 218 604 218 604 205 604 c 0,31,32
 192 604 192 604 174 579 c 2,33,-1
 165 567 l 1,34,35
 144 567 144 567 122 580.5 c 128,-1,36
 100 594 100 594 93 614 c 1,37,-1
 101 633 l 2,38,39
 117 673 117 673 147.5 697 c 128,-1,40
 178 721 178 721 213.5 721 c 0,41,42
 249 721 249 721 280 703 c 1,43,-1
 324 681 l 2,44,45
 340 672 340 672 355.5 672 c 0,46,47
 371 672 371 672 388 696 c 2,48,-1
 397 708 l 1,49,50
 418 708 418 708 440 694.5 c 128,-1,51
 462 681 462 681 469 661 c 1,52,-1
 461 642 l 2,53,54
 444 602 444 602 413.5 578 c 128,-1,55
 383 554 383 554 348.5 554 c 0,56,57
 314 554 314 554 282 572 c 1,28,-1
EndSplineSet
Substitution2: "'smcp' Lowercase to Small Capitals lookup 2 subtable" ntilde.smcp
Substitution2: "'aalt' Access All Alternates lookup 0 subtable" ntilde.smcp
EndChar

StartChar: oe
Encoding: 339 339 172
Width: 800
Flags: HMW
HStem: -15 117<230 291.5 230 294.5> 199 108<500 627 499 757 500 500> 397 117<230 291.5> 403 111<541.5 587>
VStem: 30 160<208.5 291 208.5 293.5> 331 168<208.5 307> 627 144<307 318 318 341>
LayerCount: 2
Fore
SplineSet
757 199 m 1,0,-1
 500 199 l 1,1,2
 503 154 503 154 522.5 129 c 128,-1,3
 542 104 542 104 590.5 104 c 128,-1,4
 639 104 639 104 716 134 c 1,5,6
 749 101 749 101 757 43 c 1,7,8
 679 -15 679 -15 569.5 -15 c 128,-1,9
 460 -15 460 -15 410 43 c 1,10,11
 355 -15 355 -15 258 -15 c 128,-1,12
 161 -15 161 -15 102 44 c 0,13,14
 30 115 30 115 30 250.5 c 128,-1,15
 30 386 30 386 102 455 c 1,16,17
 161 514 161 514 259.5 514 c 128,-1,18
 358 514 358 514 413 453 c 1,19,20
 466 514 466 514 563 514 c 128,-1,21
 660 514 660 514 715.5 454.5 c 128,-1,22
 771 395 771 395 771 302 c 0,23,24
 771 245 771 245 757 199 c 1,0,-1
259.581395349 102 m 128,-1,26
 303 102 303 102 317 140 c 128,-1,27
 331 178 331 178 331 250 c 128,-1,28
 331 322 331 322 317 359.5 c 128,-1,29
 303 397 303 397 261 397 c 0,30,31
 216.162790698 397 216.162790698 397 202 353.5 c 0,32,33
 190 316.642857143 190 316.642857143 190 265.821428571 c 0,34,35
 190 182.357142857 190 182.357142857 203.081395349 142.178571429 c 128,-1,25
 216.162790698 102 216.162790698 102 259.581395349 102 c 128,-1,26
564 403 m 0,36,37
 531 403 531 403 516 380 c 128,-1,38
 501 357 501 357 499 307 c 1,39,-1
 627 307 l 1,40,-1
 627 318 l 2,41,42
 627 403 627 403 564 403 c 0,36,37
EndSplineSet
Substitution2: "'smcp' Lowercase to Small Capitals lookup 2 subtable" oe.smcp
Substitution2: "'aalt' Access All Alternates lookup 0 subtable" oe.smcp
EndChar

StartChar: oacute
Encoding: 243 243 174
Width: 522
Flags: HMW
HStem: -15 117<230 291.5 230 292> 397 117<230 291.5> 541 229<232 323>
VStem: 30 160<208.5 291 208.5 293.5> 168 249<601 680> 331 161<208.5 291>
LayerCount: 2
Fore
SplineSet
420 455 m 0,0,1
 492 383 492 383 492 249.5 c 128,-1,2
 492 116 492 116 420 44 c 0,3,4
 360 -15 360 -15 260.5 -15 c 128,-1,5
 161 -15 161 -15 102 44 c 0,6,7
 30 116 30 116 30 249.5 c 128,-1,8
 30 383 30 383 102 455 c 0,9,10
 161 514 161 514 260.5 514 c 128,-1,11
 360 514 360 514 420 455 c 0,0,1
259.581395349 102 m 128,-1,13
 303 102 303 102 317 140 c 128,-1,14
 331 178 331 178 331 250 c 128,-1,15
 331 322 331 322 317 359.5 c 128,-1,16
 303 397 303 397 261 397 c 0,17,18
 216.162790698 397 216.162790698 397 202 353.5 c 0,19,20
 190 316.642857143 190 316.642857143 190 265.821428571 c 0,21,22
 190 182.357142857 190 182.357142857 203.081395349 142.178571429 c 128,-1,12
 216.162790698 102 216.162790698 102 259.581395349 102 c 128,-1,13
168 601 m 1,23,-1
 323 770 l 1,24,25
 352 761 352 761 380 734.5 c 128,-1,26
 408 708 408 708 417 680 c 1,27,-1
 232 541 l 1,28,29
 212 546 212 546 193.5 563 c 128,-1,30
 175 580 175 580 168 601 c 1,23,-1
EndSplineSet
Substitution2: "'smcp' Lowercase to Small Capitals lookup 2 subtable" oacute.smcp
Substitution2: "'aalt' Access All Alternates lookup 0 subtable" oacute.smcp
EndChar

StartChar: otilde
Encoding: 245 245 176
Width: 522
Flags: HMW
HStem: -15 117<230 291.5 230 292> 397 117<230 291.5> 554 118<328 339 328 351>
VStem: 30 160<208.5 291 208.5 293.5> 73 376<614 661> 331 161<208.5 291>
LayerCount: 2
Fore
SplineSet
420 455 m 0,0,1
 492 383 492 383 492 249.5 c 128,-1,2
 492 116 492 116 420 44 c 0,3,4
 360 -15 360 -15 260.5 -15 c 128,-1,5
 161 -15 161 -15 102 44 c 0,6,7
 30 116 30 116 30 249.5 c 128,-1,8
 30 383 30 383 102 455 c 0,9,10
 161 514 161 514 260.5 514 c 128,-1,11
 360 514 360 514 420 455 c 0,0,1
259.581395349 102 m 128,-1,13
 303 102 303 102 317 140 c 128,-1,14
 331 178 331 178 331 250 c 128,-1,15
 331 322 331 322 317 359.5 c 128,-1,16
 303 397 303 397 261 397 c 0,17,18
 216.162790698 397 216.162790698 397 202 353.5 c 0,19,20
 190 316.642857143 190 316.642857143 190 265.821428571 c 0,21,22
 190 182.357142857 190 182.357142857 203.081395349 142.178571429 c 128,-1,12
 216.162790698 102 216.162790698 102 259.581395349 102 c 128,-1,13
262 572 m 1,23,-1
 218 595 l 1,24,25
 198 604 198 604 185 604 c 128,-1,26
 172 604 172 604 154 579 c 2,27,-1
 145 567 l 1,28,29
 124 567 124 567 102 580.5 c 128,-1,30
 80 594 80 594 73 614 c 1,31,-1
 81 633 l 2,32,33
 97 673 97 673 127.5 697 c 128,-1,34
 158 721 158 721 193.5 721 c 128,-1,35
 229 721 229 721 260 703 c 1,36,-1
 304 681 l 2,37,38
 320 672 320 672 335.5 672 c 128,-1,39
 351 672 351 672 368 696 c 2,40,-1
 377 708 l 1,41,42
 398 708 398 708 420 694.5 c 128,-1,43
 442 681 442 681 449 661 c 1,44,-1
 441 642 l 2,45,46
 424 602 424 602 393.5 578 c 128,-1,47
 363 554 363 554 328.5 554 c 128,-1,48
 294 554 294 554 262 572 c 1,23,-1
EndSplineSet
Substitution2: "'smcp' Lowercase to Small Capitals lookup 2 subtable" otilde.smcp
Substitution2: "'aalt' Access All Alternates lookup 0 subtable" otilde.smcp
EndChar

StartChar: oslash
Encoding: 248 248 178
Width: 525
Flags: HMW
HStem: -15 110<257.5 294.5> 404 110<231 268> 481 20G<347 347> 541 20G<381 381>
VStem: 32 144<240 290> 349 145<211.5 261.5>
LayerCount: 2
Fore
SplineSet
423 455 m 1,0,1
 494 387 494 387 494 250.5 c 128,-1,2
 494 114 494 114 423 44 c 0,3,4
 363 -15 363 -15 263 -15 c 0,5,6
 216 -15 216 -15 178 -2 c 1,7,-1
 144 -60 l 1,8,9
 95 -50 95 -50 66 -18 c 1,10,-1
 102 44 l 1,11,12
 32 114 32 114 32 250.5 c 128,-1,13
 32 387 32 387 103 455 c 1,14,15
 162 514 162 514 263 514 c 0,16,17
 309 514 309 514 347 501 c 1,18,-1
 381 561 l 1,19,20
 429 547 429 547 458 518 c 1,21,-1
 422 455 l 1,22,-1
 423 455 l 1,0,1
331 137.5 m 128,-1,24
 349 180 349 180 349 233 c 128,-1,25
 349 286 349 286 345 313 c 1,26,-1
 234 100 l 1,27,28
 247 95 247 95 263 95 c 0,29,23
 313 95 313 95 331 137.5 c 128,-1,24
182 327 m 128,-1,31
 176 296 176 296 176 255 c 128,-1,32
 176 214 176 214 180 187 c 1,33,-1
 291 399 l 1,34,35
 278 404 278 404 263 404 c 0,36,37
 228 404 228 404 208 381 c 128,-1,30
 188 358 188 358 182 327 c 128,-1,31
EndSplineSet
Substitution2: "'smcp' Lowercase to Small Capitals lookup 2 subtable" oslash.smcp
Substitution2: "'aalt' Access All Alternates lookup 0 subtable" oslash.smcp
EndChar

StartChar: rcommaaccent
Encoding: 343 343 180
Width: 397
Flags: HMW
HStem: -292 21G -229 21G -75 24 487 20G
VStem: 68 156<0 311 0 323 0 352.5> 96 134<-149.5 -119.5>
LayerCount: 2
Fore
SplineSet
30 427 m 1,0,1
 35 447 35 447 49 471.5 c 128,-1,2
 63 496 63 496 77 507 c 1,3,4
 169 500 169 500 205 416 c 1,5,6
 243 506 243 506 330 506 c 0,7,8
 356 506 356 506 396 498 c 1,9,10
 396 467 396 467 385.5 424.5 c 128,-1,11
 375 382 375 382 357 352 c 1,12,13
 340 358 340 358 306 362 c 1,14,15
 256 362 256 362 224 311 c 1,16,-1
 224 0 l 1,17,18
 191 -6 191 -6 146.5 -6 c 0,19,20
 102 -6 102 -6 68 0 c 1,21,-1
 68 323 l 2,22,23
 68 398 68 398 30 427 c 1,0,1
219 -59 m 1,24,25
 230 -85 230 -85 230 -120 c 0,26,27
 230 -180 230 -180 189.5 -225.5 c 128,-1,28
 149 -271 149 -271 77 -292 c 1,29,30
 38 -278 38 -278 30 -229 c 1,31,32
 96 -190 96 -190 96 -128 c 0,33,34
 96 -100 96 -100 83 -75 c 1,35,36
 109 -57 109 -57 147.5 -52.5 c 128,-1,37
 186 -48 186 -48 219 -59 c 1,24,25
EndSplineSet
Substitution2: "'smcp' Lowercase to Small Capitals lookup 2 subtable" rcommaaccent.smcp
Substitution2: "'aalt' Access All Alternates lookup 0 subtable" rcommaaccent.smcp
EndChar

StartChar: germandbls
Encoding: 223 223 181
Width: 657
Flags: HMW
HStem: -15 117<410 428.5 402 488> 359 118<9 95> 581 119<307.5 365.5>
VStem: 95 160<0 360 360 360 477 483 0 499 0 565.5> 424 159<485.5 514>
LayerCount: 2
Fore
SplineSet
95 0 m 1,0,-1
 95 360 l 1,1,-1
 9 359 l 1,2,3
 4 389 4 389 4 419.5 c 0,4,5
 4 450 4 450 9 478 c 1,6,-1
 95 477 l 1,7,-1
 95 499 l 2,8,9
 95 597 95 597 160 648.5 c 128,-1,10
 225 700 225 700 336.5 700 c 0,11,12
 448 700 448 700 515.5 643.5 c 128,-1,13
 583 587 583 587 583 491 c 0,14,15
 583 453 583 453 566 414 c 1,16,17
 535 407 535 407 519 390.5 c 128,-1,18
 503 374 503 374 503 355.5 c 0,19,20
 503 337 503 337 524 317 c 2,21,-1
 562 280 l 2,22,23
 632 212 632 212 632 140.5 c 0,24,25
 632 69 632 69 576 27 c 128,-1,26
 520 -15 520 -15 438.5 -15 c 0,27,28
 357 -15 357 -15 298 14 c 1,29,30
 299 40 299 40 311 72 c 128,-1,31
 323 104 323 104 340 121 c 1,32,33
 378 102 378 102 411 102 c 0,34,35
 468 102 468 102 468 144 c 0,36,37
 468 169 468 169 439 196 c 2,38,-1
 398 234 l 2,39,40
 336 291 336 291 336 345 c 0,41,42
 336 378 336 378 359 411 c 128,-1,43
 382 444 382 444 422 463 c 1,44,45
 424 481 424 481 424 490 c 0,46,47
 424 528 424 528 401 554.5 c 128,-1,48
 378 581 378 581 337 581 c 0,49,50
 255 581 255 581 255 483 c 2,51,-1
 255 0 l 1,52,53
 219 -6 219 -6 175 -6 c 128,-1,54
 131 -6 131 -6 95 0 c 1,0,-1
EndSplineSet
Substitution2: "'smcp' Lowercase to Small Capitals lookup 2 subtable" germandbls.smcp
Substitution2: "'aalt' Access All Alternates lookup 0 subtable" germandbls.smcp
EndChar

StartChar: uacute
Encoding: 250 250 183
Width: 549
Flags: HMW
HStem: -9 140<151.5 266.5> 479 20G<331 331 487 487> 487 20G<110.5 161.5> 541 229<236 327>
VStem: 57 157<175 198 198 374 374 393.5> 172 249<601 680> 331 156<165 499>
LayerCount: 2
Fore
SplineSet
57 169 m 2,0,-1
 57 374 l 2,1,2
 57 439 57 439 33 474 c 1,3,4
 71 507 71 507 123.5 507 c 0,5,6
 176 507 176 507 195 483 c 128,-1,7
 214 459 214 459 214 410 c 2,8,-1
 214 198 l 2,9,10
 214 162 214 162 223 146.5 c 128,-1,11
 232 131 232 131 264 131 c 0,12,13
 296 131 296 131 331 165 c 1,14,-1
 331 499 l 1,15,16
 364 505 364 505 408.5 505 c 0,17,18
 453 505 453 505 487 499 c 1,19,-1
 487 143 l 2,20,21
 487 90 487 90 515 70 c 1,22,23
 510 50 510 50 496 26.5 c 128,-1,24
 482 3 482 3 467 -8 c 1,25,26
 385 -5 385 -5 349 62 c 1,27,28
 271 -9 271 -9 200.5 -9 c 0,29,30
 130 -9 130 -9 93.5 40 c 128,-1,31
 57 89 57 89 57 169 c 2,0,-1
172 601 m 1,32,-1
 327 770 l 1,33,34
 356 761 356 761 384 734.5 c 128,-1,35
 412 708 412 708 421 680 c 1,36,-1
 236 541 l 1,37,38
 216 546 216 546 197.5 563 c 128,-1,39
 179 580 179 580 172 601 c 1,32,-1
EndSplineSet
Substitution2: "'smcp' Lowercase to Small Capitals lookup 2 subtable" uacute.smcp
Substitution2: "'aalt' Access All Alternates lookup 0 subtable" uacute.smcp
EndChar

StartChar: udieresis
Encoding: 252 252 185
Width: 549
Flags: HMW
HStem: -9 140<151.5 266.5> 479 20G<331 331 487 487> 487 20G<110.5 161.5> 574 99<99 99 229 229 301 301 431 431>
VStem: 57 157<175 198 198 374 374 393.5> 91 138 292 139 331 156<165 499>
LayerCount: 2
Fore
SplineSet
57 169 m 2,0,-1
 57 374 l 2,1,2
 57 439 57 439 33 474 c 1,3,4
 71 507 71 507 123.5 507 c 128,-1,5
 176 507 176 507 195 483 c 128,-1,6
 214 459 214 459 214 410 c 2,7,-1
 214 198 l 2,8,9
 214 162 214 162 223 146.5 c 128,-1,10
 232 131 232 131 264 131 c 128,-1,11
 296 131 296 131 331 165 c 1,12,-1
 331 499 l 1,13,14
 364 505 364 505 408.5 505 c 128,-1,15
 453 505 453 505 487 499 c 1,16,-1
 487 143 l 2,17,18
 487 90 487 90 515 70 c 1,19,20
 510 50 510 50 496 26.5 c 128,-1,21
 482 3 482 3 467 -8 c 1,22,23
 385 -5 385 -5 349 62 c 1,24,25
 271 -9 271 -9 200.5 -9 c 128,-1,26
 130 -9 130 -9 93.5 40 c 128,-1,27
 57 89 57 89 57 169 c 2,0,-1
301 574 m 1,28,29
 292 596 292 596 292 624 c 128,-1,30
 292 652 292 652 301 673 c 1,31,32
 328 689 328 689 365 689 c 128,-1,33
 402 689 402 689 431 673 c 1,34,35
 439 652 439 652 439 623.5 c 128,-1,36
 439 595 439 595 431 574 c 1,37,38
 403 557 403 557 365 557 c 128,-1,39
 327 557 327 557 301 574 c 1,28,29
99 574 m 1,40,41
 91 597 91 597 91 624.5 c 128,-1,42
 91 652 91 652 99 673 c 1,43,44
 128 689 128 689 165 689 c 128,-1,45
 202 689 202 689 229 673 c 1,46,47
 238 652 238 652 238 623.5 c 128,-1,48
 238 595 238 595 229 574 c 1,49,50
 203 557 203 557 165 557 c 128,-1,51
 127 557 127 557 99 574 c 1,40,41
EndSplineSet
Substitution2: "'smcp' Lowercase to Small Capitals lookup 2 subtable" udieresis.smcp
Substitution2: "'aalt' Access All Alternates lookup 0 subtable" udieresis.smcp
EndChar

StartChar: ydieresis
Encoding: 255 255 187
Width: 497
Flags: HMW
HStem: -219 117<106.5 148 106.5 201> 485 20G<393 416> 488 20G<88 120> 574 99<81 81 211 211 283 283 413 413>
VStem: 1 491 73 138 274 139
LayerCount: 2
Fore
SplineSet
492 483 m 1,0,-1
 369 13 l 2,1,2
 340.184210526 -94.5789473684 340.184210526 -94.5789473684 291.5 -153 c 0,3,4
 236.5 -219 236.5 -219 123 -219 c 0,5,6
 62 -219 62 -219 2 -199 c 1,7,8
 -1 -172 -1 -172 8 -138.5 c 128,-1,9
 17 -105 17 -105 33 -87 c 1,10,11
 78 -102 78 -102 123 -102 c 0,12,13
 197 -102 197 -102 221 -21 c 2,14,-1
 225 -7 l 1,15,16
 138 -7 138 -7 121 56 c 2,17,-1
 5 487 l 1,18,19
 51 508 51 508 91 508 c 128,-1,20
 131 508 131 508 149.5 493 c 128,-1,21
 168 478 168 478 177 441 c 2,22,-1
 223 249 l 2,23,24
 230 222 230 222 246 117 c 0,25,26
 247 110 247 110 254 110 c 1,27,-1
 341 498 l 1,28,29
 365 505 365 505 408.5 505 c 128,-1,30
 452 505 452 505 486 494 c 1,31,-1
 492 483 l 1,0,-1
283 574 m 1,32,33
 274 596 274 596 274 624 c 128,-1,34
 274 652 274 652 283 673 c 1,35,36
 310 689 310 689 347 689 c 128,-1,37
 384 689 384 689 413 673 c 1,38,39
 421 652 421 652 421 623.5 c 128,-1,40
 421 595 421 595 413 574 c 1,41,42
 385 557 385 557 347 557 c 128,-1,43
 309 557 309 557 283 574 c 1,32,33
81 574 m 1,44,45
 73 597 73 597 73 624.5 c 128,-1,46
 73 652 73 652 81 673 c 1,47,48
 110 689 110 689 147 689 c 128,-1,49
 184 689 184 689 211 673 c 1,50,51
 220 652 220 652 220 623.5 c 128,-1,52
 220 595 220 595 211 574 c 1,53,54
 185 557 185 557 147 557 c 128,-1,55
 109 557 109 557 81 574 c 1,44,45
EndSplineSet
Substitution2: "'smcp' Lowercase to Small Capitals lookup 2 subtable" ydieresis.smcp
Substitution2: "'aalt' Access All Alternates lookup 0 subtable" ydieresis.smcp
EndChar

StartChar: eth
Encoding: 240 240 188
Width: 520
Flags: HMW
HStem: -15 114<228 289.5 228 290> 377 110<233.5 253 216 271> 638 20G
VStem: 29 159<207.5 283 203.5 285.5> 330 160<209.5 272.5>
LayerCount: 2
Fore
SplineSet
84 571 m 1,0,-1
 154 619 l 1,1,2
 130 636 130 636 93 658 c 1,3,4
 97 687 97 687 115 715 c 128,-1,5
 133 743 133 743 155 753 c 1,6,7
 216 727 216 727 264 695 c 1,8,-1
 348 752 l 1,9,10
 387 723 387 723 399 681 c 1,11,-1
 335 637 l 1,12,13
 490 488 490 488 490 249 c 0,14,15
 490 115 490 115 418 44 c 0,16,17
 358 -15 358 -15 258.5 -15 c 128,-1,18
 159 -15 159 -15 100 44 c 0,19,20
 29 114 29 114 29 241.5 c 128,-1,21
 29 369 29 369 102 434 c 0,22,23
 161 487 161 487 246 487 c 0,24,25
 267 487 267 487 285 481 c 1,26,27
 268 519 268 519 225 562 c 1,28,-1
 134 500 l 1,29,30
 93 528 93 528 84 571 c 1,0,-1
315.5 138 m 128,-1,32
 330 177 330 177 330 248.5 c 128,-1,33
 330 320 330 320 321 360 c 1,34,35
 287 377 287 377 261 377 c 0,36,37
 221 377 221 377 204.5 342.5 c 128,-1,38
 188 308 188 308 188 241 c 128,-1,39
 188 174 188 174 202.5 136.5 c 128,-1,40
 217 99 217 99 259 99 c 128,-1,31
 301 99 301 99 315.5 138 c 128,-1,32
EndSplineSet
Substitution2: "'smcp' Lowercase to Small Capitals lookup 2 subtable" eth.smcp
Substitution2: "'aalt' Access All Alternates lookup 0 subtable" eth.smcp
EndChar

StartChar: thorn
Encoding: 254 254 189
Width: 534
Flags: HMW
HStem: -216 21G<67 126 67 67> -209 21G<60 60> -10 115<290 298.5 266 356> 385 124<272 378.5> 489 20G<301 378.5>
VStem: 60 150<-157 -122 -122 11 129 346 470 642> 343 159<208.5 301>
LayerCount: 2
Fore
SplineSet
502 266 m 0,0,1
 502 131 502 131 445 60.5 c 128,-1,2
 388 -10 388 -10 307 -10 c 0,3,4
 262 -10 262 -10 210 11 c 1,5,-1
 210 -122 l 2,6,7
 210 -174 210 -174 191 -195 c 128,-1,8
 172 -216 172 -216 126 -216 c 2,9,-1
 67 -216 l 1,10,-1
 60 -209 l 1,11,-1
 60 729 l 1,12,-1
 67 736 l 1,13,-1
 126 736 l 2,14,15
 172 736 172 736 191 715 c 128,-1,16
 210 694 210 694 210 642 c 2,17,-1
 210 470 l 1,18,19
 263 509 263 509 322 509 c 0,20,21
 405 509 405 509 453.5 440.5 c 128,-1,22
 502 372 502 372 502 266 c 0,0,1
282 385 m 0,23,24
 240 385 240 385 210 346 c 1,25,-1
 210 129 l 1,26,27
 248 105 248 105 274 105 c 0,28,29
 343 105 343 105 343 255 c 0,30,31
 343 385 343 385 282 385 c 0,23,24
EndSplineSet
Substitution2: "'smcp' Lowercase to Small Capitals lookup 2 subtable" thorn.smcp
Substitution2: "'aalt' Access All Alternates lookup 0 subtable" thorn.smcp
EndChar

StartChar: AE
Encoding: 198 198 190
Width: 887
Flags: HMW
HStem: -3 134<617 747> 143 125<261.5 354 311 354 354 355> 278 130<544 767 544 767 612 767> 549 134<543 612 543 543 612 819>
VStem: 390 154<90 204 144 204 267 278 407 477>
LayerCount: 2
Fore
SplineSet
544 204 m 1,0,-1
 543 130 l 1,1,-1
 543 129 l 1,2,3
 587 131 587 131 617 131 c 2,4,-1
 852 131 l 1,5,6
 852 94 852 94 849 74 c 0,7,8
 835 -3 835 -3 747 -3 c 2,9,-1
 480 -3 l 2,10,11
 438 -3 438 -3 414 22 c 128,-1,12
 390 47 390 47 390 90 c 2,13,-1
 390 144 l 1,14,15
 377 143 377 143 355 143 c 2,16,-1
 267 143 l 2,17,18
 240 143 240 143 226 144 c 1,19,-1
 166 0 l 1,20,21
 142 -6 142 -6 89 -6 c 128,-1,22
 36 -6 36 -6 10 5 c 1,23,-1
 5 13 l 1,24,-1
 300 669 l 1,25,26
 329 683 329 683 397 683 c 2,27,-1
 827 683 l 1,28,29
 832 653 832 653 832 618.5 c 128,-1,30
 832 584 832 584 819 549 c 1,31,-1
 543 549 l 1,32,-1
 544 477 l 1,33,-1
 544 407 l 1,34,35
 570 408 570 408 612 408 c 2,36,-1
 767 408 l 1,37,38
 777 381 777 381 777 344 c 128,-1,39
 777 307 777 307 767 278 c 1,40,-1
 544 278 l 1,41,-1
 544 204 l 1,0,-1
354 268 m 1,42,-1
 390 267 l 1,43,-1
 390 537 l 1,44,-1
 385 537 l 1,45,46
 352 443 352 443 310 345 c 2,47,-1
 277 267 l 1,48,-1
 311 268 l 1,49,-1
 354 268 l 1,42,-1
EndSplineSet
Substitution2: "'c2sc' Capitals to Small Capitals lookup 3 subtable" ae.smcp
Substitution2: "'aalt' Access All Alternates lookup 0 subtable" ae.smcp
EndChar

StartChar: Agrave
Encoding: 192 192 191
Width: 638
Flags: HMW
HStem: 143 127<236 352 279 352 352 357 279 384> 537 152<310 316 310 310> 727 212<232 412>
VStem: 9 621<10 12> 171 285<802 821>
LayerCount: 2
Fore
SplineSet
242 143 m 2,0,1
 215 143 215 143 202 144 c 1,2,-1
 159 -1 l 1,3,4
 135 -7 135 -7 89.5 -7 c 128,-1,5
 44 -7 44 -7 14 4 c 1,6,-1
 9 12 l 1,7,-1
 229 683 l 1,8,9
 268 689 268 689 323.5 689 c 128,-1,10
 379 689 379 689 414 682 c 1,11,-1
 630 10 l 1,12,13
 595 -9 595 -9 547 -9 c 128,-1,14
 499 -9 499 -9 478 9 c 128,-1,15
 457 27 457 27 442 78 c 2,16,-1
 423 144 l 1,17,18
 410 143 410 143 384 143 c 2,19,-1
 242 143 l 2,0,1
239 269 m 1,20,-1
 279 270 l 1,21,-1
 352 270 l 2,22,23
 357 270 357 270 369.5 269.5 c 128,-1,24
 382 269 382 269 388 269 c 1,25,-1
 371 331 l 2,26,27
 347 415 347 415 316 537 c 1,28,-1
 310 537 l 1,29,30
 302 494 302 494 262 346 c 1,31,-1
 239 269 l 1,20,-1
232 939 m 1,32,-1
 456 802 l 1,33,34
 447 748 447 748 412 727 c 1,35,-1
 171 821 l 1,36,37
 173 853 173 853 192.5 888 c 128,-1,38
 212 923 212 923 232 939 c 1,32,-1
EndSplineSet
Substitution2: "'c2sc' Capitals to Small Capitals lookup 3 subtable" agrave.smcp
Substitution2: "'aalt' Access All Alternates lookup 0 subtable" agrave.smcp
EndChar

StartChar: Aacute
Encoding: 193 193 192
Width: 638
Flags: HMW
HStem: 143 127<236 352 279 352 352 357 279 384> 537 152<310 316 310 310> 727 212<242 421>
VStem: 9 621<10 12> 197 285<802 821>
LayerCount: 2
Fore
SplineSet
242 143 m 2,0,1
 215 143 215 143 202 144 c 1,2,-1
 159 -1 l 1,3,4
 135 -7 135 -7 89.5 -7 c 128,-1,5
 44 -7 44 -7 14 4 c 1,6,-1
 9 12 l 1,7,-1
 229 683 l 1,8,9
 268 689 268 689 323.5 689 c 128,-1,10
 379 689 379 689 414 682 c 1,11,-1
 630 10 l 1,12,13
 595 -9 595 -9 547 -9 c 128,-1,14
 499 -9 499 -9 478 9 c 128,-1,15
 457 27 457 27 442 78 c 2,16,-1
 423 144 l 1,17,18
 410 143 410 143 384 143 c 2,19,-1
 242 143 l 2,0,1
239 269 m 1,20,-1
 279 270 l 1,21,-1
 352 270 l 2,22,23
 357 270 357 270 369.5 269.5 c 128,-1,24
 382 269 382 269 388 269 c 1,25,-1
 371 331 l 2,26,27
 347 415 347 415 316 537 c 1,28,-1
 310 537 l 1,29,30
 302 494 302 494 262 346 c 1,31,-1
 239 269 l 1,20,-1
197 802 m 1,32,-1
 421 939 l 1,33,34
 441 923 441 923 460.5 888.5 c 128,-1,35
 480 854 480 854 482 821 c 1,36,-1
 242 727 l 1,37,38
 226 736 226 736 213 758 c 128,-1,39
 200 780 200 780 197 802 c 1,32,-1
EndSplineSet
Substitution2: "'c2sc' Capitals to Small Capitals lookup 3 subtable" aacute.smcp
Substitution2: "'aalt' Access All Alternates lookup 0 subtable" aacute.smcp
EndChar

StartChar: Acircumflex
Encoding: 194 194 193
Width: 638
Flags: HMW
HStem: 143 127<236 352 279 352 352 357 279 384> 537 152<310 316 310 310> 723 192
VStem: 9 621<10 12> 137 362<788 800>
LayerCount: 2
Fore
SplineSet
242 143 m 2,0,1
 215 143 215 143 202 144 c 1,2,-1
 159 -1 l 1,3,4
 135 -7 135 -7 89.5 -7 c 128,-1,5
 44 -7 44 -7 14 4 c 1,6,-1
 9 12 l 1,7,-1
 229 683 l 1,8,9
 268 689 268 689 323.5 689 c 128,-1,10
 379 689 379 689 414 682 c 1,11,-1
 630 10 l 1,12,13
 595 -9 595 -9 547 -9 c 128,-1,14
 499 -9 499 -9 478 9 c 128,-1,15
 457 27 457 27 442 78 c 2,16,-1
 423 144 l 1,17,18
 410 143 410 143 384 143 c 2,19,-1
 242 143 l 2,0,1
239 269 m 1,20,-1
 279 270 l 1,21,-1
 352 270 l 2,22,23
 357 270 357 270 369.5 269.5 c 128,-1,24
 382 269 382 269 388 269 c 1,25,-1
 371 331 l 2,26,27
 347 415 347 415 316 537 c 1,28,-1
 310 537 l 1,29,30
 302 494 302 494 262 346 c 1,31,-1
 239 269 l 1,20,-1
437 735 m 1,32,-1
 320 809 l 1,33,-1
 200 723 l 1,34,35
 182 730 182 730 162 749 c 128,-1,36
 142 768 142 768 137 788 c 1,37,-1
 255 909 l 1,38,39
 317 923 317 923 385 910 c 1,40,-1
 499 800 l 1,41,42
 492 778 492 778 473.5 760 c 128,-1,43
 455 742 455 742 437 735 c 1,32,-1
EndSplineSet
Substitution2: "'c2sc' Capitals to Small Capitals lookup 3 subtable" acircumflex.smcp
Substitution2: "'aalt' Access All Alternates lookup 0 subtable" acircumflex.smcp
EndChar

StartChar: Atilde
Encoding: 195 195 194
Width: 638
Flags: HMW
HStem: 143 127<236 352 279 352 352 357 279 384> 537 152<310 316 310 310> 741 117<393.5 404.5 393.5 417>
VStem: 9 621<10 12> 122 400<801 848>
LayerCount: 2
Fore
SplineSet
242 143 m 2,0,1
 215 143 215 143 202 144 c 1,2,-1
 159 -1 l 1,3,4
 135 -7 135 -7 89.5 -7 c 128,-1,5
 44 -7 44 -7 14 4 c 1,6,-1
 9 12 l 1,7,-1
 229 683 l 1,8,9
 268 689 268 689 323.5 689 c 128,-1,10
 379 689 379 689 414 682 c 1,11,-1
 630 10 l 1,12,13
 595 -9 595 -9 547 -9 c 128,-1,14
 499 -9 499 -9 478 9 c 128,-1,15
 457 27 457 27 442 78 c 2,16,-1
 423 144 l 1,17,18
 410 143 410 143 384 143 c 2,19,-1
 242 143 l 2,0,1
239 269 m 1,20,-1
 279 270 l 1,21,-1
 352 270 l 2,22,23
 357 270 357 270 369.5 269.5 c 128,-1,24
 382 269 382 269 388 269 c 1,25,-1
 371 331 l 2,26,27
 347 415 347 415 316 537 c 1,28,-1
 310 537 l 1,29,30
 302 494 302 494 262 346 c 1,31,-1
 239 269 l 1,20,-1
323 759 m 1,32,-1
 276 781 l 1,33,34
 260 790 260 790 242 790 c 128,-1,35
 224 790 224 790 208 766 c 2,36,-1
 200 754 l 1,37,38
 177 754 177 754 153.5 767.5 c 128,-1,39
 130 781 130 781 122 801 c 1,40,-1
 131 820 l 2,41,42
 172 908 172 908 255 908 c 0,43,44
 289 908 289 908 321 890 c 1,45,-1
 368 867 l 1,46,47
 384 858 384 858 401.5 858 c 128,-1,48
 419 858 419 858 436 882 c 1,49,-1
 444 895 l 1,50,51
 467 895 467 895 490.5 881.5 c 128,-1,52
 514 868 514 868 522 848 c 1,53,-1
 513 829 l 2,54,55
 472 741 472 741 389 741 c 0,56,57
 357 741 357 741 323 759 c 1,32,-1
EndSplineSet
Substitution2: "'c2sc' Capitals to Small Capitals lookup 3 subtable" atilde.smcp
Substitution2: "'aalt' Access All Alternates lookup 0 subtable" atilde.smcp
EndChar

StartChar: Adieresis
Encoding: 196 196 195
Width: 638
Flags: HMW
HStem: 143 127<236 352 279 352 352 357 279 384> 537 152<310 316 310 310> 752 118
VStem: 9 621<10 12> 144 124<752 752 853 853> 376 124<752 752 853 853>
LayerCount: 2
Fore
SplineSet
242 143 m 2,0,1
 215 143 215 143 202 144 c 1,2,-1
 159 -1 l 1,3,4
 135 -7 135 -7 89.5 -7 c 128,-1,5
 44 -7 44 -7 14 4 c 1,6,-1
 9 12 l 1,7,-1
 229 683 l 1,8,9
 268 689 268 689 323.5 689 c 128,-1,10
 379 689 379 689 414 682 c 1,11,-1
 630 10 l 1,12,13
 595 -9 595 -9 547 -9 c 128,-1,14
 499 -9 499 -9 478 9 c 128,-1,15
 457 27 457 27 442 78 c 2,16,-1
 423 144 l 1,17,18
 410 143 410 143 384 143 c 2,19,-1
 242 143 l 2,0,1
239 269 m 1,20,-1
 279 270 l 1,21,-1
 352 270 l 2,22,23
 357 270 357 270 369.5 269.5 c 128,-1,24
 382 269 382 269 388 269 c 1,25,-1
 371 331 l 2,26,27
 347 415 347 415 316 537 c 1,28,-1
 310 537 l 1,29,30
 302 494 302 494 262 346 c 1,31,-1
 239 269 l 1,20,-1
376 853 m 1,32,33
 410 870 410 870 441 870 c 128,-1,34
 472 870 472 870 500 853 c 1,35,36
 512 838 512 838 512 803 c 128,-1,37
 512 768 512 768 500 752 c 1,38,39
 472 735 472 735 441 735 c 128,-1,40
 410 735 410 735 376 752 c 1,41,42
 362 769 362 769 362 803.5 c 128,-1,43
 362 838 362 838 376 853 c 1,32,33
144 853 m 1,44,45
 170 870 170 870 202 870 c 128,-1,46
 234 870 234 870 268 853 c 1,47,48
 280 840 280 840 280 803 c 128,-1,49
 280 766 280 766 268 752 c 1,50,51
 234 735 234 735 202 735 c 128,-1,52
 170 735 170 735 144 752 c 1,53,54
 132 768 132 768 132 803 c 128,-1,55
 132 838 132 838 144 853 c 1,44,45
EndSplineSet
Substitution2: "'c2sc' Capitals to Small Capitals lookup 3 subtable" adieresis.smcp
Substitution2: "'aalt' Access All Alternates lookup 0 subtable" adieresis.smcp
EndChar

StartChar: Aring
Encoding: 197 197 196
Width: 638
Flags: HMW
HStem: 143 127<236 352 279 352 352 357 279 384> 839 77<307 337>
VStem: 181 92<774 802 774 823.5> 371 92<774 802>
LayerCount: 2
Fore
SplineSet
407 683 m 1,0,-1
 414 682 l 1,1,-1
 630 10 l 1,2,3
 595 -9 595 -9 547 -9 c 128,-1,4
 499 -9 499 -9 478 9 c 128,-1,5
 457 27 457 27 442 78 c 2,6,-1
 423 144 l 1,7,8
 410 143 410 143 384 143 c 2,9,-1
 242 143 l 2,10,11
 215 143 215 143 202 144 c 1,12,-1
 159 -1 l 1,13,14
 135 -7 135 -7 89.5 -7 c 128,-1,15
 44 -7 44 -7 14 4 c 1,16,-1
 9 12 l 1,17,-1
 229 683 l 1,18,19
 233 683 233 683 235 684 c 1,20,21
 181 719 181 719 181 788 c 0,22,23
 181 843 181 843 220 879.5 c 128,-1,24
 259 916 259 916 322 916 c 128,-1,25
 385 916 385 916 424 879.5 c 128,-1,26
 463 843 463 843 463 781.5 c 128,-1,27
 463 720 463 720 407 683 c 1,0,-1
239 269 m 1,28,-1
 279 270 l 1,29,-1
 352 270 l 2,30,31
 357 270 357 270 369.5 269.5 c 128,-1,32
 382 269 382 269 388 269 c 1,33,-1
 371 331 l 2,34,35
 347 415 347 415 316 537 c 1,36,-1
 310 537 l 1,37,38
 302 494 302 494 262 346 c 1,39,-1
 239 269 l 1,28,-1
273 788 m 128,-1,41
 273 766 273 766 286.5 751.5 c 128,-1,42
 300 737 300 737 322 737 c 128,-1,43
 344 737 344 737 357.5 751.5 c 128,-1,44
 371 766 371 766 371 788 c 128,-1,45
 371 810 371 810 357.5 824.5 c 128,-1,46
 344 839 344 839 322 839 c 128,-1,47
 300 839 300 839 286.5 824.5 c 128,-1,40
 273 810 273 810 273 788 c 128,-1,41
EndSplineSet
Substitution2: "'c2sc' Capitals to Small Capitals lookup 3 subtable" aring.smcp
Substitution2: "'aalt' Access All Alternates lookup 0 subtable" aring.smcp
EndChar

StartChar: Ccedilla
Encoding: 199 199 197
Width: 609
Flags: HMW
HStem: -232 78<290.5 304.5 284 348> -208 21G -96 64<293 346> 571 128<280 367>
VStem: 36 168<267 414 267 465> 329 118<-134.5 -117> 433 152
LayerCount: 2
Fore
SplineSet
254 -78 m 1,0,1
 262 -44 262 -44 274 -13 c 1,2,3
 209 -6 209 -6 161 27 c 128,-1,4
 113 60 113 60 86.5 110.5 c 0,5,6
 36 206.735849057 36 206.735849057 36 339 c 0,7,8
 36 518 36 518 118 608.5 c 128,-1,9
 200 699 200 699 321 699 c 128,-1,10
 442 699 442 699 513.5 639.5 c 128,-1,11
 585 580 585 580 585 491 c 128,-1,12
 585 402 585 402 494 402 c 0,13,14
 467 402 467 402 433 411 c 1,15,16
 437 571 437 571 323 571 c 0,17,18
 260 571 260 571 232 513 c 128,-1,19
 204 455 204 455 204 344 c 128,-1,20
 204 233 204 233 239.5 179 c 128,-1,21
 275 125 275 125 345 125 c 128,-1,22
 415 125 415 125 511 194 c 1,23,24
 536 177 536 177 557.5 147.5 c 128,-1,25
 579 118 579 118 584 91 c 1,26,27
 545 52 545 52 483.5 23.5 c 128,-1,28
 422 -5 422 -5 354 -12 c 1,29,-1
 346 -32 l 1,30,31
 392 -34 392 -34 419.5 -59 c 128,-1,32
 447 -84 447 -84 447 -127 c 128,-1,33
 447 -170 447 -170 407.5 -201 c 128,-1,34
 368 -232 368 -232 311 -232 c 128,-1,35
 254 -232 254 -232 221 -208 c 1,36,37
 223 -167 223 -167 247 -141 c 1,38,39
 267 -154 267 -154 293 -154 c 0,40,41
 329 -154 329 -154 329 -126 c 0,42,43
 329 -113 329 -113 320 -104.5 c 128,-1,44
 311 -96 311 -96 300.5 -96 c 128,-1,45
 290 -96 290 -96 276 -100 c 1,46,47
 261 -93 261 -93 254 -78 c 1,0,1
EndSplineSet
Substitution2: "'c2sc' Capitals to Small Capitals lookup 3 subtable" ccedilla.smcp
Substitution2: "'aalt' Access All Alternates lookup 0 subtable" ccedilla.smcp
EndChar

StartChar: Egrave
Encoding: 200 200 198
Width: 573
Flags: HMW
HStem: -3 134<306 433> 278 130<233 454 233 454 301 454> 549 134<232 301 232 232 301 505> 727 212<209 389>
VStem: 75 158<189 202 202 278 407 477> 148 285
LayerCount: 2
Fore
SplineSet
233 202 m 1,0,-1
 232 130 l 1,1,-1
 232 129 l 1,2,3
 278 131 278 131 306 131 c 2,4,-1
 538 131 l 1,5,6
 538 94 538 94 535 74 c 0,7,8
 523 -3 523 -3 433 -3 c 2,9,-1
 167 -3 l 2,10,11
 124 -3 124 -3 99.5 22 c 128,-1,12
 75 47 75 47 75 90 c 2,13,-1
 75 676 l 1,14,-1
 82 683 l 1,15,-1
 513 683 l 1,16,17
 519 654 519 654 519 620 c 128,-1,18
 519 586 519 586 505 549 c 1,19,-1
 232 549 l 1,20,-1
 233 477 l 1,21,-1
 233 407 l 1,22,23
 259 408 259 408 301 408 c 2,24,-1
 454 408 l 1,25,26
 463 380 463 380 463 344 c 128,-1,27
 463 308 463 308 454 278 c 1,28,-1
 233 278 l 1,29,-1
 233 202 l 1,0,-1
209 939 m 1,30,-1
 433 802 l 1,31,32
 424 748 424 748 389 727 c 1,33,-1
 148 821 l 1,34,35
 150 853 150 853 169.5 888 c 128,-1,36
 189 923 189 923 209 939 c 1,30,-1
EndSplineSet
Substitution2: "'c2sc' Capitals to Small Capitals lookup 3 subtable" egrave.smcp
Substitution2: "'aalt' Access All Alternates lookup 0 subtable" egrave.smcp
EndChar

StartChar: Eacute
Encoding: 201 201 199
Width: 573
Flags: HMW
HStem: -3 134<306 433> 278 130<233 454 233 454 301 454> 549 134<232 301 232 232 301 505> 727 212<219 398>
VStem: 75 158<189 202 202 278 407 477> 174 285<802 821>
LayerCount: 2
Fore
SplineSet
233 202 m 1,0,-1
 232 130 l 1,1,-1
 232 129 l 1,2,3
 278 131 278 131 306 131 c 2,4,-1
 538 131 l 1,5,6
 538 94 538 94 535 74 c 0,7,8
 523 -3 523 -3 433 -3 c 2,9,-1
 167 -3 l 2,10,11
 124 -3 124 -3 99.5 22 c 128,-1,12
 75 47 75 47 75 90 c 2,13,-1
 75 676 l 1,14,-1
 82 683 l 1,15,-1
 513 683 l 1,16,17
 519 654 519 654 519 620 c 128,-1,18
 519 586 519 586 505 549 c 1,19,-1
 232 549 l 1,20,-1
 233 477 l 1,21,-1
 233 407 l 1,22,23
 259 408 259 408 301 408 c 2,24,-1
 454 408 l 1,25,26
 463 380 463 380 463 344 c 128,-1,27
 463 308 463 308 454 278 c 1,28,-1
 233 278 l 1,29,-1
 233 202 l 1,0,-1
174 802 m 1,30,-1
 398 939 l 1,31,32
 418 923 418 923 437.5 888.5 c 128,-1,33
 457 854 457 854 459 821 c 1,34,-1
 219 727 l 1,35,36
 203 736 203 736 190 758 c 128,-1,37
 177 780 177 780 174 802 c 1,30,-1
EndSplineSet
Substitution2: "'c2sc' Capitals to Small Capitals lookup 3 subtable" eacute.smcp
Substitution2: "'aalt' Access All Alternates lookup 0 subtable" eacute.smcp
EndChar

StartChar: Ecircumflex
Encoding: 202 202 200
Width: 573
Flags: HMW
HStem: -3 134<306 433> 278 130<233 454 233 454 301 454> 549 134<232 301 232 232 301 505> 723 192
VStem: 75 158<189 202 202 278 407 477> 114 362<788 800>
LayerCount: 2
Fore
SplineSet
233 202 m 1,0,-1
 232 130 l 1,1,-1
 232 129 l 1,2,3
 278 131 278 131 306 131 c 2,4,-1
 538 131 l 1,5,6
 538 94 538 94 535 74 c 0,7,8
 523 -3 523 -3 433 -3 c 2,9,-1
 167 -3 l 2,10,11
 124 -3 124 -3 99.5 22 c 128,-1,12
 75 47 75 47 75 90 c 2,13,-1
 75 676 l 1,14,-1
 82 683 l 1,15,-1
 513 683 l 1,16,17
 519 654 519 654 519 620 c 128,-1,18
 519 586 519 586 505 549 c 1,19,-1
 232 549 l 1,20,-1
 233 477 l 1,21,-1
 233 407 l 1,22,23
 259 408 259 408 301 408 c 2,24,-1
 454 408 l 1,25,26
 463 380 463 380 463 344 c 128,-1,27
 463 308 463 308 454 278 c 1,28,-1
 233 278 l 1,29,-1
 233 202 l 1,0,-1
414 735 m 1,30,-1
 297 809 l 1,31,-1
 177 723 l 1,32,33
 159 730 159 730 139 749 c 128,-1,34
 119 768 119 768 114 788 c 1,35,-1
 232 909 l 1,36,37
 294 923 294 923 362 910 c 1,38,-1
 476 800 l 1,39,40
 469 778 469 778 450.5 760 c 128,-1,41
 432 742 432 742 414 735 c 1,30,-1
EndSplineSet
Substitution2: "'c2sc' Capitals to Small Capitals lookup 3 subtable" ecircumflex.smcp
Substitution2: "'aalt' Access All Alternates lookup 0 subtable" ecircumflex.smcp
EndChar

StartChar: Edieresis
Encoding: 203 203 201
Width: 573
Flags: HMW
HStem: -3 134<306 433> 278 130<233 454 233 454 301 454> 549 134<232 301 232 232 301 505> 752 118
VStem: 75 158<189 202 202 278 407 477> 121 124<752 752 853 853> 353 124<752 752 853 853>
LayerCount: 2
Fore
SplineSet
233 202 m 1,0,-1
 232 130 l 1,1,-1
 232 129 l 1,2,3
 278 131 278 131 306 131 c 2,4,-1
 538 131 l 1,5,6
 538 94 538 94 535 74 c 0,7,8
 523 -3 523 -3 433 -3 c 2,9,-1
 167 -3 l 2,10,11
 124 -3 124 -3 99.5 22 c 128,-1,12
 75 47 75 47 75 90 c 2,13,-1
 75 676 l 1,14,-1
 82 683 l 1,15,-1
 513 683 l 1,16,17
 519 654 519 654 519 620 c 128,-1,18
 519 586 519 586 505 549 c 1,19,-1
 232 549 l 1,20,-1
 233 477 l 1,21,-1
 233 407 l 1,22,23
 259 408 259 408 301 408 c 2,24,-1
 454 408 l 1,25,26
 463 380 463 380 463 344 c 128,-1,27
 463 308 463 308 454 278 c 1,28,-1
 233 278 l 1,29,-1
 233 202 l 1,0,-1
353 853 m 1,30,31
 387 870 387 870 418 870 c 128,-1,32
 449 870 449 870 477 853 c 1,33,34
 489 838 489 838 489 803 c 128,-1,35
 489 768 489 768 477 752 c 1,36,37
 449 735 449 735 418 735 c 128,-1,38
 387 735 387 735 353 752 c 1,39,40
 339 769 339 769 339 803.5 c 128,-1,41
 339 838 339 838 353 853 c 1,30,31
121 853 m 1,42,43
 147 870 147 870 179 870 c 128,-1,44
 211 870 211 870 245 853 c 1,45,46
 257 840 257 840 257 803 c 128,-1,47
 257 766 257 766 245 752 c 1,48,49
 211 735 211 735 179 735 c 128,-1,50
 147 735 147 735 121 752 c 1,51,52
 109 768 109 768 109 803 c 128,-1,53
 109 838 109 838 121 853 c 1,42,43
EndSplineSet
Substitution2: "'c2sc' Capitals to Small Capitals lookup 3 subtable" edieresis.smcp
Substitution2: "'aalt' Access All Alternates lookup 0 subtable" edieresis.smcp
EndChar

StartChar: Igrave
Encoding: 204 204 202
Width: 317
Flags: HMW
HStem: -6 695<148.5 169> 728 212<68 248>
VStem: 7 285<803 822> 78 161<0 683 0 683>
LayerCount: 2
Fore
SplineSet
78 0 m 1,0,-1
 78 683 l 1,1,2
 109 689 109 689 158 689 c 128,-1,3
 207 689 207 689 239 683 c 1,4,-1
 239 0 l 1,5,6
 207 -6 207 -6 158 -6 c 128,-1,7
 109 -6 109 -6 78 0 c 1,0,-1
68 940 m 1,8,-1
 292 803 l 1,9,10
 283 749 283 749 248 728 c 1,11,-1
 7 822 l 1,12,13
 9 854 9 854 28.5 889 c 128,-1,14
 48 924 48 924 68 940 c 1,8,-1
EndSplineSet
Substitution2: "'c2sc' Capitals to Small Capitals lookup 3 subtable" igrave.smcp
Substitution2: "'aalt' Access All Alternates lookup 0 subtable" igrave.smcp
EndChar

StartChar: Iacute
Encoding: 205 205 203
Width: 317
Flags: HMW
HStem: -6 695<148.5 169> 728 212<78 257>
VStem: 33 285<803 822> 78 161<0 683 0 683 0 728>
LayerCount: 2
Fore
SplineSet
78 0 m 1,0,-1
 78 683 l 1,1,2
 109 689 109 689 158 689 c 128,-1,3
 207 689 207 689 239 683 c 1,4,-1
 239 0 l 1,5,6
 207 -6 207 -6 158 -6 c 128,-1,7
 109 -6 109 -6 78 0 c 1,0,-1
33 803 m 1,8,-1
 257 940 l 1,9,10
 277 924 277 924 296.5 889.5 c 128,-1,11
 316 855 316 855 318 822 c 1,12,-1
 78 728 l 1,13,14
 62 737 62 737 49 759 c 128,-1,15
 36 781 36 781 33 803 c 1,8,-1
EndSplineSet
Substitution2: "'c2sc' Capitals to Small Capitals lookup 3 subtable" iacute.smcp
Substitution2: "'aalt' Access All Alternates lookup 0 subtable" iacute.smcp
EndChar

StartChar: Itilde
Encoding: 296 296 204
Width: 317
Flags: HMW
HStem: -6 695<148.5 169> 742 117<229.5 240.5 229.5 253>
VStem: -42 400<802 849> 78 161<0 683 0 683>
LayerCount: 2
Fore
SplineSet
78 0 m 1,0,-1
 78 683 l 1,1,2
 109 689 109 689 158 689 c 128,-1,3
 207 689 207 689 239 683 c 1,4,-1
 239 0 l 1,5,6
 207 -6 207 -6 158 -6 c 128,-1,7
 109 -6 109 -6 78 0 c 1,0,-1
159 760 m 1,8,-1
 112 782 l 1,9,10
 96 791 96 791 78 791 c 0,11,12
 60 791 60 791 44 767 c 2,13,-1
 36 755 l 1,14,15
 13 755 13 755 -10.5 768.5 c 128,-1,16
 -34 782 -34 782 -42 802 c 1,17,-1
 -33 821 l 2,18,19
 8 909 8 909 91 909 c 0,20,21
 125 909 125 909 157 891 c 1,22,-1
 204 868 l 1,23,24
 220 859 220 859 237.5 859 c 0,25,26
 255 859 255 859 272 883 c 1,27,-1
 280 896 l 1,28,29
 303 896 303 896 326.5 882.5 c 128,-1,30
 350 869 350 869 358 849 c 1,31,-1
 349 830 l 2,32,33
 308 742 308 742 225 742 c 0,34,35
 193 742 193 742 159 760 c 1,8,-1
EndSplineSet
Substitution2: "'c2sc' Capitals to Small Capitals lookup 3 subtable" itilde.smcp
Substitution2: "'aalt' Access All Alternates lookup 0 subtable" itilde.smcp
EndChar

StartChar: Icircumflex
Encoding: 206 206 205
Width: 317
Flags: HMW
HStem: -6 695<148.5 169> 724 192
VStem: -27 362<789 801> 78 161<0 683 0 683>
LayerCount: 2
Fore
SplineSet
78 0 m 1,0,-1
 78 683 l 1,1,2
 109 689 109 689 158 689 c 128,-1,3
 207 689 207 689 239 683 c 1,4,-1
 239 0 l 1,5,6
 207 -6 207 -6 158 -6 c 128,-1,7
 109 -6 109 -6 78 0 c 1,0,-1
273 736 m 1,8,-1
 156 810 l 1,9,-1
 36 724 l 1,10,11
 18 731 18 731 -2 750 c 128,-1,12
 -22 769 -22 769 -27 789 c 1,13,-1
 91 910 l 1,14,15
 153 924 153 924 221 911 c 1,16,-1
 335 801 l 1,17,18
 328 779 328 779 309.5 761 c 128,-1,19
 291 743 291 743 273 736 c 1,8,-1
EndSplineSet
Substitution2: "'c2sc' Capitals to Small Capitals lookup 3 subtable" icircumflex.smcp
Substitution2: "'aalt' Access All Alternates lookup 0 subtable" icircumflex.smcp
EndChar

StartChar: Idieresis
Encoding: 207 207 206
Width: 317
Flags: HMW
HStem: -6 695<148.5 169> 753 118
VStem: -20 124<753 753 854 854> 78 161<0 683 0 683> 212 124<753 753 854 854>
LayerCount: 2
Fore
SplineSet
78 0 m 1,0,-1
 78 683 l 1,1,2
 109 689 109 689 158 689 c 128,-1,3
 207 689 207 689 239 683 c 1,4,-1
 239 0 l 1,5,6
 207 -6 207 -6 158 -6 c 128,-1,7
 109 -6 109 -6 78 0 c 1,0,-1
212 854 m 1,8,9
 246 871 246 871 277 871 c 128,-1,10
 308 871 308 871 336 854 c 1,11,12
 348 839 348 839 348 804 c 128,-1,13
 348 769 348 769 336 753 c 1,14,15
 308 736 308 736 277 736 c 128,-1,16
 246 736 246 736 212 753 c 1,17,18
 198 770 198 770 198 804.5 c 128,-1,19
 198 839 198 839 212 854 c 1,8,9
-20 854 m 1,20,21
 6 871 6 871 38 871 c 128,-1,22
 70 871 70 871 104 854 c 1,23,24
 116 841 116 841 116 804 c 128,-1,25
 116 767 116 767 104 753 c 1,26,27
 70 736 70 736 38 736 c 128,-1,28
 6 736 6 736 -20 753 c 1,29,30
 -32 769 -32 769 -32 804 c 128,-1,31
 -32 839 -32 839 -20 854 c 1,20,21
EndSplineSet
Substitution2: "'c2sc' Capitals to Small Capitals lookup 3 subtable" idieresis.smcp
Substitution2: "'aalt' Access All Alternates lookup 0 subtable" idieresis.smcp
EndChar

StartChar: IJ
Encoding: 306 306 207
Width: 780
Flags: HMW
HStem: -10 132<455.5 500.5 448.5 576> -6 695<148.5 169>
VStem: 78 161<0 683 0 683> 554 160<247 262 262 683>
LayerCount: 2
Fore
SplineSet
78 0 m 1,0,-1
 78 683 l 1,1,2
 109 689 109 689 158 689 c 128,-1,3
 207 689 207 689 239 683 c 1,4,-1
 239 0 l 1,5,6
 207 -6 207 -6 158 -6 c 128,-1,7
 109 -6 109 -6 78 0 c 1,0,-1
374 152 m 1,8,9
 423 122 423 122 469.5 122 c 0,10,11
 516 122 516 122 535 152.5 c 128,-1,12
 554 183 554 183 554 247 c 2,13,-1
 554 683 l 1,14,15
 584 689 584 689 633.5 689 c 0,16,17
 683 689 683 689 714 683 c 1,18,-1
 714 262 l 2,19,20
 714 131 714 131 663.5 60.5 c 128,-1,21
 613 -10 613 -10 482 -10 c 0,22,23
 388 -10 388 -10 319 34 c 1,24,25
 329 103 329 103 374 152 c 1,8,9
EndSplineSet
Substitution2: "'c2sc' Capitals to Small Capitals lookup 3 subtable" ij.smcp
Substitution2: "'aalt' Access All Alternates lookup 0 subtable" ij.smcp
EndChar

StartChar: Jcircumflex
Encoding: 308 308 208
Width: 471
Flags: HMW
HStem: -10 132<146.5 191.5 139.5 267> 723 192
VStem: 140 362<788 800> 245 160<247 262 262 683>
LayerCount: 2
Fore
SplineSet
65 152 m 1,0,1
 114 122 114 122 160.5 122 c 0,2,3
 207 122 207 122 226 152.5 c 128,-1,4
 245 183 245 183 245 247 c 2,5,-1
 245 683 l 1,6,7
 275 689 275 689 324.5 689 c 0,8,9
 374 689 374 689 405 683 c 1,10,-1
 405 262 l 2,11,12
 405 131 405 131 354.5 60.5 c 128,-1,13
 304 -10 304 -10 173 -10 c 0,14,15
 79 -10 79 -10 10 34 c 1,16,17
 20 103 20 103 65 152 c 1,0,1
440 735 m 1,18,-1
 323 809 l 1,19,-1
 203 723 l 1,20,21
 185 730 185 730 165 749 c 128,-1,22
 145 768 145 768 140 788 c 1,23,-1
 258 909 l 1,24,25
 320 923 320 923 388 910 c 1,26,-1
 502 800 l 1,27,28
 495 778 495 778 476.5 760 c 128,-1,29
 458 742 458 742 440 735 c 1,18,-1
EndSplineSet
Substitution2: "'c2sc' Capitals to Small Capitals lookup 3 subtable" jcircumflex.smcp
Substitution2: "'aalt' Access All Alternates lookup 0 subtable" jcircumflex.smcp
EndChar

